<svg version="1.1" xmlns="http://www.w3.org/2000/svg" viewBox="0 0 1047.5203897275474 610.8391644844141" width="1047.5203897275474" height="610.8391644844141" filter="invert(93%) hue-rotate(180deg)">
  <!-- svg-source:excalidraw -->
  
  <defs>
    <style class="style-fonts">
      @font-face {
        font-family: "Virgil";
        src: url("https://excalidraw.com/Virgil.woff2");
      }
      @font-face {
        font-family: "Cascadia";
        src: url("https://excalidraw.com/Cascadia.woff2");
      }
      @font-face {
        font-family: "Assistant";
        src: url("https://excalidraw.com/Assistant-Regular.woff2");
      }
    </style>
    
  </defs>
  <g stroke-linecap="round" transform="translate(10 166.61169874285133) rotate(0 48.217029756591415 48.2170297565915)"><path d="M33.95 1.1 C41.12 -1.57, 51.09 -0.48, 59.01 1.38 C66.93 3.24, 75.51 6.84, 81.48 12.25 C87.46 17.66, 92.61 25.82, 94.86 33.83 C97.12 41.85, 96.96 52.48, 95.03 60.34 C93.1 68.2, 88.87 75.35, 83.27 80.98 C77.67 86.62, 69.11 91.91, 61.42 94.16 C53.72 96.41, 44.78 96.16, 37.1 94.46 C29.41 92.77, 21.04 89.43, 15.3 84 C9.57 78.57, 5.05 69.58, 2.67 61.86 C0.29 54.14, -0.61 45.41, 1.03 37.68 C2.68 29.95, 6.43 21.5, 12.54 15.48 C18.65 9.45, 33 3.72, 37.68 1.54 C42.36 -0.65, 40.44 1.65, 40.62 2.36 M54.65 0.43 C62.3 0.48, 72.53 4.6, 78.89 9.68 C85.25 14.75, 89.72 23.19, 92.81 30.87 C95.9 38.56, 98.47 48.06, 97.44 55.79 C96.41 63.53, 91.64 71.14, 86.64 77.3 C81.64 83.46, 74.9 89.51, 67.45 92.77 C59.99 96.03, 49.85 97.78, 41.94 96.87 C34.02 95.96, 26.46 92.59, 19.95 87.3 C13.45 82, 6.36 72.71, 2.91 65.12 C-0.54 57.52, -1.76 49.32, -0.75 41.72 C0.27 34.12, 3.6 25.83, 9 19.51 C14.39 13.19, 23.89 6.84, 31.62 3.8 C39.35 0.75, 51.36 1.44, 55.37 1.25 C59.38 1.06, 56.01 2.04, 55.69 2.68" stroke="#e03131" stroke-width="1" fill="none"></path></g><g stroke-opacity="0.8" fill-opacity="0.8" transform="translate(37.028691047032 193.1341397898832) rotate(0 21.09375 21.59999999999991)"><text x="21.09375" y="34.762499999999996" font-family="Cascadia, Segoe UI Emoji" font-size="36px" fill="#e03131" text-anchor="middle" style="white-space: pre;" direction="ltr" dominant-baseline="alphabetic">c1</text></g><g stroke-linecap="round" transform="translate(242.7715825535911 166.61169874285133) rotate(0 48.217029756591444 48.2170297565915)"><path d="M27.37 3.81 C34.09 -0.25, 44.23 -1.44, 52.22 -0.53 C60.2 0.38, 68.7 4.7, 75.28 9.26 C81.86 13.83, 88.29 19.83, 91.7 26.87 C95.12 33.91, 96.36 43.54, 95.78 51.51 C95.19 59.49, 92.57 67.89, 88.18 74.71 C83.79 81.53, 76.56 88.85, 69.42 92.43 C62.27 96.02, 53.42 96.84, 45.32 96.23 C37.21 95.61, 27.65 93.2, 20.79 88.76 C13.92 84.32, 7.51 76.89, 4.11 69.59 C0.7 62.29, -0.34 52.92, 0.37 44.96 C1.09 37, 3.55 28.72, 8.4 21.85 C13.24 14.99, 25.52 6.62, 29.43 3.76 C33.33 0.9, 31.39 3.96, 31.83 4.68 M47.37 0.71 C55.08 0.13, 66.06 3.25, 73.17 6.95 C80.29 10.64, 85.98 16.13, 90.05 22.86 C94.12 29.59, 97.49 39.04, 97.61 47.33 C97.73 55.62, 94.65 65.37, 90.78 72.6 C86.91 79.83, 81.46 86.92, 74.39 90.7 C67.32 94.48, 56.83 95.31, 48.35 95.28 C39.87 95.26, 30.65 94.12, 23.52 90.57 C16.39 87.01, 9.27 80.84, 5.59 73.95 C1.92 67.06, 1.3 57.31, 1.46 49.24 C1.61 41.17, 2.71 32.38, 6.53 25.52 C10.34 18.66, 17.67 12.36, 24.36 8.08 C31.06 3.8, 42.83 1.25, 46.72 -0.18 C50.61 -1.61, 47.65 -1.43, 47.71 -0.53" stroke="#e03131" stroke-width="1" fill="none"></path></g><g stroke-opacity="0.8" fill-opacity="0.8" transform="translate(269.8002736006231 193.1341397898832) rotate(0 21.09375 21.59999999999991)"><text x="21.09375" y="34.762499999999996" font-family="Cascadia, Segoe UI Emoji" font-size="36px" fill="#e03131" text-anchor="middle" style="white-space: pre;" direction="ltr" dominant-baseline="alphabetic">c2</text></g><g stroke-linecap="round" transform="translate(475.5431651071822 166.61169874285133) rotate(0 48.217029756591444 48.2170297565915)"><path d="M25.58 6.5 C31.94 2.36, 42.08 -0.47, 50.04 -0.37 C58 -0.27, 66.5 2.86, 73.31 7.09 C80.13 11.32, 87.05 17.73, 90.94 25.01 C94.83 32.29, 96.86 42.64, 96.66 50.77 C96.46 58.89, 94.1 66.97, 89.74 73.76 C85.38 80.55, 77.82 87.67, 70.49 91.52 C63.16 95.36, 53.71 97.19, 45.77 96.83 C37.83 96.47, 29.52 93.59, 22.83 89.38 C16.15 85.17, 9.4 78.74, 5.64 71.56 C1.87 64.38, -0.1 54.36, 0.24 46.31 C0.57 38.27, 2.42 30.48, 7.65 23.28 C12.88 16.08, 26.84 6.46, 31.59 3.11 C36.34 -0.25, 36.07 2.4, 36.15 3.17 M59.81 0.69 C67.35 1.61, 76.67 7.23, 82.51 13.01 C88.36 18.78, 92.53 27.42, 94.87 35.33 C97.21 43.24, 98.6 52.99, 96.56 60.46 C94.53 67.94, 88.63 74.49, 82.67 80.19 C76.71 85.88, 68.6 92, 60.79 94.65 C52.99 97.31, 43.2 97.97, 35.83 96.12 C28.46 94.28, 22.12 89.12, 16.55 83.56 C10.99 78, 4.84 70.33, 2.44 62.79 C0.05 55.25, 0.53 46.29, 2.19 38.31 C3.85 30.34, 6.99 21.22, 12.4 14.92 C17.8 8.62, 26.88 2.72, 34.62 0.52 C42.36 -1.68, 54.62 1.54, 58.83 1.72 C63.04 1.91, 59.74 0.74, 59.88 1.63" stroke="#e03131" stroke-width="1" fill="none"></path></g><g stroke-opacity="0.8" fill-opacity="0.8" transform="translate(502.5718561542143 193.13413978988365) rotate(0 21.09375 21.59999999999991)"><text x="21.09375" y="34.762499999999996" font-family="Cascadia, Segoe UI Emoji" font-size="36px" fill="#e03131" text-anchor="middle" style="white-space: pre;" direction="ltr" dominant-baseline="alphabetic">c3</text></g><g stroke-linecap="round" transform="translate(708.3147476607728 166.61169874285133) rotate(0 48.21702975659139 48.2170297565915)"><path d="M68.65 4.52 C75.84 7.17, 83.54 13.62, 88.19 20.45 C92.84 27.27, 95.87 37.34, 96.56 45.45 C97.24 53.56, 95.9 61.88, 92.32 69.1 C88.73 76.32, 81.92 84.17, 75.05 88.77 C68.18 93.38, 59.02 96.2, 51.09 96.73 C43.17 97.26, 34.61 95.39, 27.49 91.96 C20.38 88.52, 12.91 82.84, 8.39 76.12 C3.86 69.4, 0.89 59.67, 0.34 51.64 C-0.22 43.61, 1.46 35.18, 5.08 27.94 C8.69 20.69, 15.41 12.68, 22.01 8.16 C28.6 3.63, 36.3 1.07, 44.63 0.78 C52.96 0.49, 66.87 4.84, 71.99 6.4 C77.11 7.97, 75.58 9.42, 75.33 10.18 M38.8 1.92 C46.18 -0.11, 57.25 1.34, 64.71 3.51 C72.17 5.67, 78.65 9.09, 83.57 14.93 C88.48 20.78, 92.66 30.37, 94.19 38.59 C95.73 46.81, 94.85 56.63, 92.79 64.27 C90.72 71.92, 87.52 79.14, 81.81 84.46 C76.09 89.77, 66.46 94.39, 58.5 96.19 C50.54 97.99, 41.87 97.94, 34.04 95.27 C26.21 92.6, 16.97 86.62, 11.5 80.17 C6.03 73.72, 2.82 64.35, 1.22 56.58 C-0.39 48.81, -0.72 41.06, 1.87 33.58 C4.47 26.09, 10.5 16.9, 16.81 11.65 C23.11 6.41, 36.01 3.59, 39.72 2.09 C43.42 0.58, 39.17 1.85, 39.04 2.61" stroke="#e03131" stroke-width="1" fill="none"></path></g><g stroke-opacity="0.8" fill-opacity="0.8" transform="translate(735.3434387078048 193.13413978988365) rotate(0 21.09375 21.59999999999991)"><text x="21.09375" y="34.762499999999996" font-family="Cascadia, Segoe UI Emoji" font-size="36px" fill="#e03131" text-anchor="middle" style="white-space: pre;" direction="ltr" dominant-baseline="alphabetic">c4</text></g><g stroke-linecap="round" transform="translate(941.0863302143644 166.61169874285133) rotate(0 48.21702975659139 48.2170297565915)"><path d="M41.76 1.26 C49.32 -0.4, 59.6 0.44, 66.96 3.44 C74.32 6.43, 81.2 12.81, 85.92 19.22 C90.64 25.64, 94.08 34.04, 95.28 41.94 C96.49 49.83, 96.05 59.09, 93.16 66.6 C90.27 74.11, 84.27 82.12, 77.93 86.99 C71.59 91.86, 63.04 94.73, 55.13 95.83 C47.21 96.93, 37.76 96.62, 30.43 93.6 C23.1 90.58, 16.13 84.04, 11.13 77.7 C6.13 71.36, 1.77 63.51, 0.44 55.57 C-0.89 47.64, 0.05 37.47, 3.14 30.07 C6.23 22.68, 12.07 16.14, 19 11.21 C25.94 6.27, 40.18 2.04, 44.76 0.46 C49.34 -1.11, 46.55 0.97, 46.51 1.77 M61.96 1.04 C69.01 2.5, 77.09 9.49, 82.43 15.75 C87.77 22.01, 91.81 30.76, 94.02 38.61 C96.23 46.46, 97.82 55.21, 95.7 62.85 C93.59 70.48, 87.34 78.82, 81.34 84.43 C75.34 90.04, 67.74 94.9, 59.7 96.5 C51.66 98.11, 40.9 96.92, 33.11 94.07 C25.32 91.22, 18.39 85.22, 12.98 79.42 C7.57 73.61, 2.32 66.93, 0.64 59.24 C-1.04 51.54, 0.2 40.83, 2.91 33.26 C5.61 25.7, 11.01 19.09, 16.88 13.85 C22.74 8.61, 30.55 3.62, 38.1 1.83 C45.65 0.04, 58.35 3.06, 62.16 3.11 C65.96 3.15, 61.16 1.26, 60.95 2.09" stroke="#e03131" stroke-width="1" fill="none"></path></g><g stroke-opacity="0.8" fill-opacity="0.8" transform="translate(968.1150212613964 193.1341397898832) rotate(0 21.09375 21.59999999999991)"><text x="21.09375" y="34.762499999999996" font-family="Cascadia, Segoe UI Emoji" font-size="36px" fill="#e03131" text-anchor="middle" style="white-space: pre;" direction="ltr" dominant-baseline="alphabetic">c5</text></g><g stroke-linecap="round"><g stroke-opacity="0.8" fill-opacity="0.8" transform="translate(107.40592483700675 213.16481178605682) rotate(0 67.19689619638007 0)"><path d="M0 0 C37.08 2.44, 74.49 0.72, 134.39 0" stroke="#1971c2" stroke-width="2.5" fill="none" stroke-dasharray="8 10"></path></g><g stroke-opacity="0.8" fill-opacity="0.8" transform="translate(107.40592483700675 213.16481178605682) rotate(0 67.19689619638007 0)"><path d="M23.57 -8.34 C17.67 -4.65, 12.11 -4.1, 0 0" stroke="#1971c2" stroke-width="2.5" fill="none"></path></g><g stroke-opacity="0.8" fill-opacity="0.8" transform="translate(107.40592483700675 213.16481178605682) rotate(0 67.19689619638007 0)"><path d="M23.41 8.76 C17.54 7.8, 12.02 3.69, 0 0" stroke="#1971c2" stroke-width="2.5" fill="none"></path></g></g><mask></mask><g stroke-linecap="round"><g stroke-opacity="0.8" fill-opacity="0.8" transform="translate(340.1025570847096 212.71945058284882) rotate(0 69.41016718322851 0)"><path d="M0 0 C34.02 -1.24, 64.75 0.29, 138.82 0" stroke="#1971c2" stroke-width="2.5" fill="none" stroke-dasharray="8 10"></path></g><g stroke-opacity="0.8" fill-opacity="0.8" transform="translate(340.1025570847096 212.71945058284882) rotate(0 69.41016718322851 0)"><path d="M23.48 -8.58 C19.33 -6.53, 11.87 -2.98, 0 0" stroke="#1971c2" stroke-width="2.5" fill="none"></path></g><g stroke-opacity="0.8" fill-opacity="0.8" transform="translate(340.1025570847096 212.71945058284882) rotate(0 69.41016718322851 0)"><path d="M23.5 8.52 C19.31 6.55, 11.84 6.07, 0 0" stroke="#1971c2" stroke-width="2.5" fill="none"></path></g></g><mask></mask><g stroke-linecap="round"><g stroke-opacity="0.8" fill-opacity="0.8" transform="translate(573.0544696581587 213.0053173424385) rotate(0 69.41016718322851 0)"><path d="M0 0 C51.98 1.48, 103.76 0.96, 138.82 0" stroke="#1971c2" stroke-width="2.5" fill="none" stroke-dasharray="8 10"></path></g><g stroke-opacity="0.8" fill-opacity="0.8" transform="translate(573.0544696581587 213.0053173424385) rotate(0 69.41016718322851 0)"><path d="M23.55 -8.39 C14.1 -3.85, 4.41 -1.2, 0 0" stroke="#1971c2" stroke-width="2.5" fill="none"></path></g><g stroke-opacity="0.8" fill-opacity="0.8" transform="translate(573.0544696581587 213.0053173424385) rotate(0 69.41016718322851 0)"><path d="M23.43 8.71 C13.92 6.77, 4.27 2.95, 0 0" stroke="#1971c2" stroke-width="2.5" fill="none"></path></g></g><mask></mask><g stroke-linecap="round"><g stroke-opacity="0.8" fill-opacity="0.8" transform="translate(806.0063822316079 213.15996632116503) rotate(0 69.41016718322851 0)"><path d="M0 0 C39.23 -0.1, 81.67 -0.32, 138.82 0" stroke="#1971c2" stroke-width="2.5" fill="none" stroke-dasharray="8 10"></path></g><g stroke-opacity="0.8" fill-opacity="0.8" transform="translate(806.0063822316079 213.15996632116503) rotate(0 69.41016718322851 0)"><path d="M23.48 -8.59 C15.22 -5.06, 10.2 -2.77, 0 0" stroke="#1971c2" stroke-width="2.5" fill="none"></path></g><g stroke-opacity="0.8" fill-opacity="0.8" transform="translate(806.0063822316079 213.15996632116503) rotate(0 69.41016718322851 0)"><path d="M23.51 8.51 C15.3 7.04, 10.26 4.33, 0 0" stroke="#1971c2" stroke-width="2.5" fill="none"></path></g></g><mask></mask><g stroke-opacity="0.8" fill-opacity="0.8" transform="translate(16.387050813720407 274.69734051273963) rotate(0 41.829978942871094 12.5)"><text x="41.829978942871094" y="17.52" font-family="Virgil, Segoe UI Emoji" font-size="20px" fill="#868e96" text-anchor="middle" style="white-space: pre;" direction="ltr" dominant-baseline="alphabetic">HEAD~3</text></g><g stroke-opacity="0.8" fill-opacity="0.8" transform="translate(247.84863580871752 274.69734051273963) rotate(0 42.139976501464844 12.5)"><text x="42.139976501464844" y="17.52" font-family="Virgil, Segoe UI Emoji" font-size="20px" fill="#868e96" text-anchor="middle" style="white-space: pre;" direction="ltr" dominant-baseline="alphabetic">HEAD~2</text></g><g stroke-opacity="0.8" fill-opacity="0.8" transform="translate(489.03021439502345 309.69734051273963) rotate(0 37.72998046875 12.5)"><text x="37.72998046875" y="17.52" font-family="Virgil, Segoe UI Emoji" font-size="20px" fill="#868e96" text-anchor="middle" style="white-space: pre;" direction="ltr" dominant-baseline="alphabetic">HEAD~1</text></g><g stroke-opacity="0.8" fill-opacity="0.8" transform="translate(729.921792065802 309.69734051273963) rotate(0 26.6099853515625 12.5)"><text x="26.6099853515625" y="17.52" font-family="Virgil, Segoe UI Emoji" font-size="20px" fill="#868e96" text-anchor="middle" style="white-space: pre;" direction="ltr" dominant-baseline="alphabetic">HEAD</text></g><g stroke-opacity="0.8" fill-opacity="0.8" stroke-linecap="round" transform="translate(945.0900267222737 10) rotate(0 44.21333324868192 26.14769789164211)"><path d="M0 0 C0 0, 0 0, 0 0 M0 0 C0 0, 0 0, 0 0 M0.13 12.04 C3.84 9.17, 8.09 1.81, 10.63 -0.03 M0.13 12.04 C2.69 8.88, 4.52 5.58, 10.63 -0.03 M0.27 24.08 C6.44 14.88, 15.06 7.83, 21.26 -0.07 M0.27 24.08 C9.5 13.57, 17.37 4.35, 21.26 -0.07 M-0.26 36.88 C9.21 26.59, 16.13 18.5, 31.89 -0.1 M-0.26 36.88 C9.37 25.04, 19.74 14.47, 31.89 -0.1 M-0.12 48.92 C14.47 32.34, 26.88 16.66, 42.52 -0.14 M-0.12 48.92 C16.52 31.29, 32.51 11.45, 42.52 -0.14 M4.6 55.68 C18.8 36.77, 35.76 19.47, 53.15 -0.17 M4.6 55.68 C15.9 43.78, 26.4 30.58, 53.15 -0.17 M14.58 56.4 C31.58 37.09, 50.71 16.55, 63.78 -0.21 M14.58 56.4 C29.46 39.13, 44.67 20.96, 63.78 -0.21 M25.21 56.36 C41.08 39.37, 55.06 20.81, 74.41 -0.24 M25.21 56.36 C42.12 35.85, 61.44 13.83, 74.41 -0.24 M35.84 56.33 C47.03 43.03, 61.49 27.87, 85.04 -0.28 M35.84 56.33 C45.46 45.22, 55.52 34.42, 85.04 -0.28 M46.47 56.29 C56.81 45.41, 66.27 33.11, 92.39 3.46 M46.47 56.29 C63.43 35.77, 81.21 14.15, 92.39 3.46 M57.1 56.26 C67.19 47.3, 77.05 33.89, 92.52 15.5 M57.1 56.26 C65.77 45.86, 74.69 36.74, 92.52 15.5 M67.73 56.22 C75.27 49.9, 82.23 41.81, 92.66 27.54 M67.73 56.22 C75.83 47.93, 83.39 36.98, 92.66 27.54 M78.36 56.19 C82.33 48.49, 90.14 42.45, 92.13 40.34 M78.36 56.19 C83.94 49.16, 89.76 43.34, 92.13 40.34" stroke="#ffc9c9" stroke-width="1" fill="none"></path><path d="M0 0 C32.5 1.48, 64.38 0.02, 88.43 0 M88.43 0 C89.53 17.31, 90.52 36.04, 88.43 52.3 M88.43 52.3 C60.71 52.35, 28.55 51.52, 0 52.3 M0 52.3 C2.36 36.19, 1 20.33, 0 0" stroke="#1971c2" stroke-width="2.5" fill="none" stroke-dasharray="8 10"></path></g><g stroke-opacity="0.8" fill-opacity="0.8" transform="translate(963.1933746193931 23.64769789164211) rotate(0 26.1099853515625 12.5)"><text x="26.1099853515625" y="17.52" font-family="Virgil, Segoe UI Emoji" font-size="20px" fill="#1971c2" text-anchor="middle" style="white-space: pre;" direction="ltr" dominant-baseline="alphabetic">MAIN</text></g><g stroke-opacity="0.8" fill-opacity="0.8" stroke-linecap="round" transform="translate(614.1105682461161 548.5437687011299) rotate(0 35.180461163573 26.14769789164211)"><path d="M0 0 C0 0, 0 0, 0 0 M0 0 C0 0, 0 0, 0 0 M0.13 12.04 C3.2 8.86, 7.49 3.09, 10.63 -0.03 M0.13 12.04 C3.35 9.13, 5.35 5.43, 10.63 -0.03 M0.27 24.08 C7.89 17.72, 12 12.81, 21.26 -0.07 M0.27 24.08 C4.3 19.87, 9.26 14.45, 21.26 -0.07 M-0.26 36.88 C7.91 26.21, 17.06 17.19, 31.89 -0.1 M-0.26 36.88 C8.74 26.17, 17.08 16.84, 31.89 -0.1 M-0.12 48.92 C13.21 33.77, 24.99 22.99, 42.52 -0.14 M-0.12 48.92 C16.3 30.53, 33.08 10.71, 42.52 -0.14 M7.23 52.66 C16.01 42.12, 27.59 30.11, 53.15 -0.17 M7.23 52.66 C23.75 34.41, 40.29 15.37, 53.15 -0.17 M17.86 52.62 C34.77 32.93, 51.16 12.48, 63.78 -0.21 M17.86 52.62 C33.19 34.95, 48.93 18.48, 63.78 -0.21 M28.49 52.59 C44.4 36.89, 59.01 17.73, 71.13 3.53 M28.49 52.59 C43 36.24, 58.98 17.52, 71.13 3.53 M39.12 52.55 C48.39 39, 62.7 25.45, 71.26 15.57 M39.12 52.55 C49.22 39.25, 60.35 27.27, 71.26 15.57 M49.75 52.52 C57.4 45.95, 63.07 37.36, 70.74 28.37 M49.75 52.52 C56.43 45.27, 62.85 37.4, 70.74 28.37 M60.38 52.48 C63.43 47.78, 68.99 43.22, 70.87 40.41 M60.38 52.48 C63.07 49.66, 65.93 46.08, 70.87 40.41" stroke="#ffc9c9" stroke-width="1" fill="none"></path><path d="M0 0 C26.62 2.03, 52.5 0.65, 70.36 0 M70.36 0 C71.37 14.74, 72.69 28.53, 70.36 52.3 M70.36 52.3 C52.35 50.08, 35.05 53.66, 0 52.3 M0 52.3 C1.03 37.25, -1.18 18.62, 0 0" stroke="#343a40" stroke-width="2.5" fill="none" stroke-dasharray="8 10"></path></g><g stroke-opacity="0.8" fill-opacity="0.8" transform="translate(622.6810440581266 562.191466592772) rotate(0 26.6099853515625 12.5)"><text x="26.6099853515625" y="17.52" font-family="Virgil, Segoe UI Emoji" font-size="20px" fill="#343a40" text-anchor="middle" style="white-space: pre;" direction="ltr" dominant-baseline="alphabetic">HEAD</text></g><g stroke-linecap="round"><g stroke-opacity="0.8" fill-opacity="0.8" transform="translate(988.7901041863247 75.29528697010664) rotate(0 0 37.55755758195801)"><path d="M0 0 C-0.4 31.52, 0.21 60.48, 0 75.12 M0 0 C0.32 26.31, -0.09 54.3, 0 75.12" stroke="#1971c2" stroke-width="2" fill="none"></path></g><g stroke-opacity="0.8" fill-opacity="0.8" transform="translate(988.7901041863247 75.29528697010664) rotate(0 0 37.55755758195801)"><path d="M-8.53 51.61 C-5.82 62.53, -1.82 70.92, 0 75.12 M-8.53 51.61 C-5.63 59.26, -2.97 68.65, 0 75.12" stroke="#1971c2" stroke-width="2" fill="none"></path></g><g stroke-opacity="0.8" fill-opacity="0.8" transform="translate(988.7901041863247 75.29528697010664) rotate(0 0 37.55755758195801)"><path d="M8.57 51.63 C4.46 62.6, 1.65 70.98, 0 75.12 M8.57 51.63 C5.31 59.39, 1.81 68.78, 0 75.12" stroke="#1971c2" stroke-width="2" fill="none"></path></g></g><mask></mask><g stroke-linecap="round" transform="translate(475.5431651071822 341.19695356647617) rotate(0 48.217029756591444 48.2170297565915)"><path d="M70.24 5.02 C77.52 7.76, 84.72 14.96, 89.23 21.52 C93.73 28.09, 97.05 36.36, 97.28 44.41 C97.51 52.46, 94.4 62.53, 90.59 69.83 C86.79 77.13, 81.01 83.83, 74.48 88.22 C67.95 92.6, 59.29 95.72, 51.43 96.15 C43.57 96.57, 34.54 94.38, 27.32 90.77 C20.1 87.16, 12.75 81.01, 8.13 74.48 C3.51 67.96, 0.24 59.47, -0.41 51.63 C-1.07 43.79, 0.45 34.82, 4.22 27.45 C7.99 20.08, 15.22 12.05, 22.22 7.41 C29.22 2.77, 38.03 -0.04, 46.22 -0.4 C54.4 -0.76, 67.1 3.82, 71.34 5.26 C75.59 6.69, 71.92 7.48, 71.7 8.2 M49.48 0.78 C56.98 0.12, 66.67 2.64, 73.29 6.62 C79.9 10.61, 85.54 17.44, 89.17 24.69 C92.8 31.94, 95.1 41.86, 95.05 50.14 C95.01 58.41, 92.71 67.41, 88.92 74.35 C85.14 81.29, 79.57 88.13, 72.35 91.79 C65.14 95.45, 54.09 96.52, 45.63 96.31 C37.18 96.1, 28.46 94.61, 21.64 90.52 C14.81 86.44, 8.13 79.24, 4.69 71.81 C1.26 64.37, 0.61 54, 1.01 45.9 C1.41 37.81, 3.19 29.67, 7.11 23.23 C11.02 16.78, 17.37 11.22, 24.51 7.25 C31.64 3.27, 45.71 0.63, 49.91 -0.65 C54.11 -1.92, 49.54 -1.38, 49.69 -0.4" stroke="#2f9e44" stroke-width="1" fill="none"></path></g><g stroke-opacity="0.8" fill-opacity="0.8" transform="translate(502.5718561542143 367.7193946135085) rotate(0 21.09375 21.59999999999991)"><text x="21.09375" y="34.762499999999996" font-family="Cascadia, Segoe UI Emoji" font-size="36px" fill="#2f9e44" text-anchor="middle" style="white-space: pre;" direction="ltr" dominant-baseline="alphabetic">c6</text></g><g stroke-linecap="round" transform="translate(708.3147476607728 341.19695356647617) rotate(0 48.21702975659139 48.2170297565915)"><path d="M46.64 -0.93 C53.99 -1.99, 62.45 1.48, 69.41 5.25 C76.38 9.02, 83.87 14.98, 88.43 21.69 C92.99 28.41, 96.19 37.53, 96.77 45.51 C97.35 53.49, 95.59 62.44, 91.91 69.59 C88.22 76.74, 81.6 83.87, 74.66 88.43 C67.71 93, 58.43 96.38, 50.22 96.98 C42.01 97.58, 32.39 95.87, 25.4 92.03 C18.41 88.19, 12.36 80.9, 8.27 73.93 C4.19 66.97, 1.38 58.29, 0.87 50.24 C0.37 42.19, 1.84 32.63, 5.25 25.65 C8.66 18.67, 13.25 12.71, 21.33 8.38 C29.41 4.05, 47.37 0.59, 53.74 -0.34 C60.1 -1.28, 59.71 1.91, 59.52 2.79 M58.84 0.96 C66.2 2.39, 74.74 8.55, 80.65 14.42 C86.56 20.3, 91.74 28.38, 94.31 36.22 C96.88 44.06, 98.24 53.84, 96.08 61.46 C93.92 69.07, 87.4 76.16, 81.35 81.9 C75.29 87.65, 67.49 93.63, 59.77 95.91 C52.05 98.18, 42.42 97.92, 35.02 95.53 C27.63 93.15, 20.97 87.31, 15.42 81.61 C9.87 75.92, 4.16 68.7, 1.73 61.36 C-0.71 54.02, -1.3 45.51, 0.78 37.58 C2.86 29.64, 8.41 19.96, 14.2 13.76 C19.99 7.56, 27.6 2.34, 35.51 0.37 C43.41 -1.6, 57.45 1.36, 61.66 1.94 C65.87 2.52, 61.25 3.07, 60.77 3.86" stroke="#2f9e44" stroke-width="1" fill="none"></path></g><g stroke-opacity="0.8" fill-opacity="0.8" transform="translate(735.3434387078048 367.7193946135085) rotate(0 21.09375 21.59999999999991)"><text x="21.09375" y="34.762499999999996" font-family="Cascadia, Segoe UI Emoji" font-size="36px" fill="#2f9e44" text-anchor="middle" style="white-space: pre;" direction="ltr" dominant-baseline="alphabetic">c7</text></g><g stroke-linecap="round"><g stroke-opacity="0.8" fill-opacity="0.8" transform="translate(345.4214080517386 270.7542856205432) rotate(0 65.95314445211807 38.1683341631217)"><path d="M0 0 C32.19 20.43, 68.14 40.55, 131.91 76.34" stroke="#1971c2" stroke-width="2.5" fill="none" stroke-dasharray="8 10"></path></g><g stroke-opacity="0.8" fill-opacity="0.8" transform="translate(345.4214080517386 270.7542856205432) rotate(0 65.95314445211807 38.1683341631217)"><path d="M24.58 4.55 C16.73 3.89, 12.32 3.15, 0 0" stroke="#1971c2" stroke-width="2.5" fill="none"></path></g><g stroke-opacity="0.8" fill-opacity="0.8" transform="translate(345.4214080517386 270.7542856205432) rotate(0 65.95314445211807 38.1683341631217)"><path d="M15.9 19.29 C10.35 14.84, 8.18 10.29, 0 0" stroke="#1971c2" stroke-width="2.5" fill="none"></path></g></g><mask></mask><g stroke-linecap="round"><g stroke-opacity="0.8" fill-opacity="0.8" transform="translate(570.7358189573404 389.5047860159184) rotate(0 69.41016718322851 0)"><path d="M0 0 C41.66 0.1, 87.6 -0.48, 138.82 0" stroke="#1971c2" stroke-width="2.5" fill="none" stroke-dasharray="8 10"></path></g><g stroke-opacity="0.8" fill-opacity="0.8" transform="translate(570.7358189573404 389.5047860159184) rotate(0 69.41016718322851 0)"><path d="M23.47 -8.6 C14.61 -5.11, 10.03 -3.01, 0 0" stroke="#1971c2" stroke-width="2.5" fill="none"></path></g><g stroke-opacity="0.8" fill-opacity="0.8" transform="translate(570.7358189573404 389.5047860159184) rotate(0 69.41016718322851 0)"><path d="M23.51 8.5 C14.62 6.67, 10.03 3.45, 0 0" stroke="#1971c2" stroke-width="2.5" fill="none"></path></g></g><mask></mask><g stroke-opacity="0.8" fill-opacity="0.8" stroke-linecap="round" transform="translate(696.7405151274879 548.5437687011299) rotate(0 66.04976234280502 25.988609097559902)"><path d="M0 0 C0 0, 0 0, 0 0 M0 0 C0 0, 0 0, 0 0 M0.13 12.04 C5.37 7.58, 9.6 3.6, 10.63 -0.03 M0.13 12.04 C4.33 8.59, 6.87 4.27, 10.63 -0.03 M0.27 24.08 C6.18 19.09, 10.84 11.11, 21.26 -0.07 M0.27 24.08 C8.37 15.62, 16.4 6.21, 21.26 -0.07 M-0.26 36.88 C6.52 29.07, 12.41 21.72, 31.89 -0.1 M-0.26 36.88 C8.68 25.98, 16.75 17.04, 31.89 -0.1 M-0.12 48.92 C12.06 34.82, 22.67 22.84, 42.52 -0.14 M-0.12 48.92 C13.39 32.94, 26.52 18.33, 42.52 -0.14 M4.6 55.68 C21.83 32.37, 44.16 12.82, 53.15 -0.17 M4.6 55.68 C23.44 36.12, 40.72 14.16, 53.15 -0.17 M15.23 55.64 C28.85 44.64, 39.92 30.17, 63.78 -0.21 M15.23 55.64 C29.92 40.67, 42.14 24.52, 63.78 -0.21 M25.86 55.61 C39.4 39.37, 56.3 22.68, 74.41 -0.24 M25.86 55.61 C40.09 39.38, 54.15 22.75, 74.41 -0.24 M36.49 55.57 C52.77 34.16, 73.89 13.1, 85.04 -0.28 M36.49 55.57 C53.99 36.28, 70.61 15.87, 85.04 -0.28 M47.12 55.54 C59.24 37.92, 74.26 22.02, 95.67 -0.31 M47.12 55.54 C59.08 41.49, 72.25 28, 95.67 -0.31 M57.75 55.5 C69.95 42.22, 80.71 26.42, 106.3 -0.34 M57.75 55.5 C72.74 37.75, 89.51 19.62, 106.3 -0.34 M67.73 56.22 C85.43 38.54, 99.74 19.14, 116.27 0.38 M67.73 56.22 C80.12 41.6, 92.29 27.66, 116.27 0.38 M78.36 56.19 C95.06 36.1, 115.93 16.22, 126.91 0.34 M78.36 56.19 C95.31 37.57, 112.5 16.99, 126.91 0.34 M88.99 56.15 C104.26 38.73, 122.28 20.15, 135.57 2.57 M88.99 56.15 C102.64 41.58, 114.79 25.27, 135.57 2.57 M99.62 56.12 C107.88 48.53, 117.45 36.54, 135.04 15.37 M99.62 56.12 C108.04 45.85, 117.02 35.02, 135.04 15.37 M110.25 56.09 C117.76 48.44, 125.46 37.79, 135.18 27.41 M110.25 56.09 C116.99 47.84, 125 37.63, 135.18 27.41 M120.88 56.05 C125.49 48.43, 133.19 41.14, 135.31 39.45 M120.88 56.05 C124.35 51.07, 127.74 47.61, 135.31 39.45" stroke="#ffc9c9" stroke-width="1" fill="none"></path><path d="M0 0 C51.61 1.06, 101.46 2.41, 132.1 0 M132.1 0 C131.47 21.67, 132.04 39.73, 132.1 51.98 M132.1 51.98 C90.54 50.7, 52.61 54.13, 0 51.98 M0 51.98 C-0.9 33.15, -0.58 16.91, 0 0" stroke="#1971c2" stroke-width="2.5" fill="none" stroke-dasharray="8 10"></path></g><g stroke-opacity="0.8" fill-opacity="0.8" transform="translate(716.4803027998828 562.0323777986896) rotate(0 46.309974670410156 12.5)"><text x="46.309974670410156" y="17.52" font-family="Virgil, Segoe UI Emoji" font-size="20px" fill="#1971c2" text-anchor="middle" style="white-space: pre;" direction="ltr" dominant-baseline="alphabetic">DEVELOP</text></g><g stroke-linecap="round"><g stroke-opacity="0.8" fill-opacity="0.8" transform="translate(762.0540990258262 535.543877514308) rotate(0 0.02967587697946783 -37.55755758195778)"><path d="M0 0 C2.22 -21.92, 1.59 -46.53, 0.06 -75.12 M0 0 C0.18 -26.91, 0.39 -56.12, 0.06 -75.12" stroke="#1971c2" stroke-width="2" fill="none"></path></g><g stroke-opacity="0.8" fill-opacity="0.8" transform="translate(762.0540990258262 535.543877514308) rotate(0 0.02967587697946783 -37.55755758195778)"><path d="M8.81 -51.7 C8.08 -57.84, 4.77 -66.74, 0.06 -75.12 M8.81 -51.7 C5.66 -59.55, 2.62 -69.67, 0.06 -75.12" stroke="#1971c2" stroke-width="2" fill="none"></path></g><g stroke-opacity="0.8" fill-opacity="0.8" transform="translate(762.0540990258262 535.543877514308) rotate(0 0.02967587697946783 -37.55755758195778)"><path d="M-8.29 -51.55 C-3.82 -57.86, -1.93 -66.8, 0.06 -75.12 M-8.29 -51.55 C-5.12 -59.39, -1.85 -69.56, 0.06 -75.12" stroke="#1971c2" stroke-width="2" fill="none"></path></g></g><mask></mask></svg>