<svg version="1.1" xmlns="http://www.w3.org/2000/svg" viewBox="0 0 1043.5203897275471 422.6098284091147" width="1043.5203897275471" height="422.6098284091147" filter="invert(93%) hue-rotate(180deg)">
  <!-- svg-source:excalidraw -->
  
  <defs>
    <style class="style-fonts">
      @font-face {
        font-family: "Virgil";
        src: url("https://excalidraw.com/Virgil.woff2");
      }
      @font-face {
        font-family: "Cascadia";
        src: url("https://excalidraw.com/Cascadia.woff2");
      }
      @font-face {
        font-family: "Assistant";
        src: url("https://excalidraw.com/Assistant-Regular.woff2");
      }
    </style>
    
  </defs>
  <g stroke-opacity="0.6" fill-opacity="0.6" stroke-linecap="round" transform="translate(314.5873383212694 133.04136863875647) rotate(0 119.93002263182706 134.64782409364227)"><path d="M0 0 C0 0, 0 0, 0 0 M0 0 C0 0, 0 0, 0 0 M0.13 12.04 C2.67 10.19, 5.09 7.57, 10.63 -0.03 M0.13 12.04 C4.59 7.79, 6.87 4.09, 10.63 -0.03 M0.27 24.08 C7.6 14.83, 12.81 7.87, 21.26 -0.07 M0.27 24.08 C7.39 15.74, 15.18 7.5, 21.26 -0.07 M-0.26 36.88 C8.94 28.44, 12.43 19.42, 31.89 -0.1 M-0.26 36.88 C9.32 26.16, 20.19 14.14, 31.89 -0.1 M-0.12 48.92 C16.98 28.36, 33.93 10.56, 42.52 -0.14 M-0.12 48.92 C14.19 31.91, 29.4 15.45, 42.52 -0.14 M0.01 60.96 C15.28 44.87, 27.41 27.76, 53.15 -0.17 M0.01 60.96 C16.94 39.96, 36.63 19.28, 53.15 -0.17 M0.14 73 C24.9 44.85, 48.59 18.02, 63.78 -0.21 M0.14 73 C15.04 56.44, 27.01 41.44, 63.78 -0.21 M0.28 85.04 C26.83 52.56, 55.05 21.74, 74.41 -0.24 M0.28 85.04 C17.15 66.7, 33.12 47.28, 74.41 -0.24 M-0.25 97.84 C31.13 60.1, 66.52 24.49, 85.04 -0.28 M-0.25 97.84 C20.58 73.13, 41.34 49.86, 85.04 -0.28 M-0.11 109.88 C32.9 74.17, 65.24 38.7, 95.67 -0.31 M-0.11 109.88 C22.62 85.1, 44.33 59.47, 95.67 -0.31 M0.02 121.92 C35.84 81.81, 68.78 38.39, 106.3 -0.34 M0.02 121.92 C38.67 79.53, 73.65 38.44, 106.3 -0.34 M0.15 133.96 C36.83 87.35, 78.56 41.81, 116.27 0.38 M0.15 133.96 C26.05 105.36, 51.69 74.74, 116.27 0.38 M0.29 146 C47.36 94.55, 94.52 40.25, 126.91 0.34 M0.29 146 C47.56 90.9, 93.8 38.6, 126.91 0.34 M-0.24 158.8 C47.03 106.47, 92.77 53.73, 137.54 0.31 M-0.24 158.8 C54.78 97.09, 110.04 34.41, 137.54 0.31 M-0.1 170.84 C42.41 120.29, 85.96 70.71, 148.17 0.27 M-0.1 170.84 C33.13 134.23, 65.23 98.08, 148.17 0.27 M0.03 182.88 C40.34 136.51, 82.2 88.03, 158.8 0.24 M0.03 182.88 C43.19 131.76, 85.57 82.2, 158.8 0.24 M0.16 194.92 C47.18 143.02, 96.38 87.78, 169.43 0.2 M0.16 194.92 C56.85 129.2, 112.54 64.04, 169.43 0.2 M0.3 206.96 C36.7 166.18, 76.11 122.44, 180.06 0.17 M0.3 206.96 C63.86 135.63, 126.77 62.59, 180.06 0.17 M-0.23 219.75 C36.09 175.98, 75.27 130.32, 190.69 0.13 M-0.23 219.75 C40.91 171.29, 81.73 122.98, 190.69 0.13 M-0.09 231.8 C62.13 160.79, 123.16 90.1, 201.32 0.1 M-0.09 231.8 C46.99 175.4, 94.49 119.64, 201.32 0.1 M0.04 243.84 C66.88 167.49, 132.61 90.98, 211.95 0.06 M0.04 243.84 C64.31 168.93, 128.92 94, 211.95 0.06 M0.17 255.88 C87.12 156.37, 174.14 57.12, 222.58 0.03 M0.17 255.88 C76.79 168.73, 151.28 82.41, 222.58 0.03 M0.3 267.92 C75.81 180.02, 152.43 90.01, 233.21 0 M0.3 267.92 C63.57 193.22, 128.63 118.96, 233.21 0 M5.69 273.92 C86.25 180.74, 166.65 88.12, 241.87 2.23 M5.69 273.92 C86.22 182.6, 165.86 91.31, 241.87 2.23 M16.32 273.89 C95.85 180.62, 175.38 88.08, 242 14.27 M16.32 273.89 C99.97 178.67, 182.01 83.57, 242 14.27 M26.95 273.85 C107.62 181.74, 187.62 89.97, 242.13 26.31 M26.95 273.85 C95.36 195.04, 165.64 114.26, 242.13 26.31 M37.58 273.82 C114.38 184.18, 193.33 96.53, 242.27 38.35 M37.58 273.82 C86.98 216.29, 137.59 159.19, 242.27 38.35 M48.21 273.78 C111.14 203.53, 171.61 133.39, 242.4 50.39 M48.21 273.78 C105.83 210.41, 160.41 145.62, 242.4 50.39 M58.84 273.75 C125.74 197.55, 191.33 120.87, 241.88 63.18 M58.84 273.75 C119.82 205.03, 178.73 135.16, 241.88 63.18 M68.81 274.47 C124.24 210.49, 182.8 144.35, 242.01 75.23 M68.81 274.47 C103 235.48, 138.8 194.91, 242.01 75.23 M79.44 274.43 C135.42 208.58, 191.41 146.07, 242.14 87.27 M79.44 274.43 C126.63 221.68, 172.6 167.89, 242.14 87.27 M90.07 274.4 C121.68 234.2, 155.38 194.77, 242.28 99.31 M90.07 274.4 C143.48 214.93, 195.7 153.85, 242.28 99.31 M100.7 274.37 C151.35 215.95, 200.55 156.11, 242.41 111.35 M100.7 274.37 C148.21 221.21, 193.11 168.91, 242.41 111.35 M111.33 274.33 C152.1 228.14, 192.48 179.47, 241.89 124.14 M111.33 274.33 C160.97 215.09, 211.73 156.73, 241.89 124.14 M121.96 274.3 C155.81 231.83, 193.76 190.24, 242.02 136.18 M121.96 274.3 C159.09 231.11, 194.87 190.45, 242.02 136.18 M132.59 274.26 C172.14 229.09, 212.2 185.01, 242.15 148.23 M132.59 274.26 C165.48 238.78, 197.09 199.91, 242.15 148.23 M143.22 274.23 C165.8 244.51, 191.45 217.89, 242.29 160.27 M143.22 274.23 C165.46 249.29, 186.73 224.74, 242.29 160.27 M153.85 274.19 C176.87 251.3, 197.26 223.74, 242.42 172.31 M153.85 274.19 C172.8 250.44, 193.09 228.38, 242.42 172.31 M164.48 274.16 C192.68 238.11, 224.83 205.89, 241.9 185.1 M164.48 274.16 C188.9 245.46, 215.04 216.88, 241.9 185.1 M175.11 274.12 C193.78 251.3, 212.51 230.93, 242.03 197.14 M175.11 274.12 C190.2 255.04, 206.65 236.79, 242.03 197.14 M185.74 274.09 C199.05 258.65, 211.64 243.37, 242.16 209.18 M185.74 274.09 C206.96 248.22, 230.98 222.92, 242.16 209.18 M196.37 274.05 C210.06 255.55, 225.67 239.7, 242.3 221.23 M196.37 274.05 C214.38 254.86, 232.05 233.81, 242.3 221.23 M207 274.02 C214.74 264.85, 221 257.59, 242.43 233.27 M207 274.02 C216.62 263.34, 226.45 252.01, 242.43 233.27 M217.63 273.99 C223.18 267.21, 227.03 261.7, 241.91 246.06 M217.63 273.99 C228.27 263.68, 237.76 251.57, 241.91 246.06 M228.26 273.95 C233.8 268.53, 235.71 261.73, 242.04 258.1 M228.26 273.95 C232.35 268.38, 238.83 261.83, 242.04 258.1" stroke="#b2f2bb" stroke-width="1" fill="none"></path><path d="M0 0 C52.95 -0.03, 101.74 0.25, 239.86 0 M239.86 0 C241.06 77.33, 243.08 155.25, 239.86 269.3 M239.86 269.3 C172.52 270.43, 103.71 269.11, 0 269.3 M0 269.3 C-0.21 162.57, 1.24 59.41, 0 0" stroke="#2f9e44" stroke-width="2.5" fill="none" stroke-dasharray="8 10"></path></g><g stroke-opacity="0.6" fill-opacity="0.6" transform="translate(319.5873383212694 138.04136863875647) rotate(0 87.77993774414062 12.5)"><text x="0" y="17.52" font-family="Virgil, Segoe UI Emoji" font-size="20px" fill="#2f9e44" text-anchor="start" style="white-space: pre;" direction="ltr" dominant-baseline="alphabetic">Zona de estancia</text></g><g stroke-opacity="0.5" fill-opacity="0.5" transform="translate(315.3232795764361 249.39186716846962) rotate(270 32.30078125 9.200000000000045)"><text x="32.30078125" y="14.720312499999999" font-family="Helvetica, Segoe UI Emoji" font-size="16px" fill="#2f9e44" text-anchor="middle" style="white-space: pre;" direction="ltr" dominant-baseline="alphabetic">STAGED</text></g><g stroke-opacity="0.8" fill-opacity="0.8" stroke-linecap="round" transform="translate(563.7515181902028 133.04136863875647) rotate(0 119.93002263182706 134.64782409364227)"><path d="M0 0 C0 0, 0 0, 0 0 M0 0 C0 0, 0 0, 0 0 M0.13 12.04 C4.57 9.03, 8 1.76, 10.63 -0.03 M0.13 12.04 C4.31 8.08, 6.82 3.27, 10.63 -0.03 M0.27 24.08 C5.71 16.78, 12.12 10.99, 21.26 -0.07 M0.27 24.08 C5.55 18.27, 12.05 9.6, 21.26 -0.07 M-0.26 36.88 C6.33 26.96, 16.31 20.05, 31.89 -0.1 M-0.26 36.88 C5.63 29.49, 11.93 22.02, 31.89 -0.1 M-0.12 48.92 C12.28 36.09, 21.1 25.42, 42.52 -0.14 M-0.12 48.92 C10.63 38.23, 19.96 26.03, 42.52 -0.14 M0.01 60.96 C12.07 45.05, 24.05 33.99, 53.15 -0.17 M0.01 60.96 C20.47 38.22, 39.85 14.83, 53.15 -0.17 M0.14 73 C24.71 48.85, 45.12 19.51, 63.78 -0.21 M0.14 73 C16.65 53.89, 31.91 35.66, 63.78 -0.21 M0.28 85.04 C23.17 61.51, 44.65 36.7, 74.41 -0.24 M0.28 85.04 C17.32 64.88, 34.03 46.54, 74.41 -0.24 M-0.25 97.84 C34.09 59.19, 66.6 19.97, 85.04 -0.28 M-0.25 97.84 C23.74 70.53, 48.85 42.6, 85.04 -0.28 M-0.11 109.88 C32.58 73.07, 66.89 34.54, 95.67 -0.31 M-0.11 109.88 C37.09 65.97, 75.67 20.96, 95.67 -0.31 M0.02 121.92 C21.29 99.81, 42.35 71.68, 106.3 -0.34 M0.02 121.92 C38.92 74.9, 77.63 30.78, 106.3 -0.34 M0.15 133.96 C26.44 103.44, 54.51 73.09, 116.27 0.38 M0.15 133.96 C26.99 101.37, 56.71 68.98, 116.27 0.38 M0.29 146 C44.28 96.24, 84.66 45.98, 126.91 0.34 M0.29 146 C42.45 99.1, 84.2 50.98, 126.91 0.34 M-0.24 158.8 C38.55 112.38, 81.28 66.81, 137.54 0.31 M-0.24 158.8 C54.5 96.62, 107.85 34.73, 137.54 0.31 M-0.1 170.84 C31.75 137.2, 62.08 102.69, 148.17 0.27 M-0.1 170.84 C45.79 119.25, 90.63 68.41, 148.17 0.27 M0.03 182.88 C44.56 133.98, 84.43 84.06, 158.8 0.24 M0.03 182.88 C32.87 145.46, 66.88 108.82, 158.8 0.24 M0.16 194.92 C54.26 133.02, 106.97 69.41, 169.43 0.2 M0.16 194.92 C35.4 154.79, 71.01 116.27, 169.43 0.2 M0.3 206.96 C60.18 137.11, 123.31 66.3, 180.06 0.17 M0.3 206.96 C53.8 144.58, 107.05 84.1, 180.06 0.17 M-0.23 219.75 C46.58 168.82, 90.43 116.44, 190.69 0.13 M-0.23 219.75 C48.72 164.61, 96.94 108.69, 190.69 0.13 M-0.09 231.8 C60.78 162.28, 119.21 91.77, 201.32 0.1 M-0.09 231.8 C40.63 184.69, 81.89 136.87, 201.32 0.1 M0.04 243.84 C49.33 187.97, 97.41 132.75, 211.95 0.06 M0.04 243.84 C55.81 178.37, 113.02 112.9, 211.95 0.06 M0.17 255.88 C87.62 157.21, 174.41 55.59, 222.58 0.03 M0.17 255.88 C76.18 167.73, 152.44 80.19, 222.58 0.03 M0.3 267.92 C51.52 208.19, 101.91 151, 233.21 0 M0.3 267.92 C82.09 171.65, 165.26 75.57, 233.21 0 M5.69 273.92 C67.85 202.05, 130.6 129.78, 241.87 2.23 M5.69 273.92 C63.72 205.61, 122.09 137.62, 241.87 2.23 M16.32 273.89 C69.26 213.05, 122.85 149.59, 242 14.27 M16.32 273.89 C64.56 216.2, 114.72 158.42, 242 14.27 M26.95 273.85 C77.31 212.35, 131.12 153.54, 242.13 26.31 M26.95 273.85 C93.41 195.86, 160.84 118.72, 242.13 26.31 M37.58 273.82 C114.34 185.89, 189.47 100.46, 242.27 38.35 M37.58 273.82 C91.08 213.12, 145.01 150.76, 242.27 38.35 M48.21 273.78 C88.91 228.9, 131.05 179.46, 242.4 50.39 M48.21 273.78 C100.27 213.33, 153.37 151.92, 242.4 50.39 M58.84 273.75 C96.66 231.37, 135.54 185.51, 241.88 63.18 M58.84 273.75 C108.8 214.08, 160.76 156.07, 241.88 63.18 M68.81 274.47 C130.23 202.68, 193.55 133.17, 242.01 75.23 M68.81 274.47 C121.5 213.4, 174.22 151.96, 242.01 75.23 M79.44 274.43 C141.77 204.22, 205.25 131.88, 242.14 87.27 M79.44 274.43 C138.72 206.49, 195.77 139.99, 242.14 87.27 M90.07 274.4 C123.6 235.19, 160.97 193.43, 242.28 99.31 M90.07 274.4 C141.58 214.64, 193.26 154.25, 242.28 99.31 M100.7 274.37 C135.95 234.95, 171.56 191.3, 242.41 111.35 M100.7 274.37 C154.45 212.64, 208.55 150.55, 242.41 111.35 M111.33 274.33 C147.72 231.82, 182.93 189.98, 241.89 124.14 M111.33 274.33 C155.9 221.53, 200.44 170.83, 241.89 124.14 M121.96 274.3 C147.58 246.69, 170.42 216.31, 242.02 136.18 M121.96 274.3 C160.16 228.13, 200.63 182.49, 242.02 136.18 M132.59 274.26 C165.13 236.46, 202.44 195.9, 242.15 148.23 M132.59 274.26 C158.96 243.03, 184.14 213.79, 242.15 148.23 M143.22 274.23 C181.77 231.57, 219.09 187.89, 242.29 160.27 M143.22 274.23 C181.74 230.24, 222.11 184.94, 242.29 160.27 M153.85 274.19 C175.85 249.46, 194.15 227.1, 242.42 172.31 M153.85 274.19 C186.23 235.65, 218.02 199.03, 242.42 172.31 M164.48 274.16 C185.83 246.63, 208.48 223.17, 241.9 185.1 M164.48 274.16 C181.48 253.87, 199.18 233.43, 241.9 185.1 M175.11 274.12 C197.74 249.65, 215.39 227.79, 242.03 197.14 M175.11 274.12 C193.86 254.14, 210.9 233.65, 242.03 197.14 M185.74 274.09 C198.71 256.1, 212.44 243.44, 242.16 209.18 M185.74 274.09 C203.19 253.6, 219.64 234.02, 242.16 209.18 M196.37 274.05 C209.29 259.8, 224.34 244.97, 242.3 221.23 M196.37 274.05 C209.5 260.17, 220.93 245.6, 242.3 221.23 M207 274.02 C218.72 258.83, 232.93 244.45, 242.43 233.27 M207 274.02 C220.87 257.89, 235 240.93, 242.43 233.27 M217.63 273.99 C224.61 266.48, 235.06 256.77, 241.91 246.06 M217.63 273.99 C224.51 267.09, 230.53 258.27, 241.91 246.06 M228.26 273.95 C231.85 268.69, 234.71 268.16, 242.04 258.1 M228.26 273.95 C232.54 270.55, 235.26 266.19, 242.04 258.1" stroke="#ffc9c9" stroke-width="1" fill="none"></path><path d="M0 0 C54.27 -2.36, 107.62 -0.22, 239.86 0 M239.86 0 C240.49 89.91, 239.58 178.44, 239.86 269.3 M239.86 269.3 C188.03 266.57, 132.92 268.1, 0 269.3 M0 269.3 C-2.3 166.52, -0.24 66.73, 0 0" stroke="#e03131" stroke-width="2.5" fill="none" stroke-dasharray="8 10"></path></g><g stroke-opacity="0.8" fill-opacity="0.8" transform="translate(568.7515181902028 138.04136863875647) rotate(0 81.04991912841791 12.5)"><text x="0" y="17.52" font-family="Virgil, Segoe UI Emoji" font-size="20px" fill="#e03131" text-anchor="start" style="white-space: pre;" direction="ltr" dominant-baseline="alphabetic">Repositorio local</text></g><g stroke-opacity="0.5" fill-opacity="0.5" transform="translate(554.0443223298936 265.8488793148708) rotate(270 43.55078124999994 9.200000000000045)"><text x="43.55078125" y="14.720312499999999" font-family="Helvetica, Segoe UI Emoji" font-size="16px" fill="#e03131" text-anchor="middle" style="white-space: pre;" direction="ltr" dominant-baseline="alphabetic">COMMITED</text></g><g stroke-linecap="round" transform="translate(10 10) rotate(0 401.19653818715983 200.9670826335646)"><path d="M0 0 C312.62 0.87, 626.24 0.41, 802.39 0 M802.39 0 C799.92 160.7, 799.54 319.18, 802.39 401.93 M802.39 401.93 C562.49 402.5, 321.63 403.56, 0 401.93 M0 401.93 C-0.84 260.44, -1.75 118.79, 0 0" stroke="#e8590c" stroke-width="4.5" fill="none" stroke-dasharray="1.5 10"></path></g><g stroke-linecap="round" transform="translate(827.7745830636047 12.370444462491832) rotate(0 102.8729033319712 200.11969197331143)"><path d="M0 0 C60.76 -1.06, 119.94 -2.47, 205.75 0 M205.75 0 C203.35 156.03, 204.4 314.63, 205.75 400.24 M205.75 400.24 C134.41 399.25, 66.48 399.36, 0 400.24 M0 400.24 C-1.11 246.53, -0.58 94.19, 0 0" stroke="#6741d9" stroke-width="4.5" fill="none" stroke-dasharray="1.5 10"></path></g><g stroke-opacity="0" fill-opacity="0" stroke-linecap="round" transform="translate(879.691422386436 16.832574530396414) rotate(0 58.37866158183556 58.37866158183556)"><path d="M36.35 3.64 C43.65 -0.39, 53.55 -0.79, 62.59 0.2 C71.63 1.19, 82.79 4.87, 90.58 9.58 C98.36 14.3, 105.08 20.64, 109.32 28.49 C113.56 36.34, 115.66 47.41, 116.03 56.68 C116.39 65.95, 115.19 75.98, 111.53 84.09 C107.87 92.21, 101.42 100.16, 94.08 105.37 C86.73 110.59, 76.56 114.05, 67.45 115.4 C58.34 116.75, 47.86 116.38, 39.44 113.5 C31.01 110.62, 23.18 104.73, 16.88 98.11 C10.58 91.49, 4.16 82.39, 1.63 73.78 C-0.89 65.16, -0.35 55.19, 1.72 46.42 C3.78 37.65, 6.65 28.57, 14.01 21.16 C21.37 13.76, 39.18 5.24, 45.88 1.97 C52.58 -1.3, 53.97 0.7, 54.22 1.56 M39.82 4.13 C47.64 0.4, 59.36 -1.33, 68.15 -0.07 C76.94 1.18, 85.28 6.24, 92.55 11.68 C99.82 17.12, 107.83 24.41, 111.78 32.56 C115.73 40.71, 116.77 51.29, 116.24 60.59 C115.71 69.9, 113.11 80.7, 108.6 88.38 C104.09 96.07, 96.75 102.19, 89.18 106.69 C81.61 111.2, 71.9 114.57, 63.18 115.43 C54.46 116.29, 45.43 115.32, 36.85 111.84 C28.26 108.36, 17.63 101.77, 11.68 94.54 C5.73 87.31, 2.9 77.29, 1.14 68.44 C-0.62 59.59, -1.44 49.64, 1.12 41.43 C3.67 33.22, 10.2 25.37, 16.45 19.17 C22.71 12.97, 34.68 6.89, 38.64 4.25 C42.6 1.6, 39.58 2.83, 40.19 3.3" stroke="#6741d9" stroke-width="1" fill="none"></path></g><g transform="translate(898.4226915856002 99.7838576081017) rotate(0 38.799957275390625 12.5)"><text x="38.799957275390625" y="17.52" font-family="Virgil, Segoe UI Emoji" font-size="20px" fill="#6741d9" text-anchor="middle" style="white-space: pre;" direction="ltr" dominant-baseline="alphabetic">Servidor</text></g><g stroke-linecap="round" transform="translate(918.5884688625133 25.638614616362247) rotate(0 18.63417999847718 34.78380266382396)"><path d="M0 0 C9.44 -1.64, 14.93 0.21, 37.27 0 M0 0 C13.15 -0.79, 28.54 0.43, 37.27 0 M37.27 0 C37.77 22.75, 37.43 47.71, 37.27 69.57 M37.27 0 C36.31 26.81, 36.88 53.34, 37.27 69.57 M37.27 69.57 C25.37 70.28, 17.6 69.5, 0 69.57 M37.27 69.57 C28.35 70.46, 19.87 69.11, 0 69.57 M0 69.57 C-1.15 52.68, -0.29 36.66, 0 0 M0 69.57 C0.29 44.62, 1.11 21.06, 0 0" stroke="#6741d9" stroke-width="1" fill="none"></path></g><g stroke-linecap="round"><g transform="translate(923.3602117275273 33.33456528231818) rotate(0 14.286204665499099 1.1368683772161603e-13)"><path d="M-0.51 -0.41 C4.3 -0.39, 23.68 0.34, 28.57 0.43 M0.23 0.57 C5 0.41, 23.41 -0.36, 28.13 -0.32" stroke="#6741d9" stroke-width="1" fill="none"></path></g></g><mask></mask><g stroke-linecap="round"><g transform="translate(922.4483090287554 39.73836305992654) rotate(0 14.286204665499099 1.1368683772161603e-13)"><path d="M0 0.43 C4.88 0.52, 24.12 0.27, 28.8 0.14 M-0.67 0.17 C4.21 0.12, 23.51 -0.73, 28.48 -0.76" stroke="#6741d9" stroke-width="1" fill="none"></path></g></g><mask></mask><g stroke-linecap="round"><g transform="translate(922.5745449049878 46.14216083753581) rotate(0 14.286204665499099 1.1368683772161603e-13)"><path d="M0.22 0.14 C4.9 0, 23.3 -0.41, 28.07 -0.38 M-0.33 -0.27 C4.52 -0.38, 24.23 0.18, 29.04 0.12" stroke="#6741d9" stroke-width="1" fill="none"></path></g></g><mask></mask><g stroke-linecap="round"><g transform="translate(922.4890095362175 52.54595861514463) rotate(0 14.286204665499099 1.1368683772161603e-13)"><path d="M-0.51 -0.38 C4.25 -0.36, 23.9 0.15, 28.79 0.29 M0.23 0.61 C4.92 0.46, 23.74 -0.37, 28.47 -0.53" stroke="#6741d9" stroke-width="1" fill="none"></path></g></g><mask></mask><g stroke-linecap="round" transform="translate(944.0297184824069 59.474184311194676) rotate(0 3.320581637643386 2.4149684637405926)"><path d="M3.56 -0.21 C4.18 -0.22, 5.02 0.26, 5.57 0.63 C6.13 1, 6.84 1.51, 6.89 2 C6.93 2.5, 6.28 3.12, 5.86 3.58 C5.44 4.03, 4.99 4.56, 4.38 4.73 C3.76 4.9, 2.81 4.77, 2.18 4.58 C1.55 4.4, 0.99 4.05, 0.61 3.6 C0.24 3.16, -0.26 2.44, -0.07 1.91 C0.11 1.38, 1.13 0.71, 1.72 0.42 C2.3 0.12, 3.09 0.22, 3.45 0.15 C3.8 0.09, 3.77 0, 3.84 0.03 M3.21 -0.29 C3.91 -0.37, 4.52 -0.04, 5.05 0.34 C5.59 0.73, 6.23 1.56, 6.43 2.01 C6.63 2.46, 6.51 2.69, 6.24 3.06 C5.97 3.42, 5.36 3.94, 4.82 4.21 C4.27 4.49, 3.75 4.79, 2.97 4.68 C2.19 4.58, 0.64 4.09, 0.15 3.59 C-0.35 3.1, -0.06 2.23, 0 1.72 C0.07 1.21, 0.04 0.73, 0.55 0.52 C1.05 0.31, 2.71 0.46, 3.04 0.45 C3.38 0.44, 2.57 0.56, 2.56 0.49" stroke="#6741d9" stroke-width="1" fill="none"></path></g><g stroke-opacity="0" fill-opacity="0" stroke-linecap="round" transform="translate(375.1909394082496 16.832574530396414) rotate(0 58.378661581835615 58.37866158183556)"><path d="M63.14 0.04 C71.91 -0.07, 83.04 3.87, 90.6 8.67 C98.15 13.46, 104.04 20.9, 108.47 28.83 C112.91 36.77, 116.67 47.15, 117.2 56.27 C117.74 65.39, 115.54 75.33, 111.69 83.56 C107.84 91.79, 101.55 100.17, 94.09 105.63 C86.63 111.09, 75.85 115, 66.94 116.32 C58.03 117.64, 49.21 116.43, 40.63 113.55 C32.05 110.67, 21.8 105.59, 15.45 99.04 C9.1 92.49, 4.76 82.97, 2.52 74.23 C0.28 65.5, 0.31 55.57, 2.01 46.63 C3.72 37.68, 7.15 27.53, 12.77 20.58 C18.38 13.64, 25.56 8.09, 35.68 4.97 C45.8 1.85, 65.51 1.52, 73.5 1.85 C81.49 2.17, 83.69 5.98, 83.61 6.93 M39.1 3.6 C46.56 -0.17, 55.24 -1.11, 63.97 -0.25 C72.7 0.62, 84.02 3.67, 91.49 8.82 C98.97 13.96, 104.6 22.15, 108.83 30.62 C113.06 39.1, 116.87 50.3, 116.85 59.66 C116.84 69.01, 112.97 79.09, 108.72 86.76 C104.48 94.42, 98.53 100.94, 91.39 105.63 C84.26 110.33, 74.72 113.8, 65.91 114.92 C57.11 116.05, 47.02 115.54, 38.56 112.4 C30.11 109.25, 21.14 102.78, 15.18 96.07 C9.21 89.36, 5.13 80.53, 2.77 72.15 C0.41 63.78, -0.81 54.68, 1.01 45.82 C2.82 36.97, 7.46 25.9, 13.66 19.04 C19.86 12.18, 33.93 7.05, 38.23 4.68 C42.53 2.31, 39.17 4.25, 39.47 4.82" stroke="#e8590c" stroke-width="1" fill="none"></path></g><g stroke-linecap="round" transform="translate(404.95648493602846 34.12607703851609) rotate(0 29.07051933023172 19.38034622015448)"><path d="M9.69 0 C23 -1.35, 36.05 -0.41, 48.45 0 M9.69 0 C23.77 0.72, 39 0.92, 48.45 0 M48.45 0 C54.72 1.71, 58.98 2.16, 58.14 9.69 M48.45 0 C55.55 2.29, 57.88 1.76, 58.14 9.69 M58.14 9.69 C59.71 16.69, 57.1 21.66, 58.14 29.07 M58.14 9.69 C57.92 15.21, 58.04 21.52, 58.14 29.07 M58.14 29.07 C57.74 34.08, 55.2 37.23, 48.45 38.76 M58.14 29.07 C60.38 35.22, 52.75 37.74, 48.45 38.76 M48.45 38.76 C36.08 38.57, 27.05 36.63, 9.69 38.76 M48.45 38.76 C33.82 37.63, 19.15 38.17, 9.69 38.76 M9.69 38.76 C3.86 37.36, 1.42 35.22, 0 29.07 M9.69 38.76 C2.19 40.88, -1.53 34.53, 0 29.07 M0 29.07 C-0.21 22.87, -1.6 16.82, 0 9.69 M0 29.07 C0.24 21.77, 0.71 14.44, 0 9.69 M0 9.69 C-1.4 4.91, 3.27 0.22, 9.69 0 M0 9.69 C-0.54 4.65, 1.17 -1.86, 9.69 0" stroke="#e8590c" stroke-width="1" fill="none"></path></g><g stroke-linecap="round" transform="translate(399.4111760816603 77.20104235534018) rotate(0 34.158424908424934 4.675677934233022)"><path d="M2.34 0 C22.31 0.03, 43.48 -0.31, 65.98 0 M2.34 0 C17.59 0.19, 32.84 0.27, 65.98 0 M65.98 0 C67.96 -0.53, 68.59 1.78, 68.32 2.34 M65.98 0 C67.41 -0.74, 68.8 1.12, 68.32 2.34 M68.32 2.34 C68.2 3.53, 68.32 5.12, 68.32 7.01 M68.32 2.34 C68.29 3.52, 68.29 4.5, 68.32 7.01 M68.32 7.01 C68.46 7.81, 68.51 9.22, 65.98 9.35 M68.32 7.01 C67.24 8.06, 67.52 8.2, 65.98 9.35 M65.98 9.35 C52.95 8.46, 39.02 9.25, 2.34 9.35 M65.98 9.35 C50.44 8.86, 34.49 8.7, 2.34 9.35 M2.34 9.35 C1.49 9.2, -0.45 9.49, 0 7.01 M2.34 9.35 C0.01 8.85, 0.45 9.24, 0 7.01 M0 7.01 C-0.18 5.28, 0.23 3.39, 0 2.34 M0 7.01 C0.08 6.11, -0.09 5.13, 0 2.34 M0 2.34 C0.02 0.89, 0.55 0.62, 2.34 0 M0 2.34 C-1.03 -0.15, 1.3 1.04, 2.34 0" stroke="#e8590c" stroke-width="1" fill="none"></path></g><g stroke-linecap="round" transform="translate(449.7789836877531 80.62548253252544) rotate(0 6.120820957724561 1.1798952533570173)"><path d="M0.59 0 C3.63 -0.28, 5.47 -0.32, 11.65 0 M0.59 0 C4.42 0.2, 8.41 -0.19, 11.65 0 M11.65 0 C12.32 1, 12.13 -0.44, 12.24 0.59 M11.65 0 C12.53 0.34, 12.1 1.09, 12.24 0.59 M12.24 0.59 C12.23 0.99, 12.2 1.33, 12.24 1.77 M12.24 0.59 C12.23 0.9, 12.24 1.24, 12.24 1.77 M12.24 1.77 C13.21 2.03, 11.11 1.92, 11.65 2.36 M12.24 1.77 C12.23 1.02, 11.11 1.91, 11.65 2.36 M11.65 2.36 C8.73 2.24, 4.59 2.48, 0.59 2.36 M11.65 2.36 C9.45 2.15, 7.28 2.3, 0.59 2.36 M0.59 2.36 C-0.26 3.28, -0.66 1.73, 0 1.77 M0.59 2.36 C0.65 3.03, 1.08 2.1, 0 1.77 M0 1.77 C0.06 1.41, -0.05 1.03, 0 0.59 M0 1.77 C-0.03 1.39, 0 0.97, 0 0.59 M0 0.59 C-0.23 0.81, -0.7 -0.81, 0.59 0 M0 0.59 C0.52 1.24, -0.79 -0.6, 0.59 0" stroke="#e8590c" stroke-width="1" fill="none"></path></g><g stroke-linecap="round" transform="translate(428.0908625655828 73.49123216338967) rotate(0 6.120820957724561 1.1798952533570173)"><path d="M0.59 0 C3.38 -0.3, 7.11 0.01, 11.65 0 M0.59 0 C4.78 -0.19, 8.82 0.23, 11.65 0 M11.65 0 C11.93 -0.64, 12.66 0.49, 12.24 0.59 M11.65 0 C11.9 0.9, 12.46 -0.45, 12.24 0.59 M12.24 0.59 C12.21 0.85, 12.23 1.13, 12.24 1.77 M12.24 0.59 C12.24 0.98, 12.27 1.41, 12.24 1.77 M12.24 1.77 C11.3 1.72, 12.03 1.36, 11.65 2.36 M12.24 1.77 C11.3 1.71, 12.12 3.37, 11.65 2.36 M11.65 2.36 C9.06 2.52, 6.51 2.67, 0.59 2.36 M11.65 2.36 C8.96 2.28, 5.74 2.58, 0.59 2.36 M0.59 2.36 C-0.47 1.92, 0.39 2.74, 0 1.77 M0.59 2.36 C1.28 2.3, 0.22 1.28, 0 1.77 M0 1.77 C-0.06 1.38, 0.02 1, 0 0.59 M0 1.77 C0 1.32, 0 0.89, 0 0.59 M0 0.59 C-0.89 -0.61, 0.65 0.91, 0.59 0 M0 0.59 C-0.98 -0.4, -0.31 0.77, 0.59 0" stroke="#e8590c" stroke-width="1" fill="none"></path></g><g stroke-linecap="round" transform="translate(409.9496525847136 38.61030310897195) rotate(0 24.11446288866233 15.125362843360563)"><path d="M7.56 0 C16.74 0.13, 25.36 0.01, 40.67 0 M7.56 0 C20.61 1.17, 32.99 -0.46, 40.67 0 M40.67 0 C46.55 0.59, 47.98 4.08, 48.23 7.56 M40.67 0 C46.15 -1.3, 46.71 2.37, 48.23 7.56 M48.23 7.56 C47.88 12.43, 48.86 17.55, 48.23 22.69 M48.23 7.56 C48.99 10.9, 47.54 14.1, 48.23 22.69 M48.23 22.69 C48.2 25.73, 44.08 29.46, 40.67 30.25 M48.23 22.69 C48.38 29.75, 43.62 32.21, 40.67 30.25 M40.67 30.25 C29.25 31.49, 20.81 30.98, 7.56 30.25 M40.67 30.25 C32.6 31.12, 24.77 29.76, 7.56 30.25 M7.56 30.25 C3.31 31.41, 1.88 27.63, 0 22.69 M7.56 30.25 C2.97 28.48, 1.06 29.97, 0 22.69 M0 22.69 C0.76 18.97, 1.35 11.83, 0 7.56 M0 22.69 C-0.18 17.34, -0.68 10.46, 0 7.56 M0 7.56 C0.9 4.33, 0.81 -1.05, 7.56 0 M0 7.56 C-1.01 4.06, 2.97 1.62, 7.56 0" stroke="#e8590c" stroke-width="1" fill="none"></path></g><g transform="translate(401.0496348645969 91.29639518594786) rotate(0 32.51996612548828 12.5)"><text x="32.51996612548828" y="17.52" font-family="Virgil, Segoe UI Emoji" font-size="20px" fill="#e8590c" text-anchor="middle" style="white-space: pre;" direction="ltr" dominant-baseline="alphabetic">Cliente</text></g><g stroke-opacity="0.4" fill-opacity="0.4" stroke-linecap="round" transform="translate(20.145465688097147 133.04136863875647) rotate(0 140.57769949999488 134.64782409364227)"><path d="M0 0 C0 0, 0 0, 0 0 M0 0 C0 0, 0 0, 0 0 M0.13 12.04 C2.73 8.47, 5.53 6.85, 10.63 -0.03 M0.13 12.04 C2.35 9.35, 5.83 6.71, 10.63 -0.03 M0.27 24.08 C7.34 19.07, 13.09 8.24, 21.26 -0.07 M0.27 24.08 C7.9 15.25, 14.87 8, 21.26 -0.07 M-0.26 36.88 C8.05 23.55, 20.74 15.47, 31.89 -0.1 M-0.26 36.88 C7.5 29.29, 14.42 20.92, 31.89 -0.1 M-0.12 48.92 C9.42 34.78, 23.14 23.63, 42.52 -0.14 M-0.12 48.92 C14.71 32.17, 28.64 15.64, 42.52 -0.14 M0.01 60.96 C14.93 42.43, 32.22 23.59, 53.15 -0.17 M0.01 60.96 C11.77 46.67, 22.73 34.47, 53.15 -0.17 M0.14 73 C17.56 50.09, 37.82 28.54, 63.78 -0.21 M0.14 73 C25.33 45.28, 48.99 16.96, 63.78 -0.21 M0.28 85.04 C25.84 56.13, 49.16 32.15, 74.41 -0.24 M0.28 85.04 C21.48 62.17, 41.36 37.2, 74.41 -0.24 M-0.25 97.84 C17.93 74.37, 38.69 51.18, 85.04 -0.28 M-0.25 97.84 C30.39 64.81, 58.49 31.09, 85.04 -0.28 M-0.11 109.88 C36.19 66.48, 72.13 26.27, 95.67 -0.31 M-0.11 109.88 C22.43 84.07, 44.22 60.55, 95.67 -0.31 M0.02 121.92 C35.99 81.33, 68.3 41.79, 106.3 -0.34 M0.02 121.92 C38.92 74.29, 79.51 28.22, 106.3 -0.34 M0.15 133.96 C26.29 101.24, 55.76 71.58, 116.27 0.38 M0.15 133.96 C29.73 97.96, 61.93 61.91, 116.27 0.38 M0.29 146 C46.07 91.74, 95.53 37.84, 126.91 0.34 M0.29 146 C30.94 112.38, 60.39 78.32, 126.91 0.34 M-0.24 158.8 C53.78 95.57, 108.25 33.31, 137.54 0.31 M-0.24 158.8 C33.59 121.45, 67.34 82.24, 137.54 0.31 M-0.1 170.84 C56.71 104.44, 112.04 39.79, 148.17 0.27 M-0.1 170.84 C53.02 109.18, 107.34 45.3, 148.17 0.27 M0.03 182.88 C45.46 132.02, 93.61 79.68, 158.8 0.24 M0.03 182.88 C53.91 121.98, 107.65 61.28, 158.8 0.24 M0.16 194.92 C52.75 134.4, 107.85 71.42, 169.43 0.2 M0.16 194.92 C38.32 153.68, 74.61 111.6, 169.43 0.2 M0.3 206.96 C44.61 157.75, 89.54 107.03, 180.06 0.17 M0.3 206.96 C68.36 130.02, 135.14 52.83, 180.06 0.17 M-0.23 219.75 C67.7 139.28, 136 62.93, 190.69 0.13 M-0.23 219.75 C63.49 146.95, 126.47 74.13, 190.69 0.13 M-0.09 231.8 C75.36 147.85, 150.9 60.04, 201.32 0.1 M-0.09 231.8 C67.83 153.76, 134.2 75.97, 201.32 0.1 M0.04 243.84 C44.83 193.45, 87.23 144.29, 211.95 0.06 M0.04 243.84 C50.33 187.33, 100.19 129.47, 211.95 0.06 M0.17 255.88 C59.28 190.27, 115.67 125.72, 222.58 0.03 M0.17 255.88 C53.62 196.29, 105.49 135.6, 222.58 0.03 M0.3 267.92 C47.24 214.61, 93.69 158, 233.21 0 M0.3 267.92 C87.36 168.34, 173.16 68.86, 233.21 0 M5.69 273.92 C69.18 198.3, 134.67 123.15, 243.84 -0.04 M5.69 273.92 C64.39 205.16, 123.83 137.19, 243.84 -0.04 M16.32 273.89 C69.3 212.18, 123.05 152, 254.47 -0.07 M16.32 273.89 C103.37 176.12, 187.9 78.64, 254.47 -0.07 M26.95 273.85 C89.25 203.85, 150.84 133.98, 265.1 -0.11 M26.95 273.85 C120.46 168.89, 211.52 62.72, 265.1 -0.11 M37.58 273.82 C124.32 172.77, 211.98 70.96, 275.73 -0.14 M37.58 273.82 C112.89 186.04, 188.61 98.64, 275.73 -0.14 M48.21 273.78 C107.37 205.83, 165.44 140.23, 283.73 2.84 M48.21 273.78 C141.08 166.18, 235.06 58.04, 283.73 2.84 M58.84 273.75 C119.1 207.91, 175.98 141.86, 283.87 14.88 M58.84 273.75 C142.73 176.98, 226.39 80.71, 283.87 14.88 M68.81 274.47 C143.24 190.73, 215.47 108.69, 284 26.92 M68.81 274.47 C132.05 202.21, 193.69 131.36, 284 26.92 M79.44 274.43 C154.82 192, 227.73 106.84, 284.13 38.96 M79.44 274.43 C146.61 196.48, 213.6 118.34, 284.13 38.96 M90.07 274.4 C133.15 226.26, 176.47 177.75, 284.26 51.01 M90.07 274.4 C129.94 228.81, 168.31 183.29, 284.26 51.01 M100.7 274.37 C145.32 221.62, 190.19 169.65, 283.74 63.8 M100.7 274.37 C173.07 192.42, 246.13 107.64, 283.74 63.8 M111.33 274.33 C156.13 220.05, 203.16 168.48, 283.87 75.84 M111.33 274.33 C171 205.5, 229.41 138.49, 283.87 75.84 M121.96 274.3 C178.69 208.99, 238.98 140.53, 284.01 87.88 M121.96 274.3 C168.52 221.23, 213.25 168.73, 284.01 87.88 M132.59 274.26 C163.28 237.37, 193.11 200.98, 284.14 99.92 M132.59 274.26 C167.42 233.85, 202.47 193.02, 284.14 99.92 M143.22 274.23 C174.74 237.72, 209.52 199.71, 284.27 111.96 M143.22 274.23 C181.07 229.87, 220.7 185.98, 284.27 111.96 M153.85 274.19 C191.63 234.32, 225.23 190.58, 283.75 124.76 M153.85 274.19 C187.92 233.56, 223.02 192.75, 283.75 124.76 M164.48 274.16 C194.14 241.9, 220.27 211.41, 283.88 136.8 M164.48 274.16 C207.02 223.43, 253.07 172.03, 283.88 136.8 M175.11 274.12 C205.59 237.09, 235.73 202.42, 284.02 148.84 M175.11 274.12 C216.46 226.24, 257.61 179.09, 284.02 148.84 M185.74 274.09 C216.79 240.98, 241.92 211.15, 284.15 160.88 M185.74 274.09 C221.54 231.83, 257.98 191.26, 284.15 160.88 M196.37 274.05 C224.64 245.62, 250.08 213.09, 284.28 172.92 M196.37 274.05 C223.39 240.89, 253.39 209.48, 284.28 172.92 M207 274.02 C230.31 245.46, 254.56 219.15, 283.76 185.72 M207 274.02 C232.5 244.14, 258.68 213.23, 283.76 185.72 M217.63 273.99 C243.73 242.85, 271.93 213.16, 283.89 197.76 M217.63 273.99 C232.76 255.76, 247.89 237.65, 283.89 197.76 M228.26 273.95 C251.1 247.33, 271.02 222.95, 284.03 209.8 M228.26 273.95 C248.58 250.57, 269.18 225.52, 284.03 209.8 M238.89 273.92 C254.17 257.42, 269 242.01, 284.16 221.84 M238.89 273.92 C251.33 260.68, 264.32 245.05, 284.16 221.84 M249.52 273.88 C257.52 265.17, 266.04 255.55, 284.29 233.88 M249.52 273.88 C258.27 264.54, 265.75 255.16, 284.29 233.88 M260.15 273.85 C268.37 262.61, 279.92 252.71, 283.77 246.68 M260.15 273.85 C268.91 263.24, 276.65 254.35, 283.77 246.68 M270.78 273.81 C274.34 270.34, 275.42 266.77, 283.9 258.72 M270.78 273.81 C275.18 268.93, 279.48 264.87, 283.9 258.72" stroke="#ffc9c9" stroke-width="1" fill="none"></path><path d="M0 0 C84.78 0.85, 166.13 0.62, 281.16 0 M281.16 0 C281.58 108.11, 280.72 216.51, 281.16 269.3 M281.16 269.3 C191.3 268.49, 100.73 267.4, 0 269.3 M0 269.3 C0.07 191.95, 0.62 115.68, 0 0" stroke="#e03131" stroke-width="2.5" fill="none" stroke-dasharray="8 10"></path></g><g stroke-opacity="0.4" fill-opacity="0.4" transform="translate(25.145465688097147 138.04136863875647) rotate(0 108.73990631103516 25)"><text x="0" y="17.52" font-family="Virgil, Segoe UI Emoji" font-size="20px" fill="#e03131" text-anchor="start" style="white-space: pre;" direction="ltr" dominant-baseline="alphabetic">Directorio de Trabajo</text><text x="0" y="42.519999999999996" font-family="Virgil, Segoe UI Emoji" font-size="20px" fill="#e03131" text-anchor="start" style="white-space: pre;" direction="ltr" dominant-baseline="alphabetic"></text></g><g stroke-opacity="0.3" fill-opacity="0.3" stroke-linecap="round" transform="translate(840.8360526750412 132.83971936736543) rotate(0 91.34147887972904 134.0094228457832)"><path d="M0 0 C0 0, 0 0, 0 0 M0 0 C0 0, 0 0, 0 0 M0.13 12.04 C3.61 8.04, 7.09 4.04, 10.63 -0.03 M0.13 12.04 C2.83 8.94, 5.52 5.85, 10.63 -0.03 M0.27 24.08 C7.54 15.72, 14.81 7.36, 21.26 -0.07 M0.27 24.08 C8.25 14.9, 16.23 5.71, 21.26 -0.07 M-0.26 36.88 C6.51 29.09, 13.28 21.3, 31.89 -0.1 M-0.26 36.88 C11.54 23.31, 23.33 9.74, 31.89 -0.1 M-0.12 48.92 C9.08 38.33, 18.29 27.74, 42.52 -0.14 M-0.12 48.92 C16.14 30.21, 32.4 11.5, 42.52 -0.14 M0.01 60.96 C12.99 46.02, 25.98 31.09, 53.15 -0.17 M0.01 60.96 C17.45 40.9, 34.88 20.84, 53.15 -0.17 M0.14 73 C15.02 55.88, 29.9 38.76, 63.78 -0.21 M0.14 73 C21.48 48.45, 42.82 23.9, 63.78 -0.21 M0.28 85.04 C25.78 55.7, 51.28 26.36, 74.41 -0.24 M0.28 85.04 C25.43 56.11, 50.58 27.17, 74.41 -0.24 M-0.25 97.84 C18.66 76.09, 37.57 54.34, 85.04 -0.28 M-0.25 97.84 C31.19 61.67, 62.64 25.5, 85.04 -0.28 M-0.11 109.88 C34.98 69.5, 70.08 29.12, 95.67 -0.31 M-0.11 109.88 C31.41 73.62, 62.93 37.35, 95.67 -0.31 M0.02 121.92 C42.15 73.46, 84.27 25, 106.3 -0.34 M0.02 121.92 C30.57 86.78, 61.11 51.64, 106.3 -0.34 M0.15 133.96 C24.96 105.42, 49.77 76.88, 116.27 0.38 M0.15 133.96 C29.89 99.76, 59.62 65.55, 116.27 0.38 M0.29 146 C34.49 106.66, 68.69 67.31, 126.91 0.34 M0.29 146 C35.41 105.59, 70.54 65.18, 126.91 0.34 M-0.24 158.8 C45.64 106.02, 91.52 53.24, 137.54 0.31 M-0.24 158.8 C28.46 125.78, 57.16 92.76, 137.54 0.31 M-0.1 170.84 C51.86 111.06, 103.82 51.28, 148.17 0.27 M-0.1 170.84 C30.17 136, 60.45 101.17, 148.17 0.27 M0.03 182.88 C34.52 143.2, 69.01 103.52, 158.8 0.24 M0.03 182.88 C48.25 127.4, 96.47 71.93, 158.8 0.24 M0.16 194.92 C40.83 148.13, 81.5 101.35, 169.43 0.2 M0.16 194.92 C53.13 133.98, 106.11 73.04, 169.43 0.2 M0.3 206.96 C55.01 144.02, 109.72 81.08, 180.06 0.17 M0.3 206.96 C70.37 126.34, 140.45 45.73, 180.06 0.17 M-0.23 219.75 C61.59 148.64, 123.41 77.52, 182.81 9.19 M-0.23 219.75 C59.91 150.57, 120.05 81.4, 182.81 9.19 M-0.09 231.8 C50.74 173.32, 101.57 114.85, 182.95 21.23 M-0.09 231.8 C62.84 159.39, 125.78 86.99, 182.95 21.23 M0.04 243.84 C61.6 173.02, 123.15 102.21, 183.08 33.27 M0.04 243.84 C65.11 168.97, 130.19 94.11, 183.08 33.27 M0.17 255.88 C66.91 179.11, 133.64 102.34, 182.56 46.07 M0.17 255.88 C68.14 177.68, 136.12 99.49, 182.56 46.07 M0.3 267.92 C59.54 199.77, 118.78 131.63, 182.69 58.11 M0.3 267.92 C69.28 188.57, 138.25 109.23, 182.69 58.11 M10.94 267.88 C52.68 219.86, 94.43 171.83, 182.82 70.15 M10.94 267.88 C64.72 206.01, 118.51 144.13, 182.82 70.15 M21.57 267.85 C67.93 214.51, 114.29 161.18, 182.96 82.19 M21.57 267.85 C79.73 200.94, 137.9 134.02, 182.96 82.19 M32.2 267.81 C81.68 210.89, 131.16 153.97, 183.09 94.23 M32.2 267.81 C82.12 210.38, 132.05 152.94, 183.09 94.23 M42.83 267.78 C71.22 235.11, 99.62 202.45, 182.57 107.03 M42.83 267.78 C91.16 212.18, 139.49 156.58, 182.57 107.03 M52.8 268.5 C89.9 225.82, 127 183.14, 182.7 119.07 M52.8 268.5 C81.7 235.25, 110.6 202, 182.7 119.07 M63.43 268.47 C104.9 220.76, 146.37 173.05, 182.83 131.11 M63.43 268.47 C106.16 219.31, 148.89 170.15, 182.83 131.11 M74.06 268.43 C109.54 227.61, 145.03 186.79, 182.97 143.15 M74.06 268.43 C108.2 229.16, 142.33 189.89, 182.97 143.15 M84.69 268.4 C123.03 224.29, 161.37 180.18, 183.1 155.19 M84.69 268.4 C114.15 234.5, 143.62 200.61, 183.1 155.19 M95.32 268.36 C121.82 237.87, 148.33 207.38, 182.58 167.99 M95.32 268.36 C126.65 232.32, 157.98 196.28, 182.58 167.99 M105.95 268.33 C128.63 242.23, 151.31 216.14, 182.71 180.03 M105.95 268.33 C125.38 245.97, 144.82 223.61, 182.71 180.03 M116.58 268.29 C131.15 251.53, 145.73 234.76, 182.84 192.07 M116.58 268.29 C132.77 249.66, 148.97 231.03, 182.84 192.07 M127.21 268.26 C139.79 253.79, 152.37 239.31, 182.97 204.11 M127.21 268.26 C148.49 243.78, 169.77 219.3, 182.97 204.11 M137.84 268.22 C152.12 251.79, 166.41 235.36, 182.45 216.9 M137.84 268.22 C150.52 253.64, 163.19 239.06, 182.45 216.9 M148.47 268.19 C156.52 258.93, 164.57 249.67, 182.59 228.94 M148.47 268.19 C156.2 259.3, 163.93 250.4, 182.59 228.94 M159.1 268.16 C168.44 257.41, 177.79 246.66, 182.72 240.99 M159.1 268.16 C166.72 259.39, 174.35 250.62, 182.72 240.99 M169.73 268.12 C174.69 262.42, 179.64 256.72, 182.85 253.03 M169.73 268.12 C172.49 264.95, 175.24 261.78, 182.85 253.03 M180.36 268.09 C181.1 267.23, 181.84 266.38, 182.98 265.07 M180.36 268.09 C180.98 267.38, 181.59 266.67, 182.98 265.07" stroke="#ffc9c9" stroke-width="1" fill="none"></path><path d="M0 0 C62.49 0, 124.99 0, 182.68 0 M182.68 0 C182.68 88.29, 182.68 176.57, 182.68 268.02 M182.68 268.02 C120.5 268.02, 58.31 268.02, 0 268.02 M0 268.02 C0 207.08, 0 146.14, 0 0" stroke="#1e1e1e" stroke-width="2.5" fill="none" stroke-dasharray="8 10"></path></g><g stroke-opacity="0.4" fill-opacity="0.4" stroke-linecap="round" transform="translate(870.978767596092 176.67105966218423) rotate(0 67.93303617524532 67.93303617524532)"><path d="M135.87 67.93 C135.87 70.47, 135.72 73.02, 135.44 75.54 C135.16 78.06, 134.73 80.58, 134.16 83.05 C133.6 85.52, 132.89 87.98, 132.05 90.37 C131.22 92.76, 130.24 95.12, 129.14 97.41 C128.04 99.69, 126.8 101.93, 125.45 104.08 C124.1 106.22, 122.63 108.31, 121.05 110.29 C119.46 112.27, 117.76 114.18, 115.97 115.97 C114.18 117.76, 112.27 119.46, 110.29 121.05 C108.31 122.63, 106.22 124.1, 104.08 125.45 C101.93 126.8, 99.69 128.04, 97.41 129.14 C95.12 130.24, 92.76 131.22, 90.37 132.05 C87.98 132.89, 85.52 133.6, 83.05 134.16 C80.58 134.73, 78.06 135.16, 75.54 135.44 C73.02 135.72, 70.47 135.87, 67.93 135.87 C65.4 135.87, 62.85 135.72, 60.33 135.44 C57.81 135.16, 55.29 134.73, 52.82 134.16 C50.34 133.6, 47.89 132.89, 45.5 132.05 C43.1 131.22, 40.74 130.24, 38.46 129.14 C36.17 128.04, 33.94 126.8, 31.79 125.45 C29.64 124.1, 27.56 122.63, 25.58 121.05 C23.6 119.46, 21.69 117.76, 19.9 115.97 C18.1 114.18, 16.4 112.27, 14.82 110.29 C13.24 108.31, 11.76 106.22, 10.41 104.08 C9.06 101.93, 7.83 99.69, 6.73 97.41 C5.63 95.12, 4.65 92.76, 3.81 90.37 C2.97 87.98, 2.27 85.52, 1.7 83.05 C1.14 80.58, 0.71 78.06, 0.43 75.54 C0.14 73.02, 0 70.47, 0 67.93 C0 65.4, 0.14 62.85, 0.43 60.33 C0.71 57.81, 1.14 55.29, 1.7 52.82 C2.27 50.34, 2.97 47.89, 3.81 45.5 C4.65 43.1, 5.63 40.74, 6.73 38.46 C7.83 36.17, 9.06 33.94, 10.41 31.79 C11.76 29.64, 13.24 27.56, 14.82 25.58 C16.4 23.6, 18.1 21.69, 19.9 19.9 C21.69 18.1, 23.6 16.4, 25.58 14.82 C27.56 13.24, 29.64 11.76, 31.79 10.41 C33.94 9.06, 36.17 7.83, 38.46 6.73 C40.74 5.63, 43.1 4.65, 45.5 3.81 C47.89 2.97, 50.34 2.27, 52.82 1.7 C55.29 1.14, 57.81 0.71, 60.33 0.43 C62.85 0.14, 65.4 0, 67.93 0 C70.47 0, 73.02 0.14, 75.54 0.43 C78.06 0.71, 80.58 1.14, 83.05 1.7 C85.52 2.27, 87.98 2.97, 90.37 3.81 C92.76 4.65, 95.12 5.63, 97.41 6.73 C99.69 7.83, 101.93 9.06, 104.08 10.41 C106.22 11.76, 108.31 13.24, 110.29 14.82 C112.27 16.4, 114.18 18.1, 115.97 19.9 C117.76 21.69, 119.46 23.6, 121.05 25.58 C122.63 27.56, 124.1 29.64, 125.45 31.79 C126.8 33.94, 128.04 36.17, 129.14 38.46 C130.24 40.74, 131.22 43.1, 132.05 45.5 C132.89 47.89, 133.6 50.34, 134.16 52.82 C134.73 55.29, 135.16 57.81, 135.44 60.33 C135.72 62.85, 135.79 66.67, 135.87 67.93 C135.94 69.2, 135.94 66.67, 135.87 67.93" stroke="none" stroke-width="0" fill="#ced4da"></path><path d="M135.87 67.93 C135.87 70.47, 135.72 73.02, 135.44 75.54 C135.16 78.06, 134.73 80.58, 134.16 83.05 C133.6 85.52, 132.89 87.98, 132.05 90.37 C131.22 92.76, 130.24 95.12, 129.14 97.41 C128.04 99.69, 126.8 101.93, 125.45 104.08 C124.1 106.22, 122.63 108.31, 121.05 110.29 C119.46 112.27, 117.76 114.18, 115.97 115.97 C114.18 117.76, 112.27 119.46, 110.29 121.05 C108.31 122.63, 106.22 124.1, 104.08 125.45 C101.93 126.8, 99.69 128.04, 97.41 129.14 C95.12 130.24, 92.76 131.22, 90.37 132.05 C87.98 132.89, 85.52 133.6, 83.05 134.16 C80.58 134.73, 78.06 135.16, 75.54 135.44 C73.02 135.72, 70.47 135.87, 67.93 135.87 C65.4 135.87, 62.85 135.72, 60.33 135.44 C57.81 135.16, 55.29 134.73, 52.82 134.16 C50.34 133.6, 47.89 132.89, 45.5 132.05 C43.1 131.22, 40.74 130.24, 38.46 129.14 C36.17 128.04, 33.94 126.8, 31.79 125.45 C29.64 124.1, 27.56 122.63, 25.58 121.05 C23.6 119.46, 21.69 117.76, 19.9 115.97 C18.1 114.18, 16.4 112.27, 14.82 110.29 C13.24 108.31, 11.76 106.22, 10.41 104.08 C9.06 101.93, 7.83 99.69, 6.73 97.41 C5.63 95.12, 4.65 92.76, 3.81 90.37 C2.97 87.98, 2.27 85.52, 1.7 83.05 C1.14 80.58, 0.71 78.06, 0.43 75.54 C0.14 73.02, 0 70.47, 0 67.93 C0 65.4, 0.14 62.85, 0.43 60.33 C0.71 57.81, 1.14 55.29, 1.7 52.82 C2.27 50.34, 2.97 47.89, 3.81 45.5 C4.65 43.1, 5.63 40.74, 6.73 38.46 C7.83 36.17, 9.06 33.94, 10.41 31.79 C11.76 29.64, 13.24 27.56, 14.82 25.58 C16.4 23.6, 18.1 21.69, 19.9 19.9 C21.69 18.1, 23.6 16.4, 25.58 14.82 C27.56 13.24, 29.64 11.76, 31.79 10.41 C33.94 9.06, 36.17 7.83, 38.46 6.73 C40.74 5.63, 43.1 4.65, 45.5 3.81 C47.89 2.97, 50.34 2.27, 52.82 1.7 C55.29 1.14, 57.81 0.71, 60.33 0.43 C62.85 0.14, 65.4 0, 67.93 0 C70.47 0, 73.02 0.14, 75.54 0.43 C78.06 0.71, 80.58 1.14, 83.05 1.7 C85.52 2.27, 87.98 2.97, 90.37 3.81 C92.76 4.65, 95.12 5.63, 97.41 6.73 C99.69 7.83, 101.93 9.06, 104.08 10.41 C106.22 11.76, 108.31 13.24, 110.29 14.82 C112.27 16.4, 114.18 18.1, 115.97 19.9 C117.76 21.69, 119.46 23.6, 121.05 25.58 C122.63 27.56, 124.1 29.64, 125.45 31.79 C126.8 33.94, 128.04 36.17, 129.14 38.46 C130.24 40.74, 131.22 43.1, 132.05 45.5 C132.89 47.89, 133.6 50.34, 134.16 52.82 C134.73 55.29, 135.16 57.81, 135.44 60.33 C135.72 62.85, 135.79 66.67, 135.87 67.93 C135.94 69.2, 135.94 66.67, 135.87 67.93" stroke="#1e1e1e" stroke-width="1" fill="none"></path></g><g stroke-linecap="round"><g stroke-opacity="0.5" fill-opacity="0.5" transform="translate(912.2178505123372 203.9268950921064) rotate(0 21.216359545307455 41.164995322761)" fill-rule="evenodd"><path d="M0 0 C1.1 0.39, 4.76 1.14, 6.61 2.32 C8.45 3.51, 9.3 6.64, 11.06 7.1 C12.81 7.56, 13.29 5.4, 17.12 5.11 C20.96 4.81, 30.35 5.21, 34.05 5.34 C37.75 5.46, 37.77 6.31, 39.33 5.86 C40.89 5.4, 41.79 3.8, 43.41 2.6 C45.04 1.41, 47.88 -1.58, 49.09 -1.33 C50.29 -1.09, 50.41 2.3, 50.64 4.08 C50.88 5.86, 49.66 7.63, 50.5 9.34 C51.34 11.05, 54.44 11.11, 55.69 14.32 C56.94 17.52, 57.93 23.71, 58.01 28.57 C58.1 33.43, 57.38 40.04, 56.19 43.49 C55.01 46.95, 52.99 47.81, 50.9 49.29 C48.82 50.78, 46.2 51.6, 43.7 52.4 C41.2 53.2, 36.88 53.51, 35.92 54.11 C34.97 54.72, 37.25 55.01, 37.98 56.05 C38.71 57.09, 39.84 57.38, 40.3 60.34 C40.77 63.29, 40.72 70.19, 40.78 73.79 C40.85 77.38, 41.12 80.34, 40.69 81.93 C40.25 83.52, 41.77 83.05, 38.15 83.34 C34.53 83.63, 22.56 84, 18.96 83.66 C15.36 83.33, 17.07 83.3, 16.56 81.31 C16.05 79.33, 16.74 73.13, 15.89 71.73 C15.04 70.34, 13.42 72.68, 11.46 72.97 C9.51 73.25, 6.5 74.01, 4.14 73.43 C1.78 72.86, -0.85 71.3, -2.7 69.51 C-4.56 67.71, -5.56 64.5, -6.96 62.65 C-8.36 60.81, -9.67 59.63, -11.1 58.43 C-12.54 57.23, -15.85 55.86, -15.58 55.46 C-15.31 55.07, -11.23 55.4, -9.5 56.05 C-7.77 56.7, -6.73 58.04, -5.19 59.37 C-3.66 60.69, -2.11 62.75, -0.31 64 C1.49 65.25, 3.54 66.55, 5.62 66.89 C7.71 67.24, 10.57 66.63, 12.21 66.07 C13.85 65.51, 14.87 64.61, 15.46 63.51 C16.05 62.41, 15.43 60.74, 15.77 59.49 C16.11 58.23, 16.85 56.84, 17.52 55.99 C18.19 55.14, 20.85 55.04, 19.79 54.41 C18.74 53.78, 14 53.02, 11.2 52.2 C8.4 51.38, 5.06 50.96, 2.99 49.49 C0.93 48.03, 0.02 46.86, -1.2 43.4 C-2.42 39.93, -4.22 33.46, -4.33 28.71 C-4.44 23.96, -2.86 17.82, -1.84 14.89 C-0.83 11.96, 1.49 12.59, 1.75 11.1 C2 9.62, -0.02 7.81, -0.31 5.96 C-0.6 4.11, -0.05 0.99, 0 0" stroke="none" stroke-width="0" fill="#ffffff" fill-rule="evenodd"></path><path d="M0 0 C1.1 0.39, 4.76 1.14, 6.61 2.32 C8.45 3.51, 9.3 6.64, 11.06 7.1 C12.81 7.56, 13.29 5.4, 17.12 5.11 C20.96 4.81, 30.35 5.21, 34.05 5.34 C37.75 5.46, 37.77 6.31, 39.33 5.86 C40.89 5.4, 41.79 3.8, 43.41 2.6 C45.04 1.41, 47.88 -1.58, 49.09 -1.33 C50.29 -1.09, 50.41 2.3, 50.64 4.08 C50.88 5.86, 49.66 7.63, 50.5 9.34 C51.34 11.05, 54.44 11.11, 55.69 14.32 C56.94 17.52, 57.93 23.71, 58.01 28.57 C58.1 33.43, 57.38 40.04, 56.19 43.49 C55.01 46.95, 52.99 47.81, 50.9 49.29 C48.82 50.78, 46.2 51.6, 43.7 52.4 C41.2 53.2, 36.88 53.51, 35.92 54.11 C34.97 54.72, 37.25 55.01, 37.98 56.05 C38.71 57.09, 39.84 57.38, 40.3 60.34 C40.77 63.29, 40.72 70.19, 40.78 73.79 C40.85 77.38, 41.12 80.34, 40.69 81.93 C40.25 83.52, 41.77 83.05, 38.15 83.34 C34.53 83.63, 22.56 84, 18.96 83.66 C15.36 83.33, 17.07 83.3, 16.56 81.31 C16.05 79.33, 16.74 73.13, 15.89 71.73 C15.04 70.34, 13.42 72.68, 11.46 72.97 C9.51 73.25, 6.5 74.01, 4.14 73.43 C1.78 72.86, -0.85 71.3, -2.7 69.51 C-4.56 67.71, -5.56 64.5, -6.96 62.65 C-8.36 60.81, -9.67 59.63, -11.1 58.43 C-12.54 57.23, -15.85 55.86, -15.58 55.46 C-15.31 55.07, -11.23 55.4, -9.5 56.05 C-7.77 56.7, -6.73 58.04, -5.19 59.37 C-3.66 60.69, -2.11 62.75, -0.31 64 C1.49 65.25, 3.54 66.55, 5.62 66.89 C7.71 67.24, 10.57 66.63, 12.21 66.07 C13.85 65.51, 14.87 64.61, 15.46 63.51 C16.05 62.41, 15.43 60.74, 15.77 59.49 C16.11 58.23, 16.85 56.84, 17.52 55.99 C18.19 55.14, 20.85 55.04, 19.79 54.41 C18.74 53.78, 14 53.02, 11.2 52.2 C8.4 51.38, 5.06 50.96, 2.99 49.49 C0.93 48.03, 0.02 46.86, -1.2 43.4 C-2.42 39.93, -4.22 33.46, -4.33 28.71 C-4.44 23.96, -2.86 17.82, -1.84 14.89 C-0.83 11.96, 1.49 12.59, 1.75 11.1 C2 9.62, -0.02 7.81, -0.31 5.96 C-0.6 4.11, -0.05 0.99, 0 0 M0 0 C1.1 0.39, 4.76 1.14, 6.61 2.32 C8.45 3.51, 9.3 6.64, 11.06 7.1 C12.81 7.56, 13.29 5.4, 17.12 5.11 C20.96 4.81, 30.35 5.21, 34.05 5.34 C37.75 5.46, 37.77 6.31, 39.33 5.86 C40.89 5.4, 41.79 3.8, 43.41 2.6 C45.04 1.41, 47.88 -1.58, 49.09 -1.33 C50.29 -1.09, 50.41 2.3, 50.64 4.08 C50.88 5.86, 49.66 7.63, 50.5 9.34 C51.34 11.05, 54.44 11.11, 55.69 14.32 C56.94 17.52, 57.93 23.71, 58.01 28.57 C58.1 33.43, 57.38 40.04, 56.19 43.49 C55.01 46.95, 52.99 47.81, 50.9 49.29 C48.82 50.78, 46.2 51.6, 43.7 52.4 C41.2 53.2, 36.88 53.51, 35.92 54.11 C34.97 54.72, 37.25 55.01, 37.98 56.05 C38.71 57.09, 39.84 57.38, 40.3 60.34 C40.77 63.29, 40.72 70.19, 40.78 73.79 C40.85 77.38, 41.12 80.34, 40.69 81.93 C40.25 83.52, 41.77 83.05, 38.15 83.34 C34.53 83.63, 22.56 84, 18.96 83.66 C15.36 83.33, 17.07 83.3, 16.56 81.31 C16.05 79.33, 16.74 73.13, 15.89 71.73 C15.04 70.34, 13.42 72.68, 11.46 72.97 C9.51 73.25, 6.5 74.01, 4.14 73.43 C1.78 72.86, -0.85 71.3, -2.7 69.51 C-4.56 67.71, -5.56 64.5, -6.96 62.65 C-8.36 60.81, -9.67 59.63, -11.1 58.43 C-12.54 57.23, -15.85 55.86, -15.58 55.46 C-15.31 55.07, -11.23 55.4, -9.5 56.05 C-7.77 56.7, -6.73 58.04, -5.19 59.37 C-3.66 60.69, -2.11 62.75, -0.31 64 C1.49 65.25, 3.54 66.55, 5.62 66.89 C7.71 67.24, 10.57 66.63, 12.21 66.07 C13.85 65.51, 14.87 64.61, 15.46 63.51 C16.05 62.41, 15.43 60.74, 15.77 59.49 C16.11 58.23, 16.85 56.84, 17.52 55.99 C18.19 55.14, 20.85 55.04, 19.79 54.41 C18.74 53.78, 14 53.02, 11.2 52.2 C8.4 51.38, 5.06 50.96, 2.99 49.49 C0.93 48.03, 0.02 46.86, -1.2 43.4 C-2.42 39.93, -4.22 33.46, -4.33 28.71 C-4.44 23.96, -2.86 17.82, -1.84 14.89 C-0.83 11.96, 1.49 12.59, 1.75 11.1 C2 9.62, -0.02 7.81, -0.31 5.96 C-0.6 4.11, -0.05 0.99, 0 0" stroke="#1e1e1e" stroke-width="1" fill="none"></path></g></g><mask></mask><g stroke-opacity="0.7" fill-opacity="0.7" transform="translate(878.4447250130015 346.73146092659) rotate(0 57.59998321533203 22.5)"><text x="57.59998321533203" y="31.536" font-family="Virgil, Segoe UI Emoji" font-size="36px" fill="#1e1e1e" text-anchor="middle" style="white-space: pre;" direction="ltr" dominant-baseline="alphabetic">GitHub</text></g><g stroke-linecap="round"><g stroke-opacity="0.8" fill-opacity="0.8" transform="translate(617.9837107825394 247.5454995926939) rotate(0 126.02892045903297 0)"><path d="M0 0 C71.54 -1.47, 144.81 0.26, 252.06 0" stroke="#868e96" stroke-width="2.5" fill="none" stroke-dasharray="8 10"></path></g><g stroke-opacity="0.8" fill-opacity="0.8" transform="translate(617.9837107825394 247.5454995926939) rotate(0 126.02892045903297 0)"><path d="M228.55 8.51 C234.11 4.69, 241.87 4.38, 252.06 0" stroke="#868e96" stroke-width="2.5" fill="none"></path></g><g stroke-opacity="0.8" fill-opacity="0.8" transform="translate(617.9837107825394 247.5454995926939) rotate(0 126.02892045903297 0)"><path d="M228.58 -8.59 C234.27 -7.49, 242.01 -2.89, 252.06 0" stroke="#868e96" stroke-width="2.5" fill="none"></path></g></g><mask></mask><g stroke-linecap="round"><g stroke-opacity="0.8" fill-opacity="0.8" transform="translate(357.4828216917274 223.34869847295158) rotate(0 5.684341886080802e-14 76.114175760065)"><path d="M0 0 C-1.3 34.99, -0.44 70.85, 0 152.23" stroke="#2f9e44" stroke-width="1.5" fill="none" stroke-dasharray="1.5 7"></path></g></g><mask></mask><g stroke-linecap="round"><g stroke-opacity="0.8" fill-opacity="0.8" transform="translate(608.4309382181359 223.34869847295158) rotate(0 0 53.184265677075246)"><path d="M0 0 C-0.98 35.84, 0.32 72.01, 0 106.37" stroke="#e03131" stroke-width="1.5" fill="none" stroke-dasharray="1.5 7"></path></g></g><mask></mask><g stroke-linecap="round"><g stroke-opacity="0.8" fill-opacity="0.8" transform="translate(86.29984291963558 223.34869847295158) rotate(0 0 77.35250628111089)"><path d="M0 0 C0.69 41.24, -1.72 83.59, 0 154.71" stroke="#e03131" stroke-width="1.5" fill="none" stroke-dasharray="1.5 7"></path></g></g><mask></mask><g transform="translate(617.3830595688935 216.61234974843774) rotate(0 46.875 12)"><text x="0" y="19.3125" font-family="Cascadia, Segoe UI Emoji" font-size="20px" fill="#868e96" text-anchor="start" style="white-space: pre;" direction="ltr" dominant-baseline="alphabetic">git push</text></g><g stroke-linecap="round"><g transform="translate(618.8254948096103 303.16529345492063) rotate(0 138.84336860730673 0)"><path d="M0 0 C82.33 1.84, 167.22 0.34, 277.69 0" stroke="#868e96" stroke-width="2.5" fill="none" stroke-dasharray="8 10"></path></g><g transform="translate(618.8254948096103 303.16529345492063) rotate(0 138.84336860730673 0)"><path d="M23.52 -8.49 C15.62 -6.01, 11.14 -5.43, 0 0" stroke="#868e96" stroke-width="2.5" fill="none"></path></g><g transform="translate(618.8254948096103 303.16529345492063) rotate(0 138.84336860730673 0)"><path d="M23.47 8.61 C15.76 5.98, 11.29 1.46, 0 0" stroke="#868e96" stroke-width="2.5" fill="none"></path></g></g><mask></mask><g transform="translate(691.6263283714266 272.1745481455164) rotate(0 52.734375 12)"><text x="0" y="19.3125" font-family="Cascadia, Segoe UI Emoji" font-size="20px" fill="#868e96" text-anchor="start" style="white-space: pre;" direction="ltr" dominant-baseline="alphabetic">git fetch</text></g><g transform="translate(659.9617342810416 83.15196821223344) rotate(0 28.82598876953125 17.5)"><text x="28.82598876953125" y="24.528" font-family="Virgil, Segoe UI Emoji" font-size="28px" fill="#e03131" text-anchor="middle" style="white-space: pre;" direction="ltr" dominant-baseline="alphabetic">/.git</text></g><g transform="translate(153.72316518809203 83.15196821223344) rotate(0 7 17.5)"><text x="7" y="24.528" font-family="Virgil, Segoe UI Emoji" font-size="28px" fill="#e03131" text-anchor="middle" style="white-space: pre;" direction="ltr" dominant-baseline="alphabetic">/</text></g><g transform="translate(368.5873383212694 165.12893101308828) rotate(0 41.97862569684065 8.292242917835665)"><text x="0" y="11.622407673638463" font-family="Virgil, Segoe UI Emoji" font-size="13.267588668537059px" fill="#868e96" text-anchor="start" style="white-space: pre;" direction="ltr" dominant-baseline="alphabetic">Staging Area</text></g><g transform="translate(78.14546568809715 165.12893101308828) rotate(0 55.72383824486758 8.292242917835665)"><text x="0" y="11.622407673638463" font-family="Virgil, Segoe UI Emoji" font-size="13.267588668537059px" fill="#868e96" text-anchor="start" style="white-space: pre;" direction="ltr" dominant-baseline="alphabetic">Working Directory</text></g><g transform="translate(617.7515181902028 165.12893101308828) rotate(0 57.263259887695256 8.292242917835665)"><text x="0" y="11.622407673638463" font-family="Virgil, Segoe UI Emoji" font-size="13.267588668537059px" fill="#868e96" text-anchor="start" style="white-space: pre;" direction="ltr" dominant-baseline="alphabetic">Local Repository </text></g><g stroke-opacity="0.5" fill-opacity="0.5" transform="translate(42.19214210114916 307.95372800421865) rotate(270 34.76957578883619 7.115278491892354)"><text x="34.76957578883618" y="11.38468727447654" font-family="Helvetica, Segoe UI Emoji" font-size="12.374397377204096px" fill="#e03131" text-anchor="middle" style="white-space: pre;" direction="ltr" dominant-baseline="alphabetic">UNSTAGED</text></g><g stroke-linecap="round"><g stroke-opacity="0.8" fill-opacity="0.8" transform="translate(95.35173583853316 251.65411010814046) rotate(0 118.94248036687503 0)"><path d="M0 0 C87.9 -3.05, 178.38 -1.96, 237.88 0" stroke="#868e96" stroke-width="2.5" fill="none" stroke-dasharray="8 10"></path></g><g stroke-opacity="0.8" fill-opacity="0.8" transform="translate(95.35173583853316 251.65411010814046) rotate(0 118.94248036687503 0)"><path d="M214.2 7.99 C221.39 3.01, 231.61 1.3, 237.88 0" stroke="#868e96" stroke-width="2.5" fill="none"></path></g><g stroke-opacity="0.8" fill-opacity="0.8" transform="translate(95.35173583853316 251.65411010814046) rotate(0 118.94248036687503 0)"><path d="M214.6 -9.1 C221.54 -7.66, 231.61 -2.95, 237.88 0" stroke="#868e96" stroke-width="2.5" fill="none"></path></g></g><mask></mask><g stroke-linecap="round"><g stroke-opacity="0.8" fill-opacity="0.8" transform="translate(366.8994952874665 274.76615009519924) rotate(0 105.47846502104306 0)"><path d="M0 0 C69.14 0.23, 141.91 0.78, 210.96 0" stroke="#868e96" stroke-width="2.5" fill="none" stroke-dasharray="8 10"></path></g><g stroke-opacity="0.8" fill-opacity="0.8" transform="translate(366.8994952874665 274.76615009519924) rotate(0 105.47846502104306 0)"><path d="M187.52 8.69 C194.16 4.41, 204.95 2.14, 210.96 0" stroke="#868e96" stroke-width="2.5" fill="none"></path></g><g stroke-opacity="0.8" fill-opacity="0.8" transform="translate(366.8994952874665 274.76615009519924) rotate(0 105.47846502104306 0)"><path d="M187.41 -8.41 C194.17 -7, 205 -3.59, 210.96 0" stroke="#868e96" stroke-width="2.5" fill="none"></path></g></g><mask></mask><g transform="translate(93.84816610218809 226.65882630784586) rotate(0 32.8125 9.600000000000023)"><text x="0" y="15.45" font-family="Cascadia, Segoe UI Emoji" font-size="16px" fill="#868e96" text-anchor="start" style="white-space: pre;" direction="ltr" dominant-baseline="alphabetic">git add</text></g><g transform="translate(363.25228987979744 244.7778733758662) rotate(0 58.59375 12)"><text x="0" y="19.3125" font-family="Cascadia, Segoe UI Emoji" font-size="20px" fill="#868e96" text-anchor="start" style="white-space: pre;" direction="ltr" dominant-baseline="alphabetic">git commit</text></g><g transform="translate(108.7925151146253 309.3868262997796) rotate(0 93.75 9.600000000000023)"><text x="0" y="15.45" font-family="Cascadia, Segoe UI Emoji" font-size="16px" fill="#2f9e44" text-anchor="start" style="white-space: pre;" direction="ltr" dominant-baseline="alphabetic">git restore --staged</text></g><g stroke-linecap="round"><g transform="translate(90.54281084412435 301.8318590967831) rotate(0 130.00259578639492 0.15551004022358939)"><path d="M0 0 C94.73 0.11, 187.39 -1.09, 260.01 0.31" stroke="#2f9e44" stroke-width="2.5" fill="none" stroke-dasharray="8 10"></path></g><g transform="translate(90.54281084412435 301.8318590967831) rotate(0 130.00259578639492 0.15551004022358939)"><path d="M23.48 -8.59 C16.29 -4.8, 6.47 -3.35, 0 0" stroke="#2f9e44" stroke-width="2.5" fill="none"></path></g><g transform="translate(90.54281084412435 301.8318590967831) rotate(0 130.00259578639492 0.15551004022358939)"><path d="M23.51 8.51 C16.19 6.13, 6.35 1.42, 0 0" stroke="#2f9e44" stroke-width="2.5" fill="none"></path></g></g><mask></mask><g stroke-linecap="round"><g transform="translate(49.4144285847139 290.88373012668853) rotate(333.9759020382635 3.1855915874630796 -24.0855550906266)"><path d="M0.38 -0.09 C-3.28 -2.18, -18.5 -4.79, -21.66 -11.86 C-24.81 -18.92, -23.93 -36.39, -18.57 -42.47 C-13.21 -48.55, 2.98 -51.33, 10.49 -48.33 C18.01 -45.33, 23.82 -28.45, 26.52 -24.48" stroke="#e8590c" stroke-width="4.5" fill="none" stroke-dasharray="8 12"></path></g><g transform="translate(49.4144285847139 290.88373012668853) rotate(333.9759020382635 3.1855915874630796 -24.0855550906266)"><path d="M-11.97 -0.39 C-8.05 -0.96, -2.84 -1.38, 0.38 -0.09" stroke="#e8590c" stroke-width="4.5" fill="none"></path></g><g transform="translate(49.4144285847139 290.88373012668853) rotate(333.9759020382635 3.1855915874630796 -24.0855550906266)"><path d="M-8.88 -8.26 C-5.91 -6.26, -1.7 -4.13, 0.38 -0.09" stroke="#e8590c" stroke-width="4.5" fill="none"></path></g></g><mask></mask><g transform="translate(54.8426905538455 256.6893271082329) rotate(0 51.5625 9.600000000000023)"><text x="0" y="15.45" font-family="Cascadia, Segoe UI Emoji" font-size="16px" fill="#e8590c" text-anchor="start" style="white-space: pre;" direction="ltr" dominant-baseline="alphabetic">git restore</text></g><g stroke-linecap="round"><g transform="translate(92.25672639904394 356.62251652205873) rotate(0 130.00259578639492 0.15551004022358939)"><path d="M0 0 C64.44 0.49, 129.62 0.89, 260.01 0.31" stroke="#1971c2" stroke-width="2.5" fill="none" stroke-dasharray="8 10"></path></g><g transform="translate(92.25672639904394 356.62251652205873) rotate(0 130.00259578639492 0.15551004022358939)"><path d="M23.52 -8.46 C17.13 -8.47, 11.59 -5.96, 0 0" stroke="#1971c2" stroke-width="2.5" fill="none"></path></g><g transform="translate(92.25672639904394 356.62251652205873) rotate(0 130.00259578639492 0.15551004022358939)"><path d="M23.46 8.64 C16.93 4.36, 11.4 2.6, 0 0" stroke="#1971c2" stroke-width="2.5" fill="none"></path></g></g><mask></mask><g stroke-linecap="round"><g transform="translate(51.91886726548506 325.62866503065334) rotate(20.49339695979048 2.9414117487282283 23.52170224946849)"><path d="M-1.14 -0.16 C-4.35 2.15, -17.72 6.46, -20.34 13.48 C-22.96 20.5, -22.06 36.38, -16.85 41.95 C-11.63 47.52, 4.05 49.91, 10.97 46.9 C17.89 43.9, 22.45 27.73, 24.68 23.93" stroke="#1971c2" stroke-width="4.5" fill="none" stroke-dasharray="8 12"></path></g><g transform="translate(51.91886726548506 325.62866503065334) rotate(20.49339695979048 2.9414117487282283 23.52170224946849)"><path d="M-8.75 8.59 C-7.3 5.98, -4.76 4.33, -1.14 -0.16" stroke="#1971c2" stroke-width="4.5" fill="none"></path></g><g transform="translate(51.91886726548506 325.62866503065334) rotate(20.49339695979048 2.9414117487282283 23.52170224946849)"><path d="M-12.59 1.65 C-10.37 0.51, -7.03 0.3, -1.14 -0.16" stroke="#1971c2" stroke-width="4.5" fill="none"></path></g></g><mask></mask><g transform="translate(27.045065515267197 376.1570773429305) rotate(0 133.2657383124738 8.804136518191854)"><text x="0" y="14.169157208964954" font-family="Cascadia, Segoe UI Emoji" font-size="14.673560863653027px" fill="#1971c2" text-anchor="start" style="white-space: pre;" direction="ltr" dominant-baseline="alphabetic">git restore --staged --worktree</text></g><g stroke-opacity="0.8" fill-opacity="0.8" transform="translate(40.68898126266845 159.65606479069788) rotate(0 11.71875 12)"><text x="11.71875" y="19.3125" font-family="Cascadia, Segoe UI Emoji" font-size="20px" fill="#343a40" text-anchor="middle" style="white-space: pre;" direction="ltr" dominant-baseline="alphabetic">WD</text></g><g stroke-opacity="0.8" fill-opacity="0.8" transform="translate(334.2748383212694 159.65606479069788) rotate(0 11.71875 12)"><text x="11.71875" y="19.3125" font-family="Cascadia, Segoe UI Emoji" font-size="20px" fill="#343a40" text-anchor="middle" style="white-space: pre;" direction="ltr" dominant-baseline="alphabetic">SA</text></g><g stroke-opacity="0.8" fill-opacity="0.8" transform="translate(583.4390181902028 159.65606479069788) rotate(0 11.71875 12)"><text x="11.71875" y="19.3125" font-family="Cascadia, Segoe UI Emoji" font-size="20px" fill="#343a40" text-anchor="middle" style="white-space: pre;" direction="ltr" dominant-baseline="alphabetic">LR</text></g></svg>