<svg version="1.1" xmlns="http://www.w3.org/2000/svg" viewBox="0 0 1043.5203897275471 422.6098284091148" width="1043.5203897275471" height="422.6098284091148" filter="invert(93%) hue-rotate(180deg)">
  <!-- svg-source:excalidraw -->
  
  <defs>
    <style class="style-fonts">
      @font-face {
        font-family: "Virgil";
        src: url("https://excalidraw.com/Virgil.woff2");
      }
      @font-face {
        font-family: "Cascadia";
        src: url("https://excalidraw.com/Cascadia.woff2");
      }
      @font-face {
        font-family: "Assistant";
        src: url("https://excalidraw.com/Assistant-Regular.woff2");
      }
    </style>
    
  </defs>
  <g stroke-opacity="0.8" fill-opacity="0.8" stroke-linecap="round" transform="translate(314.5873383212694 133.04136863875658) rotate(0 119.93002263182706 134.64782409364227)"><path d="M0 0 C0 0, 0 0, 0 0 M0 0 C0 0, 0 0, 0 0 M0.13 12.04 C4.44 8.93, 5.64 3.85, 10.63 -0.03 M0.13 12.04 C3.19 8.86, 5.94 6.24, 10.63 -0.03 M0.27 24.08 C4.81 15.58, 14.53 10.96, 21.26 -0.07 M0.27 24.08 C4.81 17.51, 10.5 12.94, 21.26 -0.07 M-0.26 36.88 C4.28 27.6, 11.92 22.24, 31.89 -0.1 M-0.26 36.88 C9.57 26.94, 18.87 14.33, 31.89 -0.1 M-0.12 48.92 C10.35 36.74, 20.65 25.08, 42.52 -0.14 M-0.12 48.92 C12.31 33.63, 25.92 18.4, 42.52 -0.14 M0.01 60.96 C18.5 40.38, 37.55 18.65, 53.15 -0.17 M0.01 60.96 C18.66 37.98, 38.45 15.3, 53.15 -0.17 M0.14 73 C24.62 45.62, 48.36 15.9, 63.78 -0.21 M0.14 73 C23.7 46.62, 45.96 20.15, 63.78 -0.21 M0.28 85.04 C17.39 64.84, 36.68 41.38, 74.41 -0.24 M0.28 85.04 C29.69 52.13, 58.77 16.91, 74.41 -0.24 M-0.25 97.84 C31.07 61.31, 66.37 24.8, 85.04 -0.28 M-0.25 97.84 C18.57 77.53, 37.06 56.4, 85.04 -0.28 M-0.11 109.88 C27.19 78.31, 53.33 48.22, 95.67 -0.31 M-0.11 109.88 C23.02 82.13, 45.57 56.36, 95.67 -0.31 M0.02 121.92 C30.53 84.32, 60.72 52.02, 106.3 -0.34 M0.02 121.92 C34.85 79.12, 71.21 37.95, 106.3 -0.34 M0.15 133.96 C38.15 89.01, 81.09 44.94, 116.27 0.38 M0.15 133.96 C34.2 93.25, 67.31 54.75, 116.27 0.38 M0.29 146 C25.38 116.48, 51.8 85.51, 126.91 0.34 M0.29 146 C45.55 95.73, 89.02 43.99, 126.91 0.34 M-0.24 158.8 C41.88 110.64, 84.85 59.06, 137.54 0.31 M-0.24 158.8 C42.53 109.29, 86.68 58.74, 137.54 0.31 M-0.1 170.84 C39.18 126.06, 78.02 83.71, 148.17 0.27 M-0.1 170.84 C45.03 119.88, 91.02 68.05, 148.17 0.27 M0.03 182.88 C50.64 124.63, 100.92 69.79, 158.8 0.24 M0.03 182.88 C61.63 112.6, 123.67 40.8, 158.8 0.24 M0.16 194.92 C64.5 119.79, 128.97 43.21, 169.43 0.2 M0.16 194.92 C34.39 155.98, 67.97 115.88, 169.43 0.2 M0.3 206.96 C64.45 132.19, 129.99 56.17, 180.06 0.17 M0.3 206.96 C67.57 131.41, 133.11 55.11, 180.06 0.17 M-0.23 219.75 C78.39 131.42, 152.75 45.46, 190.69 0.13 M-0.23 219.75 C56.13 153.41, 111.43 89.35, 190.69 0.13 M-0.09 231.8 C62.52 157.49, 127.11 83.93, 201.32 0.1 M-0.09 231.8 C43.57 182.26, 86.43 133.22, 201.32 0.1 M0.04 243.84 C61.94 175.83, 121.19 106.98, 211.95 0.06 M0.04 243.84 C79.06 152.23, 158.32 61.45, 211.95 0.06 M0.17 255.88 C82.93 157.5, 169.14 59.94, 222.58 0.03 M0.17 255.88 C65 181.39, 128.09 108.49, 222.58 0.03 M0.3 267.92 C70.87 183.96, 144.9 101.74, 233.21 0 M0.3 267.92 C67.74 191.56, 133.99 114.73, 233.21 0 M5.69 273.92 C94.15 173.06, 181.08 75.06, 241.87 2.23 M5.69 273.92 C57.72 212.14, 110.96 150.81, 241.87 2.23 M16.32 273.89 C89.52 190.24, 164.13 104.2, 242 14.27 M16.32 273.89 C64.32 219.7, 111.36 165.96, 242 14.27 M26.95 273.85 C75.03 217.79, 124.28 161.72, 242.13 26.31 M26.95 273.85 C86.35 203.56, 146.13 133.93, 242.13 26.31 M37.58 273.82 C89.58 214.57, 141.08 153.49, 242.27 38.35 M37.58 273.82 C114.14 183.98, 190.72 94.88, 242.27 38.35 M48.21 273.78 C115.04 197.1, 180.42 121.61, 242.4 50.39 M48.21 273.78 C123.91 184.3, 200.67 96.34, 242.4 50.39 M58.84 273.75 C98.24 230.55, 135.85 183.75, 241.88 63.18 M58.84 273.75 C126.55 196.29, 193.16 118.99, 241.88 63.18 M68.81 274.47 C107.33 230.7, 147.09 186.03, 242.01 75.23 M68.81 274.47 C121.05 215.92, 173.93 155.25, 242.01 75.23 M79.44 274.43 C142.4 201.19, 205.74 127.07, 242.14 87.27 M79.44 274.43 C141.67 201.35, 205.61 127.35, 242.14 87.27 M90.07 274.4 C119.36 238.22, 154.09 203.21, 242.28 99.31 M90.07 274.4 C125.57 233.64, 159.77 193.62, 242.28 99.31 M100.7 274.37 C145.99 220.12, 196.33 164.63, 242.41 111.35 M100.7 274.37 C133.68 237.37, 164.76 202.53, 242.41 111.35 M111.33 274.33 C158.32 219.8, 204.44 163.6, 241.89 124.14 M111.33 274.33 C138.08 241.12, 165.64 209.41, 241.89 124.14 M121.96 274.3 C158.48 231.2, 195.63 188.68, 242.02 136.18 M121.96 274.3 C154.09 238.23, 186.88 200.53, 242.02 136.18 M132.59 274.26 C174.39 224.95, 219.42 174.72, 242.15 148.23 M132.59 274.26 C172.26 228.92, 212.86 183.92, 242.15 148.23 M143.22 274.23 C177.44 233.39, 211.19 195.57, 242.29 160.27 M143.22 274.23 C173.38 241.95, 202.86 207.72, 242.29 160.27 M153.85 274.19 C183.51 241.52, 213.12 206.27, 242.42 172.31 M153.85 274.19 C171.02 255.05, 189.48 233.6, 242.42 172.31 M164.48 274.16 C192.31 242.6, 214.45 213.95, 241.9 185.1 M164.48 274.16 C186.31 247.39, 209.15 220.78, 241.9 185.1 M175.11 274.12 C190.62 255.52, 206.61 239.39, 242.03 197.14 M175.11 274.12 C196.74 248.93, 220.21 222.06, 242.03 197.14 M185.74 274.09 C204.63 252.21, 226.48 229.21, 242.16 209.18 M185.74 274.09 C198.26 259.34, 208.87 244.58, 242.16 209.18 M196.37 274.05 C210.24 260.2, 223.1 245.64, 242.3 221.23 M196.37 274.05 C213.63 253.23, 232.48 233.88, 242.3 221.23 M207 274.02 C214.69 264.11, 222.92 258.34, 242.43 233.27 M207 274.02 C216.45 263.1, 225.95 253.61, 242.43 233.27 M217.63 273.99 C223.16 265.54, 233.23 256.05, 241.91 246.06 M217.63 273.99 C224.01 267.85, 230.23 260.51, 241.91 246.06 M228.26 273.95 C231.08 272.61, 234.83 267.43, 242.04 258.1 M228.26 273.95 C232.23 268.98, 237.07 263.74, 242.04 258.1" stroke="#b2f2bb" stroke-width="1" fill="none"></path><path d="M0 0 C55.98 1.84, 109.84 0.86, 239.86 0 M239.86 0 C240.46 75.29, 241.22 149.94, 239.86 269.3 M239.86 269.3 C178.1 270.47, 116.65 270.86, 0 269.3 M0 269.3 C0.06 194.09, -0.74 121.77, 0 0" stroke="#2f9e44" stroke-width="2.5" fill="none" stroke-dasharray="8 10"></path></g><g stroke-opacity="0.8" fill-opacity="0.8" transform="translate(319.5873383212694 138.04136863875658) rotate(0 87.77993774414062 12.5)"><text x="0" y="17.52" font-family="Virgil, Segoe UI Emoji" font-size="20px" fill="#2f9e44" text-anchor="start" style="white-space: pre;" direction="ltr" dominant-baseline="alphabetic">Zona de estancia</text></g><g stroke-opacity="0.5" fill-opacity="0.5" transform="translate(315.3232795764361 249.3918671684694) rotate(270 32.30078125 9.199999999999989)"><text x="32.30078125" y="14.720312499999999" font-family="Helvetica, Segoe UI Emoji" font-size="16px" fill="#2f9e44" text-anchor="middle" style="white-space: pre;" direction="ltr" dominant-baseline="alphabetic">STAGED</text></g><g stroke-opacity="0.8" fill-opacity="0.8" stroke-linecap="round" transform="translate(563.7515181902028 133.04136863875658) rotate(0 119.93002263182706 134.64782409364227)"><path d="M0 0 C0 0, 0 0, 0 0 M0 0 C0 0, 0 0, 0 0 M0.13 12.04 C5.26 5.81, 9.05 3.12, 10.63 -0.03 M0.13 12.04 C4.62 8.53, 7.17 3.55, 10.63 -0.03 M0.27 24.08 C8.07 14.38, 13.93 7.3, 21.26 -0.07 M0.27 24.08 C9.64 14.4, 17.18 4.68, 21.26 -0.07 M-0.26 36.88 C10.98 23.2, 20.17 10.23, 31.89 -0.1 M-0.26 36.88 C9.66 26.42, 19.22 14.61, 31.89 -0.1 M-0.12 48.92 C14.92 32.1, 33.05 13.39, 42.52 -0.14 M-0.12 48.92 C16.32 30.4, 33.85 10.39, 42.52 -0.14 M0.01 60.96 C18.18 39.45, 37.91 15.6, 53.15 -0.17 M0.01 60.96 C20.15 38.06, 40.24 13.54, 53.15 -0.17 M0.14 73 C22.97 48.39, 45.41 23.04, 63.78 -0.21 M0.14 73 C18.72 52.02, 37.61 32.27, 63.78 -0.21 M0.28 85.04 C21.18 61.06, 40.39 38.67, 74.41 -0.24 M0.28 85.04 C16.73 64.94, 34.91 46.3, 74.41 -0.24 M-0.25 97.84 C25.51 70.06, 46.28 44.86, 85.04 -0.28 M-0.25 97.84 C21.79 73.21, 44.37 48.45, 85.04 -0.28 M-0.11 109.88 C34.06 71.93, 66.46 31.31, 95.67 -0.31 M-0.11 109.88 C20.08 87.59, 37.86 65.05, 95.67 -0.31 M0.02 121.92 C37.69 78.51, 76.67 34.72, 106.3 -0.34 M0.02 121.92 C30.91 85.63, 60.94 49, 106.3 -0.34 M0.15 133.96 C36.08 94.57, 69.16 56.99, 116.27 0.38 M0.15 133.96 C25.66 105.08, 51.2 76.92, 116.27 0.38 M0.29 146 C49.22 91, 98.02 32.41, 126.91 0.34 M0.29 146 C39.93 100.89, 78.87 55.12, 126.91 0.34 M-0.24 158.8 C31.08 123.53, 63.83 88.32, 137.54 0.31 M-0.24 158.8 C37.7 117.13, 72.69 76.08, 137.54 0.31 M-0.1 170.84 C49.93 113.2, 98.25 57.21, 148.17 0.27 M-0.1 170.84 C38.63 127.12, 79.44 80.83, 148.17 0.27 M0.03 182.88 C60.05 115.92, 117.29 44.63, 158.8 0.24 M0.03 182.88 C52.99 123.01, 105.33 62.07, 158.8 0.24 M0.16 194.92 C62.34 123.4, 125.98 49.43, 169.43 0.2 M0.16 194.92 C43.4 146.54, 83.78 99.04, 169.43 0.2 M0.3 206.96 C64.47 134.41, 125.7 62.07, 180.06 0.17 M0.3 206.96 C48.5 149.42, 97.94 91.74, 180.06 0.17 M-0.23 219.75 C57.25 152.2, 115.11 87.58, 190.69 0.13 M-0.23 219.75 C67.87 142.46, 135.22 65.29, 190.69 0.13 M-0.09 231.8 C51.69 169.6, 104.59 110.12, 201.32 0.1 M-0.09 231.8 C67.96 152.23, 137.01 73.83, 201.32 0.1 M0.04 243.84 C57.16 181.33, 111.11 120.16, 211.95 0.06 M0.04 243.84 C50.03 187.62, 99.99 131.27, 211.95 0.06 M0.17 255.88 C45.32 203.28, 91.92 150.23, 222.58 0.03 M0.17 255.88 C54.05 193.67, 107.01 132.95, 222.58 0.03 M0.3 267.92 C57.27 202.97, 112.32 139.07, 233.21 0 M0.3 267.92 C82.51 172.86, 165.79 77.42, 233.21 0 M9.62 269.39 C98.33 164.94, 189.61 58.72, 240.56 3.73 M9.62 269.39 C73.34 197.29, 136.31 125.23, 240.56 3.73 M20.25 269.36 C104.1 176.29, 186.4 80.89, 240.69 15.78 M20.25 269.36 C92.1 186.16, 164.2 103.21, 240.69 15.78 M30.88 269.32 C76.54 215.31, 124.25 164.31, 240.82 27.82 M30.88 269.32 C78.19 215.92, 123.56 163.87, 240.82 27.82 M41.51 269.29 C89.45 212.36, 140.3 154.15, 240.3 40.61 M41.51 269.29 C113.75 183.6, 187.01 99.35, 240.3 40.61 M52.14 269.25 C120.63 190.08, 188.1 110.04, 240.43 52.65 M52.14 269.25 C95.31 219.96, 138.19 168.9, 240.43 52.65 M62.77 269.22 C132.93 189.4, 200.11 113.28, 240.57 64.69 M62.77 269.22 C105.9 218.02, 149.85 166.88, 240.57 64.69 M73.4 269.19 C128.39 207.86, 179.56 142.98, 240.7 76.73 M73.4 269.19 C131.76 202.69, 189.6 134.12, 240.7 76.73 M84.03 269.15 C137.09 204.77, 193.87 142.24, 240.83 88.78 M84.03 269.15 C137.69 205.01, 192.53 141.86, 240.83 88.78 M94.01 269.87 C135.12 223.38, 175.29 177.7, 240.31 101.57 M94.01 269.87 C152.41 202.93, 210.63 136.14, 240.31 101.57 M104.64 269.84 C143.58 224.68, 177.8 184.48, 240.44 113.61 M104.64 269.84 C157.28 208.32, 211.47 146.4, 240.44 113.61 M115.27 269.8 C163.97 212.31, 210.9 156.72, 240.58 125.65 M115.27 269.8 C150.54 232.16, 182.34 193.15, 240.58 125.65 M125.9 269.77 C159.89 230.94, 193.54 190.27, 240.71 137.69 M125.9 269.77 C165.04 225.11, 202.99 180.49, 240.71 137.69 M136.53 269.73 C171.71 227.93, 210.63 186.27, 240.84 149.73 M136.53 269.73 C161.67 242.87, 184.91 214.76, 240.84 149.73 M147.16 269.7 C178.5 230.58, 210.51 196.08, 240.32 162.53 M147.16 269.7 C169.41 241.94, 192.9 217.4, 240.32 162.53 M157.79 269.66 C174.32 248.24, 192.12 227.69, 240.45 174.57 M157.79 269.66 C179.91 246.17, 198.86 223.58, 240.45 174.57 M168.42 269.63 C192.95 238.89, 222.34 208.88, 240.58 186.61 M168.42 269.63 C185.22 249.72, 201.2 229.8, 240.58 186.61 M179.05 269.6 C201.11 242.95, 220.43 221.88, 240.72 198.65 M179.05 269.6 C195.2 251.59, 208.93 233.8, 240.72 198.65 M189.68 269.56 C201.74 253.82, 213.6 240.36, 240.85 210.69 M189.68 269.56 C206.31 249.12, 225 229.97, 240.85 210.69 M200.31 269.53 C210.79 257.57, 222.98 242.19, 240.33 223.49 M200.31 269.53 C210.26 257.05, 220.15 245.23, 240.33 223.49 M210.94 269.49 C219.05 257.11, 231.57 247.62, 240.46 235.53 M210.94 269.49 C217.18 260.89, 225.26 253.21, 240.46 235.53 M221.57 269.46 C226.02 262.55, 235.83 254.48, 240.59 247.57 M221.57 269.46 C226.04 262.58, 232.26 257.52, 240.59 247.57 M232.2 269.42 C235.79 266.14, 238.9 262.13, 240.73 259.61 M232.2 269.42 C234.48 265.72, 237.46 262.87, 240.73 259.61" stroke="#ffc9c9" stroke-width="1" fill="none"></path><path d="M0 0 C84.36 0.59, 168.56 -1.3, 239.86 0 M239.86 0 C239.18 73.82, 238.66 149.58, 239.86 269.3 M239.86 269.3 C157.12 268.83, 72.44 270.9, 0 269.3 M0 269.3 C-0.04 211.56, 1.92 155.1, 0 0" stroke="#e03131" stroke-width="2.5" fill="none" stroke-dasharray="8 10"></path></g><g stroke-opacity="0.8" fill-opacity="0.8" transform="translate(568.7515181902028 138.04136863875658) rotate(0 81.04991912841791 12.5)"><text x="0" y="17.52" font-family="Virgil, Segoe UI Emoji" font-size="20px" fill="#e03131" text-anchor="start" style="white-space: pre;" direction="ltr" dominant-baseline="alphabetic">Repositorio local</text></g><g stroke-opacity="0.5" fill-opacity="0.5" transform="translate(554.0443223298936 265.84887931487094) rotate(270 43.55078124999994 9.199999999999989)"><text x="43.55078125" y="14.720312499999999" font-family="Helvetica, Segoe UI Emoji" font-size="16px" fill="#e03131" text-anchor="middle" style="white-space: pre;" direction="ltr" dominant-baseline="alphabetic">COMMITED</text></g><g stroke-linecap="round" transform="translate(10 10) rotate(0 401.19653818715983 200.96708263356464)"><path d="M0 0 C278.42 2.61, 556.2 2.51, 802.39 0 M802.39 0 C803.22 136.54, 803.13 271.98, 802.39 401.93 M802.39 401.93 C617.17 399.05, 433.12 399.05, 0 401.93 M0 401.93 C1.55 250.95, 1.07 101.04, 0 0" stroke="#e8590c" stroke-width="4.5" fill="none" stroke-dasharray="1.5 10"></path></g><g stroke-linecap="round" transform="translate(827.7745830636047 12.370444462491946) rotate(0 102.8729033319712 200.11969197331143)"><path d="M0 0 C50.17 -2.2, 105.21 -0.85, 205.75 0 M205.75 0 C208.78 96.81, 207.2 192.51, 205.75 400.24 M205.75 400.24 C148.71 400.72, 88.1 398.36, 0 400.24 M0 400.24 C0.9 303.08, -0.46 207.52, 0 0" stroke="#6741d9" stroke-width="4.5" fill="none" stroke-dasharray="1.5 10"></path></g><g stroke-opacity="0" fill-opacity="0" stroke-linecap="round" transform="translate(879.691422386436 16.832574530396528) rotate(0 58.37866158183556 58.378661581835615)"><path d="M70.43 1.17 C79.18 2.01, 88.21 7.32, 95.05 13 C101.88 18.68, 107.76 26.9, 111.45 35.24 C115.14 43.59, 117.66 54.11, 117.19 63.07 C116.72 72.03, 113.62 81.55, 108.64 89 C103.65 96.45, 95.33 103.26, 87.3 107.79 C79.27 112.32, 69.31 115.59, 60.48 116.19 C51.64 116.79, 42.48 115.12, 34.3 111.4 C26.11 107.68, 16.85 101.03, 11.4 93.88 C5.95 86.73, 2.86 77.48, 1.59 68.49 C0.33 59.5, 1.15 48.55, 3.83 39.96 C6.51 31.37, 11.22 23.11, 17.68 16.95 C24.13 10.8, 33.17 5.6, 42.53 3.02 C51.89 0.45, 68.31 1.27, 73.84 1.52 C79.36 1.76, 76.21 3.59, 75.69 4.49 M52.48 1.09 C61.29 -0.51, 73.68 0.37, 82.14 3.89 C90.59 7.42, 97.63 15.23, 103.21 22.24 C108.79 29.25, 113.93 37.5, 115.63 45.93 C117.34 54.36, 115.88 64.1, 113.43 72.83 C110.98 81.56, 107.03 91.72, 100.95 98.32 C94.87 104.93, 85.54 109.46, 76.96 112.45 C68.38 115.44, 58.19 117.29, 49.49 116.27 C40.79 115.26, 31.96 111.74, 24.76 106.37 C17.56 101, 10.63 92.36, 6.28 84.05 C1.93 75.74, -1.5 65.55, -1.35 56.49 C-1.2 47.43, 2.34 37.65, 7.19 29.68 C12.05 21.72, 20 13.75, 27.78 8.7 C35.55 3.65, 49.81 0.36, 53.84 -0.61 C57.86 -1.58, 51.78 1.67, 51.94 2.88" stroke="#6741d9" stroke-width="1" fill="none"></path></g><g transform="translate(898.4226915856002 99.78385760810181) rotate(0 38.799957275390625 12.5)"><text x="38.799957275390625" y="17.52" font-family="Virgil, Segoe UI Emoji" font-size="20px" fill="#6741d9" text-anchor="middle" style="white-space: pre;" direction="ltr" dominant-baseline="alphabetic">Servidor</text></g><g stroke-linecap="round" transform="translate(918.5884688625133 25.63861461636236) rotate(0 18.63417999847718 34.78380266382396)"><path d="M0 0 C14.2 0.16, 25.4 0.24, 37.27 0 M0 0 C9.82 0.47, 18.6 -0.85, 37.27 0 M37.27 0 C37.93 14.56, 35.67 28.92, 37.27 69.57 M37.27 0 C37.17 26.27, 37.89 53.25, 37.27 69.57 M37.27 69.57 C23.49 70.6, 8.89 68.21, 0 69.57 M37.27 69.57 C26.3 69.96, 17.14 69.01, 0 69.57 M0 69.57 C-0.9 47.43, -2.27 28.55, 0 0 M0 69.57 C0.16 49.38, 0.87 29.6, 0 0" stroke="#6741d9" stroke-width="1" fill="none"></path></g><g stroke-linecap="round"><g transform="translate(923.3602117275273 33.33456528231807) rotate(0 14.286204665499099 1.1368683772161603e-13)"><path d="M0.04 0.04 C4.82 -0.08, 23.86 -0.31, 28.63 -0.26 M-0.6 -0.42 C4.11 -0.5, 23.41 0.33, 28.23 0.3" stroke="#6741d9" stroke-width="1" fill="none"></path></g></g><mask></mask><g stroke-linecap="round"><g transform="translate(922.4483090287554 39.73836305992643) rotate(0 14.286204665499099 1.1368683772161603e-13)"><path d="M0.06 -0.26 C4.83 -0.21, 23.86 0.22, 28.65 0.32 M-0.57 0.79 C4.12 0.68, 23.39 -0.26, 28.25 -0.48" stroke="#6741d9" stroke-width="1" fill="none"></path></g></g><mask></mask><g stroke-linecap="round"><g transform="translate(922.5745449049878 46.1421608375357) rotate(0 14.286204665499099 1.1368683772161603e-13)"><path d="M0.07 0.32 C4.86 0.43, 24.07 0.49, 28.8 0.38 M-0.55 0.01 C4.18 -0.01, 23.72 -0.4, 28.48 -0.39" stroke="#6741d9" stroke-width="1" fill="none"></path></g></g><mask></mask><g stroke-linecap="round"><g transform="translate(922.4890095362175 52.545958615144514) rotate(0 14.286204665499099 1.1368683772161603e-13)"><path d="M0.22 0.38 C4.95 0.27, 23.81 -0.22, 28.45 -0.35 M-0.32 0.1 C4.32 0.03, 23.05 0.19, 27.95 0.18" stroke="#6741d9" stroke-width="1" fill="none"></path></g></g><mask></mask><g stroke-linecap="round" transform="translate(944.0297184824069 59.47418431119479) rotate(0 3.320581637643386 2.4149684637405926)"><path d="M2.99 0.06 C3.66 -0.01, 4.22 0.1, 4.85 0.38 C5.47 0.66, 6.4 1.28, 6.72 1.74 C7.03 2.21, 7.03 2.69, 6.74 3.17 C6.44 3.66, 5.57 4.36, 4.94 4.66 C4.31 4.96, 3.6 5.12, 2.95 4.98 C2.3 4.85, 1.53 4.22, 1.03 3.82 C0.53 3.42, 0.02 3.1, -0.06 2.56 C-0.14 2.03, 0.08 1.07, 0.56 0.62 C1.04 0.18, 2.43 0, 2.79 -0.11 C3.16 -0.23, 2.7 -0.2, 2.75 -0.08 M3.16 -0.08 C3.77 -0.28, 4.33 -0.28, 4.9 0.04 C5.47 0.35, 6.37 1.29, 6.59 1.8 C6.8 2.32, 6.49 2.63, 6.16 3.11 C5.84 3.59, 5.21 4.36, 4.64 4.69 C4.07 5.02, 3.39 5.21, 2.73 5.07 C2.07 4.92, 1.23 4.3, 0.7 3.81 C0.17 3.32, -0.47 2.65, -0.44 2.13 C-0.41 1.61, 0.25 1.07, 0.9 0.68 C1.55 0.29, 3.05 -0.05, 3.45 -0.2 C3.86 -0.35, 3.46 -0.39, 3.34 -0.23" stroke="#6741d9" stroke-width="1" fill="none"></path></g><g stroke-opacity="0" fill-opacity="0" stroke-linecap="round" transform="translate(375.1909394082496 16.832574530396528) rotate(0 58.378661581835615 58.378661581835615)"><path d="M79.66 3.7 C87.83 6.02, 96.97 13.35, 102.93 20.49 C108.9 27.64, 113.5 37.72, 115.47 46.57 C117.44 55.42, 117.13 64.83, 114.77 73.58 C112.41 82.34, 107.67 92.45, 101.31 99.1 C94.96 105.75, 85.24 110.73, 76.64 113.48 C68.04 116.23, 58.52 117.01, 49.71 115.59 C40.89 114.18, 31.04 110.18, 23.74 104.99 C16.44 99.8, 9.86 92.47, 5.91 84.45 C1.96 76.43, -0.11 65.85, 0.02 56.85 C0.15 47.85, 2.18 38.45, 6.7 30.43 C11.23 22.42, 19.5 13.88, 27.17 8.78 C34.83 3.67, 43.49 0.38, 52.7 -0.2 C61.91 -0.79, 77.12 3.92, 82.45 5.25 C87.78 6.59, 84.83 6.98, 84.67 7.8 M79.89 5.88 C88 8.16, 97.44 13.87, 103.46 20.46 C109.48 27.04, 114.01 36.67, 116.03 45.39 C118.05 54.12, 118.11 64.01, 115.59 72.83 C113.06 81.65, 107.15 91.55, 100.87 98.3 C94.59 105.05, 86.48 110.16, 77.88 113.35 C69.29 116.54, 58.48 119.02, 49.31 117.44 C40.15 115.86, 30.1 109.68, 22.89 103.87 C15.67 98.06, 9.99 90.61, 6.03 82.58 C2.07 74.55, -1.32 64.45, -0.89 55.68 C-0.46 46.91, 4.06 37.64, 8.63 29.98 C13.2 22.32, 19.02 14.75, 26.52 9.7 C34.03 4.66, 44.67 0.56, 53.66 -0.3 C62.66 -1.16, 76.17 3.64, 80.5 4.54 C84.83 5.43, 79.8 4.28, 79.65 5.07" stroke="#e8590c" stroke-width="1" fill="none"></path></g><g stroke-linecap="round" transform="translate(404.95648493602846 34.1260770385162) rotate(0 29.07051933023172 19.380346220154536)"><path d="M9.69 0 C22.28 0.75, 31.16 -1.66, 48.45 0 M9.69 0 C21.18 0.09, 31.15 0.3, 48.45 0 M48.45 0 C56.55 -1.85, 58.08 3.14, 58.14 9.69 M48.45 0 C53.71 -0.38, 56.98 3.11, 58.14 9.69 M58.14 9.69 C56.69 17.39, 59.33 21.48, 58.14 29.07 M58.14 9.69 C57.75 14.4, 57.95 21.05, 58.14 29.07 M58.14 29.07 C56.8 37.12, 56.17 39.75, 48.45 38.76 M58.14 29.07 C56.49 37.57, 55.01 37.61, 48.45 38.76 M48.45 38.76 C33.51 39.26, 22.15 39.99, 9.69 38.76 M48.45 38.76 C37.15 38.21, 26.93 38.38, 9.69 38.76 M9.69 38.76 C2 37.87, 1.29 36.22, 0 29.07 M9.69 38.76 C2.64 39.52, 0.46 34.74, 0 29.07 M0 29.07 C-0.71 24.99, -0.81 18.06, 0 9.69 M0 29.07 C0.37 22.05, 0.3 15.8, 0 9.69 M0 9.69 C1.81 1.59, 3.18 0.12, 9.69 0 M0 9.69 C-0.95 3.73, 1.34 -0.53, 9.69 0" stroke="#e8590c" stroke-width="1" fill="none"></path></g><g stroke-linecap="round" transform="translate(399.4111760816603 77.20104235534029) rotate(0 34.158424908424934 4.675677934232965)"><path d="M2.34 0 C25.48 -0.85, 50.26 -0.56, 65.98 0 M2.34 0 C21.56 0.12, 41.52 -0.5, 65.98 0 M65.98 0 C67.51 -0.04, 67.79 0.61, 68.32 2.34 M65.98 0 C66.96 -0.06, 68.75 0.78, 68.32 2.34 M68.32 2.34 C68.44 3.62, 68.24 5.11, 68.32 7.01 M68.32 2.34 C68.3 3.44, 68.23 4.48, 68.32 7.01 M68.32 7.01 C68.95 9.07, 66.82 10.24, 65.98 9.35 M68.32 7.01 C68.36 7.99, 67.93 8.59, 65.98 9.35 M65.98 9.35 C42.25 9.87, 18.7 9.38, 2.34 9.35 M65.98 9.35 C41.1 8.69, 15.73 8.84, 2.34 9.35 M2.34 9.35 C1.42 9.69, -0.26 8.9, 0 7.01 M2.34 9.35 C1.01 8.96, -0.36 8.56, 0 7.01 M0 7.01 C-0.09 5.81, 0.16 4.53, 0 2.34 M0 7.01 C0.01 5.92, 0.1 4.5, 0 2.34 M0 2.34 C-0.02 0.84, 0.36 0.22, 2.34 0 M0 2.34 C-0.95 0.52, 1.72 -0.71, 2.34 0" stroke="#e8590c" stroke-width="1" fill="none"></path></g><g stroke-linecap="round" transform="translate(449.7789836877531 80.62548253252533) rotate(0 6.120820957724561 1.1798952533570173)"><path d="M0.59 0 C4.38 -0.18, 8.41 0.37, 11.65 0 M0.59 0 C4.26 -0.27, 7.47 -0.03, 11.65 0 M11.65 0 C11.52 -0.16, 11.74 0.15, 12.24 0.59 M11.65 0 C12.47 0, 12.33 -0.67, 12.24 0.59 M12.24 0.59 C12.23 0.99, 12.2 1.42, 12.24 1.77 M12.24 0.59 C12.22 0.89, 12.26 1.16, 12.24 1.77 M12.24 1.77 C11.52 3.05, 12.09 1.86, 11.65 2.36 M12.24 1.77 C12.64 1.4, 12.85 1.22, 11.65 2.36 M11.65 2.36 C8.1 2.38, 5.28 2.14, 0.59 2.36 M11.65 2.36 C9.17 2.2, 7.21 2.41, 0.59 2.36 M0.59 2.36 C-0.06 2.69, 0.2 1.82, 0 1.77 M0.59 2.36 C-0.16 2.35, -0.66 1.74, 0 1.77 M0 1.77 C0.04 1.29, -0.02 0.94, 0 0.59 M0 1.77 C0.03 1.38, 0 1.05, 0 0.59 M0 0.59 C-0.41 0.41, -0.63 -0.23, 0.59 0 M0 0.59 C0.94 -0.51, -0.3 0.44, 0.59 0" stroke="#e8590c" stroke-width="1" fill="none"></path></g><g stroke-linecap="round" transform="translate(428.0908625655828 73.49123216338955) rotate(0 6.120820957724561 1.1798952533570173)"><path d="M0.59 0 C3.18 0.35, 5.78 -0.16, 11.65 0 M0.59 0 C4.25 0.04, 7.79 0.01, 11.65 0 M11.65 0 C11.54 -0.05, 12.61 0.2, 12.24 0.59 M11.65 0 C12.14 -0.86, 12.93 0.9, 12.24 0.59 M12.24 0.59 C12.19 0.85, 12.2 1.14, 12.24 1.77 M12.24 0.59 C12.26 1.04, 12.22 1.48, 12.24 1.77 M12.24 1.77 C12.28 1.66, 12.39 1.7, 11.65 2.36 M12.24 1.77 C13.05 1.02, 12.17 2.14, 11.65 2.36 M11.65 2.36 C8.31 2.11, 3.45 2.45, 0.59 2.36 M11.65 2.36 C9.33 2.43, 6.58 2.43, 0.59 2.36 M0.59 2.36 C0.4 2.02, -0.31 2.16, 0 1.77 M0.59 2.36 C-0.47 1.94, 0.67 1.68, 0 1.77 M0 1.77 C-0.03 1.46, 0 1.14, 0 0.59 M0 1.77 C-0.01 1.31, -0.02 0.85, 0 0.59 M0 0.59 C-0.82 -0.03, 1.01 -0.61, 0.59 0 M0 0.59 C-0.49 0.64, 1.3 -0.19, 0.59 0" stroke="#e8590c" stroke-width="1" fill="none"></path></g><g stroke-linecap="round" transform="translate(409.9496525847136 38.610303108971834) rotate(0 24.11446288866233 15.125362843360563)"><path d="M7.56 0 C16.42 -0.84, 25.47 1.44, 40.67 0 M7.56 0 C13.9 -0.15, 20.78 -0.04, 40.67 0 M40.67 0 C46.45 0, 48.39 1.02, 48.23 7.56 M40.67 0 C47.08 1.42, 46.71 1.97, 48.23 7.56 M48.23 7.56 C47.11 11.24, 49.13 14.24, 48.23 22.69 M48.23 7.56 C47.78 13.97, 48.36 18.66, 48.23 22.69 M48.23 22.69 C48.91 26.4, 47.11 28.27, 40.67 30.25 M48.23 22.69 C48.49 27.29, 46.81 29.79, 40.67 30.25 M40.67 30.25 C28.94 30.44, 19.39 28.87, 7.56 30.25 M40.67 30.25 C31.95 30.69, 23.95 30.02, 7.56 30.25 M7.56 30.25 C1.9 30.24, -1.15 26.99, 0 22.69 M7.56 30.25 C3.86 29.29, -0.7 29.25, 0 22.69 M0 22.69 C0.18 19.74, 1.49 17.78, 0 7.56 M0 22.69 C-0.31 19.55, -0.62 15.91, 0 7.56 M0 7.56 C1.63 1.29, 1.66 0.77, 7.56 0 M0 7.56 C2.2 2.15, 0.91 1.51, 7.56 0" stroke="#e8590c" stroke-width="1" fill="none"></path></g><g transform="translate(401.0496348645969 91.29639518594774) rotate(0 32.51996612548828 12.5)"><text x="32.51996612548828" y="17.52" font-family="Virgil, Segoe UI Emoji" font-size="20px" fill="#e8590c" text-anchor="middle" style="white-space: pre;" direction="ltr" dominant-baseline="alphabetic">Cliente</text></g><g stroke-opacity="0.8" fill-opacity="0.8" stroke-linecap="round" transform="translate(20.145465688097147 133.04136863875658) rotate(0 140.57769949999488 134.64782409364227)"><path d="M0 0 C0 0, 0 0, 0 0 M0 0 C0 0, 0 0, 0 0 M0.13 12.04 C2.05 9.49, 4.31 6.92, 10.63 -0.03 M0.13 12.04 C4.95 8.15, 8.63 3.48, 10.63 -0.03 M0.27 24.08 C7.04 20.04, 8.41 12.88, 21.26 -0.07 M0.27 24.08 C7.79 16.47, 13.75 7.9, 21.26 -0.07 M-0.26 36.88 C9.4 26, 16.46 17.4, 31.89 -0.1 M-0.26 36.88 C11.31 22.85, 22.96 10.75, 31.89 -0.1 M-0.12 48.92 C10.43 36.25, 19.8 25.77, 42.52 -0.14 M-0.12 48.92 C8.76 38.3, 18.79 28.66, 42.52 -0.14 M0.01 60.96 C9.72 46.94, 23.82 34.74, 53.15 -0.17 M0.01 60.96 C18.26 38.36, 36.8 18.23, 53.15 -0.17 M0.14 73 C17.59 50.58, 36.94 29.89, 63.78 -0.21 M0.14 73 C18.72 51.73, 38.81 29.34, 63.78 -0.21 M0.28 85.04 C27.27 54.88, 52.91 24.21, 74.41 -0.24 M0.28 85.04 C23.46 58.21, 45.78 32.36, 74.41 -0.24 M-0.25 97.84 C22.58 74.72, 41.37 50.28, 85.04 -0.28 M-0.25 97.84 C15.66 77.55, 33.18 58.59, 85.04 -0.28 M-0.11 109.88 C33.06 71.24, 64.23 31.77, 95.67 -0.31 M-0.11 109.88 C18.63 87.59, 39.68 63.12, 95.67 -0.31 M0.02 121.92 C38.33 75.14, 77.49 29.98, 106.3 -0.34 M0.02 121.92 C39.16 77.28, 79.54 30.88, 106.3 -0.34 M0.15 133.96 C46.4 83.78, 89.01 30.92, 116.27 0.38 M0.15 133.96 C26.93 104.18, 53.24 72.44, 116.27 0.38 M0.29 146 C33.13 108.72, 69.15 71.62, 126.91 0.34 M0.29 146 C50.55 88.71, 100.1 30.99, 126.91 0.34 M-0.24 158.8 C28.52 123.37, 61.54 86.88, 137.54 0.31 M-0.24 158.8 C33.33 119.61, 64.6 82.96, 137.54 0.31 M-0.1 170.84 C55.25 108.74, 109.97 46.37, 148.17 0.27 M-0.1 170.84 C41.81 125.28, 82.41 78.34, 148.17 0.27 M0.03 182.88 C51.75 123.25, 106.1 59.79, 158.8 0.24 M0.03 182.88 C40.83 136.34, 81.95 89.46, 158.8 0.24 M0.16 194.92 C51.09 139.35, 97.59 83.37, 169.43 0.2 M0.16 194.92 C57.83 128.28, 117.2 61.21, 169.43 0.2 M0.3 206.96 C66.83 129.97, 133.01 53.49, 180.06 0.17 M0.3 206.96 C37.26 164.26, 75.06 120.8, 180.06 0.17 M-0.23 219.75 C48.45 161.12, 99.49 103.41, 190.69 0.13 M-0.23 219.75 C71.51 136.26, 144.57 51.33, 190.69 0.13 M-0.09 231.8 C55.35 166.31, 110.76 101.99, 201.32 0.1 M-0.09 231.8 C77.47 142.84, 154.87 52.58, 201.32 0.1 M0.04 243.84 C60.68 172.12, 122.95 100.48, 211.95 0.06 M0.04 243.84 C61.08 177.14, 119.54 108.62, 211.95 0.06 M0.17 255.88 C47.42 200.94, 95.51 143.84, 222.58 0.03 M0.17 255.88 C81.85 164.22, 162.96 70.93, 222.58 0.03 M0.3 267.92 C94.21 163.81, 185.95 58.33, 233.21 0 M0.3 267.92 C84.09 170.54, 167.99 72.83, 233.21 0 M9.62 269.39 C62.72 208.02, 116.42 149.48, 243.84 -0.04 M9.62 269.39 C78.68 189.06, 148.57 108.2, 243.84 -0.04 M20.25 269.36 C101.13 174.13, 186.1 77.54, 254.47 -0.07 M20.25 269.36 C88.35 190.32, 156.96 112.15, 254.47 -0.07 M30.88 269.32 C109.83 178.05, 187.66 86.27, 265.1 -0.11 M30.88 269.32 C82.94 207.39, 135.3 146.27, 265.1 -0.11 M41.51 269.29 C133.58 162.52, 226.85 54.56, 275.73 -0.14 M41.51 269.29 C123.38 174.45, 204.14 79.5, 275.73 -0.14 M52.14 269.25 C119.75 192.06, 187.55 114.57, 281.76 5.11 M52.14 269.25 C132.77 176.69, 214.63 82.87, 281.76 5.11 M62.77 269.22 C128.16 195.08, 191.67 121.98, 281.9 17.15 M62.77 269.22 C140.47 180.46, 217.71 91.92, 281.9 17.15 M73.4 269.19 C118.12 216.01, 164 163.01, 282.03 29.19 M73.4 269.19 C153.11 177.84, 232.5 85.75, 282.03 29.19 M84.03 269.15 C131.67 212.58, 182.14 154.57, 281.51 41.98 M84.03 269.15 C153.57 189.24, 223.73 108.66, 281.51 41.98 M94.01 269.87 C160.94 195.05, 224.46 119.69, 281.64 54.02 M94.01 269.87 C164.15 188.35, 235.51 106.73, 281.64 54.02 M104.64 269.84 C147.79 222.03, 188.92 172.85, 281.77 66.07 M104.64 269.84 C161.87 203.86, 219.24 137.92, 281.77 66.07 M115.27 269.8 C163.5 215.18, 211.79 160.01, 281.91 78.11 M115.27 269.8 C164.72 213.11, 214.55 155.53, 281.91 78.11 M125.9 269.77 C164.92 224.75, 204.04 177.12, 282.04 90.15 M125.9 269.77 C167.09 222.19, 207.96 175.6, 282.04 90.15 M136.53 269.73 C188.38 210.25, 240.49 150.65, 281.52 102.94 M136.53 269.73 C178.28 222.33, 219.29 175.92, 281.52 102.94 M147.16 269.7 C181.45 229.15, 213.74 192.34, 281.65 114.98 M147.16 269.7 C189.77 221.59, 233.37 173.61, 281.65 114.98 M157.79 269.66 C191.74 227.96, 228.19 190.96, 281.78 127.02 M157.79 269.66 C198.59 222.14, 240.63 176.15, 281.78 127.02 M168.42 269.63 C194.82 240.66, 220.61 211.09, 281.92 139.07 M168.42 269.63 C196.38 238.71, 224.49 207.85, 281.92 139.07 M179.05 269.6 C203.94 242.24, 227.33 215.28, 282.05 151.11 M179.05 269.6 C202.63 241.66, 227.15 213.63, 282.05 151.11 M189.68 269.56 C220.03 236.36, 247.74 202.77, 281.53 163.9 M189.68 269.56 C219.68 234.89, 250.96 199.3, 281.53 163.9 M200.31 269.53 C220.38 245.43, 238.33 222.72, 281.66 175.94 M200.31 269.53 C224.22 243.57, 246.91 216.63, 281.66 175.94 M210.94 269.49 C233.83 245.5, 256.02 219.18, 281.79 187.98 M210.94 269.49 C232.88 242.35, 256.33 216.97, 281.79 187.98 M221.57 269.46 C235.89 253.52, 248.03 241.86, 281.93 200.02 M221.57 269.46 C239.26 248.72, 257.57 227.22, 281.93 200.02 M232.2 269.42 C251.48 250.1, 268.72 227.72, 282.06 212.07 M232.2 269.42 C245.02 255.58, 258.51 239.44, 282.06 212.07 M242.83 269.39 C258.13 250.66, 272.63 233.38, 281.54 224.86 M242.83 269.39 C252.47 259.5, 262.11 248.19, 281.54 224.86 M253.46 269.35 C264.73 256.5, 274.94 245.08, 281.67 236.9 M253.46 269.35 C260.04 261.32, 266.17 254.23, 281.67 236.9 M264.09 269.32 C269.55 265.39, 272.05 259.45, 281.8 248.94 M264.09 269.32 C268.59 264.95, 272.83 260.23, 281.8 248.94 M274.72 269.28 C276.63 267.17, 281.02 262.1, 281.94 260.98 M274.72 269.28 C276.35 267.42, 278.44 266.19, 281.94 260.98" stroke="#ffc9c9" stroke-width="1" fill="none"></path><path d="M0 0 C92.39 1.07, 187.1 -1.25, 281.16 0 M281.16 0 C278.83 103.61, 279.53 206.47, 281.16 269.3 M281.16 269.3 C223.74 271.54, 164.4 269.04, 0 269.3 M0 269.3 C1.1 173.74, -1.28 76.26, 0 0" stroke="#e03131" stroke-width="2.5" fill="none" stroke-dasharray="8 10"></path></g><g stroke-opacity="0.8" fill-opacity="0.8" transform="translate(25.145465688097147 138.04136863875658) rotate(0 108.73990631103516 25)"><text x="0" y="17.52" font-family="Virgil, Segoe UI Emoji" font-size="20px" fill="#e03131" text-anchor="start" style="white-space: pre;" direction="ltr" dominant-baseline="alphabetic">Directorio de Trabajo</text><text x="0" y="42.519999999999996" font-family="Virgil, Segoe UI Emoji" font-size="20px" fill="#e03131" text-anchor="start" style="white-space: pre;" direction="ltr" dominant-baseline="alphabetic"></text></g><g stroke-opacity="0.3" fill-opacity="0.3" stroke-linecap="round" transform="translate(840.8360526750412 132.83971936736543) rotate(0 91.34147887972904 134.00942284578315)"><path d="M0 0 C0 0, 0 0, 0 0 M0 0 C0 0, 0 0, 0 0 M0.13 12.04 C3.37 8.32, 6.61 4.59, 10.63 -0.03 M0.13 12.04 C2.31 9.54, 4.48 7.04, 10.63 -0.03 M0.27 24.08 C5.1 18.52, 9.94 12.95, 21.26 -0.07 M0.27 24.08 C5.27 18.33, 10.26 12.58, 21.26 -0.07 M-0.26 36.88 C10.23 24.81, 20.72 12.74, 31.89 -0.1 M-0.26 36.88 C8.24 27.1, 16.74 17.32, 31.89 -0.1 M-0.12 48.92 C9.39 37.98, 18.9 27.04, 42.52 -0.14 M-0.12 48.92 C15.22 31.27, 30.56 13.62, 42.52 -0.14 M0.01 60.96 C14.73 44.03, 29.45 27.1, 53.15 -0.17 M0.01 60.96 C17 41.41, 34 21.86, 53.15 -0.17 M0.14 73 C15.79 55, 31.45 36.99, 63.78 -0.21 M0.14 73 C15.43 55.42, 30.71 37.83, 63.78 -0.21 M0.28 85.04 C19.63 62.77, 38.99 40.5, 74.41 -0.24 M0.28 85.04 C29.55 51.36, 58.83 17.68, 74.41 -0.24 M-0.25 97.84 C25.24 68.51, 50.74 39.19, 85.04 -0.28 M-0.25 97.84 C18.03 76.81, 36.3 55.79, 85.04 -0.28 M-0.11 109.88 C33.67 71.01, 67.46 32.14, 95.67 -0.31 M-0.11 109.88 C34.66 69.87, 69.43 29.87, 95.67 -0.31 M0.02 121.92 C32.45 84.62, 64.87 47.31, 106.3 -0.34 M0.02 121.92 C33.88 82.97, 67.74 44.01, 106.3 -0.34 M0.15 133.96 C34.9 93.98, 69.65 54.01, 116.27 0.38 M0.15 133.96 C29.07 100.69, 57.99 67.43, 116.27 0.38 M0.29 146 C27.03 115.23, 53.77 84.47, 126.91 0.34 M0.29 146 C49.83 89.01, 99.37 32.01, 126.91 0.34 M-0.24 158.8 C30.29 123.68, 60.81 88.57, 137.54 0.31 M-0.24 158.8 C45.13 106.61, 90.49 54.43, 137.54 0.31 M-0.1 170.84 C42.5 121.83, 85.1 72.82, 148.17 0.27 M-0.1 170.84 C55.05 107.39, 110.2 43.94, 148.17 0.27 M0.03 182.88 C49.87 125.54, 99.72 68.2, 158.8 0.24 M0.03 182.88 C36.81 140.56, 73.6 98.24, 158.8 0.24 M0.16 194.92 C38.59 150.72, 77.01 106.52, 169.43 0.2 M0.16 194.92 C34.35 155.59, 68.53 116.27, 169.43 0.2 M0.3 206.96 C62.17 135.78, 124.04 64.61, 180.06 0.17 M0.3 206.96 C42.69 158.19, 85.09 109.42, 180.06 0.17 M-0.23 219.75 C45.01 167.71, 90.26 115.66, 182.81 9.19 M-0.23 219.75 C59.08 151.53, 118.38 83.31, 182.81 9.19 M-0.09 231.8 C64.6 157.37, 129.3 82.95, 182.95 21.23 M-0.09 231.8 C68.14 153.3, 136.37 74.81, 182.95 21.23 M0.04 243.84 C71.1 162.08, 142.17 80.33, 183.08 33.27 M0.04 243.84 C70.04 163.31, 140.04 82.78, 183.08 33.27 M0.17 255.88 C65.17 181.11, 130.16 106.34, 182.56 46.07 M0.17 255.88 C59.48 187.65, 118.78 119.43, 182.56 46.07 M0.3 267.92 C39.35 223, 78.4 178.08, 182.69 58.11 M0.3 267.92 C59.26 200.1, 118.21 132.28, 182.69 58.11 M10.94 267.88 C52.36 220.23, 93.79 172.58, 182.82 70.15 M10.94 267.88 C67.17 203.19, 123.41 138.49, 182.82 70.15 M21.57 267.85 C71.91 209.93, 122.26 152.02, 182.96 82.19 M21.57 267.85 C68.99 213.29, 116.42 158.73, 182.96 82.19 M32.2 267.81 C72.76 221.15, 113.33 174.48, 183.09 94.23 M32.2 267.81 C72.12 221.88, 112.05 175.95, 183.09 94.23 M42.83 267.78 C97.68 204.67, 152.54 141.57, 182.57 107.03 M42.83 267.78 C90.81 212.58, 138.79 157.39, 182.57 107.03 M52.8 268.5 C101.49 212.49, 150.18 156.47, 182.7 119.07 M52.8 268.5 C101.48 212.5, 150.16 156.49, 182.7 119.07 M63.43 268.47 C110.01 214.88, 156.58 161.3, 182.83 131.11 M63.43 268.47 C101.92 224.19, 140.41 179.91, 182.83 131.11 M74.06 268.43 C103.18 234.94, 132.29 201.44, 182.97 143.15 M74.06 268.43 C111.8 225.01, 149.54 181.6, 182.97 143.15 M84.69 268.4 C120.32 227.4, 155.96 186.41, 183.1 155.19 M84.69 268.4 C122.38 225.04, 160.07 181.68, 183.1 155.19 M95.32 268.36 C123.96 235.42, 152.59 202.48, 182.58 167.99 M95.32 268.36 C114.55 246.24, 133.79 224.11, 182.58 167.99 M105.95 268.33 C135.86 233.92, 165.77 199.51, 182.71 180.03 M105.95 268.33 C127.37 243.69, 148.79 219.05, 182.71 180.03 M116.58 268.29 C137.3 244.46, 158.01 220.63, 182.84 192.07 M116.58 268.29 C135.69 246.31, 154.8 224.33, 182.84 192.07 M127.21 268.26 C142.67 250.48, 158.13 232.69, 182.97 204.11 M127.21 268.26 C142.03 251.21, 156.85 234.16, 182.97 204.11 M137.84 268.22 C148.96 255.43, 160.09 242.63, 182.45 216.9 M137.84 268.22 C155.42 248, 173 227.78, 182.45 216.9 M148.47 268.19 C157.09 258.27, 165.71 248.36, 182.59 228.94 M148.47 268.19 C155.29 260.34, 162.12 252.49, 182.59 228.94 M159.1 268.16 C167.14 258.91, 175.18 249.66, 182.72 240.99 M159.1 268.16 C164.59 261.84, 170.08 255.52, 182.72 240.99 M169.73 268.12 C173.24 264.08, 176.75 260.05, 182.85 253.03 M169.73 268.12 C172.88 264.49, 176.04 260.87, 182.85 253.03 M180.36 268.09 C181.05 267.3, 181.73 266.51, 182.98 265.07 M180.36 268.09 C181.02 267.33, 181.68 266.57, 182.98 265.07" stroke="#ffc9c9" stroke-width="1" fill="none"></path><path d="M0 0 C64.66 0, 129.32 0, 182.68 0 M182.68 0 C182.68 63.99, 182.68 127.98, 182.68 268.02 M182.68 268.02 C110.24 268.02, 37.79 268.02, 0 268.02 M0 268.02 C0 193.58, 0 119.14, 0 0" stroke="#1e1e1e" stroke-width="2.5" fill="none" stroke-dasharray="8 10"></path></g><g stroke-opacity="0.4" fill-opacity="0.4" stroke-linecap="round" transform="translate(870.978767596092 176.671059662184) rotate(0 67.93303617524532 67.93303617524532)"><path d="M135.87 67.93 C135.87 70.47, 135.72 73.02, 135.44 75.54 C135.16 78.06, 134.73 80.58, 134.16 83.05 C133.6 85.52, 132.89 87.98, 132.05 90.37 C131.22 92.76, 130.24 95.12, 129.14 97.41 C128.04 99.69, 126.8 101.93, 125.45 104.08 C124.1 106.22, 122.63 108.31, 121.05 110.29 C119.46 112.27, 117.76 114.18, 115.97 115.97 C114.18 117.76, 112.27 119.46, 110.29 121.05 C108.31 122.63, 106.22 124.1, 104.08 125.45 C101.93 126.8, 99.69 128.04, 97.41 129.14 C95.12 130.24, 92.76 131.22, 90.37 132.05 C87.98 132.89, 85.52 133.6, 83.05 134.16 C80.58 134.73, 78.06 135.16, 75.54 135.44 C73.02 135.72, 70.47 135.87, 67.93 135.87 C65.4 135.87, 62.85 135.72, 60.33 135.44 C57.81 135.16, 55.29 134.73, 52.82 134.16 C50.34 133.6, 47.89 132.89, 45.5 132.05 C43.1 131.22, 40.74 130.24, 38.46 129.14 C36.17 128.04, 33.94 126.8, 31.79 125.45 C29.64 124.1, 27.56 122.63, 25.58 121.05 C23.6 119.46, 21.69 117.76, 19.9 115.97 C18.1 114.18, 16.4 112.27, 14.82 110.29 C13.24 108.31, 11.76 106.22, 10.41 104.08 C9.06 101.93, 7.83 99.69, 6.73 97.41 C5.63 95.12, 4.65 92.76, 3.81 90.37 C2.97 87.98, 2.27 85.52, 1.7 83.05 C1.14 80.58, 0.71 78.06, 0.43 75.54 C0.14 73.02, 0 70.47, 0 67.93 C0 65.4, 0.14 62.85, 0.43 60.33 C0.71 57.81, 1.14 55.29, 1.7 52.82 C2.27 50.34, 2.97 47.89, 3.81 45.5 C4.65 43.1, 5.63 40.74, 6.73 38.46 C7.83 36.17, 9.06 33.94, 10.41 31.79 C11.76 29.64, 13.24 27.56, 14.82 25.58 C16.4 23.6, 18.1 21.69, 19.9 19.9 C21.69 18.1, 23.6 16.4, 25.58 14.82 C27.56 13.24, 29.64 11.76, 31.79 10.41 C33.94 9.06, 36.17 7.83, 38.46 6.73 C40.74 5.63, 43.1 4.65, 45.5 3.81 C47.89 2.97, 50.34 2.27, 52.82 1.7 C55.29 1.14, 57.81 0.71, 60.33 0.43 C62.85 0.14, 65.4 0, 67.93 0 C70.47 0, 73.02 0.14, 75.54 0.43 C78.06 0.71, 80.58 1.14, 83.05 1.7 C85.52 2.27, 87.98 2.97, 90.37 3.81 C92.76 4.65, 95.12 5.63, 97.41 6.73 C99.69 7.83, 101.93 9.06, 104.08 10.41 C106.22 11.76, 108.31 13.24, 110.29 14.82 C112.27 16.4, 114.18 18.1, 115.97 19.9 C117.76 21.69, 119.46 23.6, 121.05 25.58 C122.63 27.56, 124.1 29.64, 125.45 31.79 C126.8 33.94, 128.04 36.17, 129.14 38.46 C130.24 40.74, 131.22 43.1, 132.05 45.5 C132.89 47.89, 133.6 50.34, 134.16 52.82 C134.73 55.29, 135.16 57.81, 135.44 60.33 C135.72 62.85, 135.79 66.67, 135.87 67.93 C135.94 69.2, 135.94 66.67, 135.87 67.93" stroke="none" stroke-width="0" fill="#ced4da"></path><path d="M135.87 67.93 C135.87 70.47, 135.72 73.02, 135.44 75.54 C135.16 78.06, 134.73 80.58, 134.16 83.05 C133.6 85.52, 132.89 87.98, 132.05 90.37 C131.22 92.76, 130.24 95.12, 129.14 97.41 C128.04 99.69, 126.8 101.93, 125.45 104.08 C124.1 106.22, 122.63 108.31, 121.05 110.29 C119.46 112.27, 117.76 114.18, 115.97 115.97 C114.18 117.76, 112.27 119.46, 110.29 121.05 C108.31 122.63, 106.22 124.1, 104.08 125.45 C101.93 126.8, 99.69 128.04, 97.41 129.14 C95.12 130.24, 92.76 131.22, 90.37 132.05 C87.98 132.89, 85.52 133.6, 83.05 134.16 C80.58 134.73, 78.06 135.16, 75.54 135.44 C73.02 135.72, 70.47 135.87, 67.93 135.87 C65.4 135.87, 62.85 135.72, 60.33 135.44 C57.81 135.16, 55.29 134.73, 52.82 134.16 C50.34 133.6, 47.89 132.89, 45.5 132.05 C43.1 131.22, 40.74 130.24, 38.46 129.14 C36.17 128.04, 33.94 126.8, 31.79 125.45 C29.64 124.1, 27.56 122.63, 25.58 121.05 C23.6 119.46, 21.69 117.76, 19.9 115.97 C18.1 114.18, 16.4 112.27, 14.82 110.29 C13.24 108.31, 11.76 106.22, 10.41 104.08 C9.06 101.93, 7.83 99.69, 6.73 97.41 C5.63 95.12, 4.65 92.76, 3.81 90.37 C2.97 87.98, 2.27 85.52, 1.7 83.05 C1.14 80.58, 0.71 78.06, 0.43 75.54 C0.14 73.02, 0 70.47, 0 67.93 C0 65.4, 0.14 62.85, 0.43 60.33 C0.71 57.81, 1.14 55.29, 1.7 52.82 C2.27 50.34, 2.97 47.89, 3.81 45.5 C4.65 43.1, 5.63 40.74, 6.73 38.46 C7.83 36.17, 9.06 33.94, 10.41 31.79 C11.76 29.64, 13.24 27.56, 14.82 25.58 C16.4 23.6, 18.1 21.69, 19.9 19.9 C21.69 18.1, 23.6 16.4, 25.58 14.82 C27.56 13.24, 29.64 11.76, 31.79 10.41 C33.94 9.06, 36.17 7.83, 38.46 6.73 C40.74 5.63, 43.1 4.65, 45.5 3.81 C47.89 2.97, 50.34 2.27, 52.82 1.7 C55.29 1.14, 57.81 0.71, 60.33 0.43 C62.85 0.14, 65.4 0, 67.93 0 C70.47 0, 73.02 0.14, 75.54 0.43 C78.06 0.71, 80.58 1.14, 83.05 1.7 C85.52 2.27, 87.98 2.97, 90.37 3.81 C92.76 4.65, 95.12 5.63, 97.41 6.73 C99.69 7.83, 101.93 9.06, 104.08 10.41 C106.22 11.76, 108.31 13.24, 110.29 14.82 C112.27 16.4, 114.18 18.1, 115.97 19.9 C117.76 21.69, 119.46 23.6, 121.05 25.58 C122.63 27.56, 124.1 29.64, 125.45 31.79 C126.8 33.94, 128.04 36.17, 129.14 38.46 C130.24 40.74, 131.22 43.1, 132.05 45.5 C132.89 47.89, 133.6 50.34, 134.16 52.82 C134.73 55.29, 135.16 57.81, 135.44 60.33 C135.72 62.85, 135.79 66.67, 135.87 67.93 C135.94 69.2, 135.94 66.67, 135.87 67.93" stroke="#1e1e1e" stroke-width="1" fill="none"></path></g><g stroke-linecap="round"><g stroke-opacity="0.5" fill-opacity="0.5" transform="translate(912.2178505123372 203.9268950921063) rotate(0 21.216359545307455 41.164995322761115)" fill-rule="evenodd"><path d="M0 0 C1.1 0.39, 4.76 1.14, 6.61 2.32 C8.45 3.51, 9.3 6.64, 11.06 7.1 C12.81 7.56, 13.29 5.4, 17.12 5.11 C20.96 4.81, 30.35 5.21, 34.05 5.34 C37.75 5.46, 37.77 6.31, 39.33 5.86 C40.89 5.4, 41.79 3.8, 43.41 2.6 C45.04 1.41, 47.88 -1.58, 49.09 -1.33 C50.29 -1.09, 50.41 2.3, 50.64 4.08 C50.88 5.86, 49.66 7.63, 50.5 9.34 C51.34 11.05, 54.44 11.11, 55.69 14.32 C56.94 17.52, 57.93 23.71, 58.01 28.57 C58.1 33.43, 57.38 40.04, 56.19 43.49 C55.01 46.95, 52.99 47.81, 50.9 49.29 C48.82 50.78, 46.2 51.6, 43.7 52.4 C41.2 53.2, 36.88 53.51, 35.92 54.11 C34.97 54.72, 37.25 55.01, 37.98 56.05 C38.71 57.09, 39.84 57.38, 40.3 60.34 C40.77 63.29, 40.72 70.19, 40.78 73.79 C40.85 77.38, 41.12 80.34, 40.69 81.93 C40.25 83.52, 41.77 83.05, 38.15 83.34 C34.53 83.63, 22.56 84, 18.96 83.66 C15.36 83.33, 17.07 83.3, 16.56 81.31 C16.05 79.33, 16.74 73.13, 15.89 71.73 C15.04 70.34, 13.42 72.68, 11.46 72.97 C9.51 73.25, 6.5 74.01, 4.14 73.43 C1.78 72.86, -0.85 71.3, -2.7 69.51 C-4.56 67.71, -5.56 64.5, -6.96 62.65 C-8.36 60.81, -9.67 59.63, -11.1 58.43 C-12.54 57.23, -15.85 55.86, -15.58 55.46 C-15.31 55.07, -11.23 55.4, -9.5 56.05 C-7.77 56.7, -6.73 58.04, -5.19 59.37 C-3.66 60.69, -2.11 62.75, -0.31 64 C1.49 65.25, 3.54 66.55, 5.62 66.89 C7.71 67.24, 10.57 66.63, 12.21 66.07 C13.85 65.51, 14.87 64.61, 15.46 63.51 C16.05 62.41, 15.43 60.74, 15.77 59.49 C16.11 58.23, 16.85 56.84, 17.52 55.99 C18.19 55.14, 20.85 55.04, 19.79 54.41 C18.74 53.78, 14 53.02, 11.2 52.2 C8.4 51.38, 5.06 50.96, 2.99 49.49 C0.93 48.03, 0.02 46.86, -1.2 43.4 C-2.42 39.93, -4.22 33.46, -4.33 28.71 C-4.44 23.96, -2.86 17.82, -1.84 14.89 C-0.83 11.96, 1.49 12.59, 1.75 11.1 C2 9.62, -0.02 7.81, -0.31 5.96 C-0.6 4.11, -0.05 0.99, 0 0" stroke="none" stroke-width="0" fill="#ffffff" fill-rule="evenodd"></path><path d="M0 0 C1.1 0.39, 4.76 1.14, 6.61 2.32 C8.45 3.51, 9.3 6.64, 11.06 7.1 C12.81 7.56, 13.29 5.4, 17.12 5.11 C20.96 4.81, 30.35 5.21, 34.05 5.34 C37.75 5.46, 37.77 6.31, 39.33 5.86 C40.89 5.4, 41.79 3.8, 43.41 2.6 C45.04 1.41, 47.88 -1.58, 49.09 -1.33 C50.29 -1.09, 50.41 2.3, 50.64 4.08 C50.88 5.86, 49.66 7.63, 50.5 9.34 C51.34 11.05, 54.44 11.11, 55.69 14.32 C56.94 17.52, 57.93 23.71, 58.01 28.57 C58.1 33.43, 57.38 40.04, 56.19 43.49 C55.01 46.95, 52.99 47.81, 50.9 49.29 C48.82 50.78, 46.2 51.6, 43.7 52.4 C41.2 53.2, 36.88 53.51, 35.92 54.11 C34.97 54.72, 37.25 55.01, 37.98 56.05 C38.71 57.09, 39.84 57.38, 40.3 60.34 C40.77 63.29, 40.72 70.19, 40.78 73.79 C40.85 77.38, 41.12 80.34, 40.69 81.93 C40.25 83.52, 41.77 83.05, 38.15 83.34 C34.53 83.63, 22.56 84, 18.96 83.66 C15.36 83.33, 17.07 83.3, 16.56 81.31 C16.05 79.33, 16.74 73.13, 15.89 71.73 C15.04 70.34, 13.42 72.68, 11.46 72.97 C9.51 73.25, 6.5 74.01, 4.14 73.43 C1.78 72.86, -0.85 71.3, -2.7 69.51 C-4.56 67.71, -5.56 64.5, -6.96 62.65 C-8.36 60.81, -9.67 59.63, -11.1 58.43 C-12.54 57.23, -15.85 55.86, -15.58 55.46 C-15.31 55.07, -11.23 55.4, -9.5 56.05 C-7.77 56.7, -6.73 58.04, -5.19 59.37 C-3.66 60.69, -2.11 62.75, -0.31 64 C1.49 65.25, 3.54 66.55, 5.62 66.89 C7.71 67.24, 10.57 66.63, 12.21 66.07 C13.85 65.51, 14.87 64.61, 15.46 63.51 C16.05 62.41, 15.43 60.74, 15.77 59.49 C16.11 58.23, 16.85 56.84, 17.52 55.99 C18.19 55.14, 20.85 55.04, 19.79 54.41 C18.74 53.78, 14 53.02, 11.2 52.2 C8.4 51.38, 5.06 50.96, 2.99 49.49 C0.93 48.03, 0.02 46.86, -1.2 43.4 C-2.42 39.93, -4.22 33.46, -4.33 28.71 C-4.44 23.96, -2.86 17.82, -1.84 14.89 C-0.83 11.96, 1.49 12.59, 1.75 11.1 C2 9.62, -0.02 7.81, -0.31 5.96 C-0.6 4.11, -0.05 0.99, 0 0 M0 0 C1.1 0.39, 4.76 1.14, 6.61 2.32 C8.45 3.51, 9.3 6.64, 11.06 7.1 C12.81 7.56, 13.29 5.4, 17.12 5.11 C20.96 4.81, 30.35 5.21, 34.05 5.34 C37.75 5.46, 37.77 6.31, 39.33 5.86 C40.89 5.4, 41.79 3.8, 43.41 2.6 C45.04 1.41, 47.88 -1.58, 49.09 -1.33 C50.29 -1.09, 50.41 2.3, 50.64 4.08 C50.88 5.86, 49.66 7.63, 50.5 9.34 C51.34 11.05, 54.44 11.11, 55.69 14.32 C56.94 17.52, 57.93 23.71, 58.01 28.57 C58.1 33.43, 57.38 40.04, 56.19 43.49 C55.01 46.95, 52.99 47.81, 50.9 49.29 C48.82 50.78, 46.2 51.6, 43.7 52.4 C41.2 53.2, 36.88 53.51, 35.92 54.11 C34.97 54.72, 37.25 55.01, 37.98 56.05 C38.71 57.09, 39.84 57.38, 40.3 60.34 C40.77 63.29, 40.72 70.19, 40.78 73.79 C40.85 77.38, 41.12 80.34, 40.69 81.93 C40.25 83.52, 41.77 83.05, 38.15 83.34 C34.53 83.63, 22.56 84, 18.96 83.66 C15.36 83.33, 17.07 83.3, 16.56 81.31 C16.05 79.33, 16.74 73.13, 15.89 71.73 C15.04 70.34, 13.42 72.68, 11.46 72.97 C9.51 73.25, 6.5 74.01, 4.14 73.43 C1.78 72.86, -0.85 71.3, -2.7 69.51 C-4.56 67.71, -5.56 64.5, -6.96 62.65 C-8.36 60.81, -9.67 59.63, -11.1 58.43 C-12.54 57.23, -15.85 55.86, -15.58 55.46 C-15.31 55.07, -11.23 55.4, -9.5 56.05 C-7.77 56.7, -6.73 58.04, -5.19 59.37 C-3.66 60.69, -2.11 62.75, -0.31 64 C1.49 65.25, 3.54 66.55, 5.62 66.89 C7.71 67.24, 10.57 66.63, 12.21 66.07 C13.85 65.51, 14.87 64.61, 15.46 63.51 C16.05 62.41, 15.43 60.74, 15.77 59.49 C16.11 58.23, 16.85 56.84, 17.52 55.99 C18.19 55.14, 20.85 55.04, 19.79 54.41 C18.74 53.78, 14 53.02, 11.2 52.2 C8.4 51.38, 5.06 50.96, 2.99 49.49 C0.93 48.03, 0.02 46.86, -1.2 43.4 C-2.42 39.93, -4.22 33.46, -4.33 28.71 C-4.44 23.96, -2.86 17.82, -1.84 14.89 C-0.83 11.96, 1.49 12.59, 1.75 11.1 C2 9.62, -0.02 7.81, -0.31 5.96 C-0.6 4.11, -0.05 0.99, 0 0" stroke="#1e1e1e" stroke-width="1" fill="none"></path></g></g><mask></mask><g stroke-opacity="0.7" fill-opacity="0.7" transform="translate(878.4447250130015 346.7314609265899) rotate(0 57.59998321533203 22.5)"><text x="57.59998321533203" y="31.536" font-family="Virgil, Segoe UI Emoji" font-size="36px" fill="#1e1e1e" text-anchor="middle" style="white-space: pre;" direction="ltr" dominant-baseline="alphabetic">GitHub</text></g><g stroke-linecap="round"><g stroke-opacity="0.8" fill-opacity="0.8" transform="translate(617.9837107825393 247.54549959269377) rotate(0 126.02892045903292 0)"><path d="M0 0 C53.81 0.65, 106.53 -0.34, 252.06 0" stroke="#1e1e1e" stroke-width="2.5" fill="none" stroke-dasharray="8 10"></path></g><g stroke-opacity="0.8" fill-opacity="0.8" transform="translate(617.9837107825393 247.54549959269377) rotate(0 126.02892045903292 0)"><path d="M228.56 8.54 C234.35 7.87, 238.78 4.85, 252.06 0" stroke="#1e1e1e" stroke-width="2.5" fill="none"></path></g><g stroke-opacity="0.8" fill-opacity="0.8" transform="translate(617.9837107825393 247.54549959269377) rotate(0 126.02892045903292 0)"><path d="M228.57 -8.56 C234.31 -5.62, 238.74 -5.04, 252.06 0" stroke="#1e1e1e" stroke-width="2.5" fill="none"></path></g></g><mask></mask><g stroke-linecap="round"><g stroke-opacity="0.8" fill-opacity="0.8" transform="translate(92.50837759554395 244.44203432846223) rotate(0 121.66778824458828 0)"><path d="M0 0 C77.43 0.19, 154.57 0.82, 243.34 0" stroke="#1e1e1e" stroke-width="2.5" fill="none" stroke-dasharray="8 10"></path></g><g stroke-opacity="0.8" fill-opacity="0.8" transform="translate(92.50837759554395 244.44203432846223) rotate(0 121.66778824458828 0)"><path d="M219.89 8.67 C227.84 5.28, 235.45 3.29, 243.34 0" stroke="#1e1e1e" stroke-width="2.5" fill="none"></path></g><g stroke-opacity="0.8" fill-opacity="0.8" transform="translate(92.50837759554395 244.44203432846223) rotate(0 121.66778824458828 0)"><path d="M219.8 -8.43 C227.77 -6.41, 235.4 -2.99, 243.34 0" stroke="#1e1e1e" stroke-width="2.5" fill="none"></path></g></g><mask></mask><g stroke-linecap="round"><g stroke-opacity="0.8" fill-opacity="0.8" transform="translate(357.4828216917274 223.34869847295147) rotate(0 0 35.49737355860816)"><path d="M0 0 C0.66 16.06, 0.17 32.65, 0 70.99" stroke="#2f9e44" stroke-width="1.5" fill="none" stroke-dasharray="1.5 7"></path></g></g><mask></mask><g stroke-linecap="round"><g stroke-opacity="0.8" fill-opacity="0.8" transform="translate(608.4309382181359 223.34869847295147) rotate(0 0 53.184265677075246)"><path d="M0 0 C1.19 26.12, 0.14 52.37, 0 106.37" stroke="#e03131" stroke-width="1.5" fill="none" stroke-dasharray="1.5 7"></path></g></g><mask></mask><g stroke-linecap="round"><g stroke-opacity="0.8" fill-opacity="0.8" transform="translate(86.29984291963558 223.34869847295147) rotate(0 0 77.35250628111083)"><path d="M0 0 C2.66 49.67, 2.13 100.31, 0 154.71" stroke="#e03131" stroke-width="1.5" fill="none" stroke-dasharray="1.5 7"></path></g></g><mask></mask><g stroke-linecap="round"><g stroke-opacity="0.8" fill-opacity="0.8" transform="translate(362.10861128862257 269.4245440706794) rotate(0 112.30406712888998 0)"><path d="M0 0 C81.88 -0.77, 165.47 -1.92, 224.61 0" stroke="#1e1e1e" stroke-width="2.5" fill="none" stroke-dasharray="8 10"></path></g><g stroke-opacity="0.8" fill-opacity="0.8" transform="translate(362.10861128862257 269.4245440706794) rotate(0 112.30406712888998 0)"><path d="M200.98 8.15 C207.95 5.54, 216.97 1.17, 224.61 0" stroke="#1e1e1e" stroke-width="2.5" fill="none"></path></g><g stroke-opacity="0.8" fill-opacity="0.8" transform="translate(362.10861128862257 269.4245440706794) rotate(0 112.30406712888998 0)"><path d="M201.26 -8.94 C208.27 -5.21, 217.18 -3.24, 224.61 0" stroke="#1e1e1e" stroke-width="2.5" fill="none"></path></g></g><mask></mask><g stroke-linecap="round"><g stroke-opacity="0.8" fill-opacity="0.8" transform="translate(735.6924807459786 362.62024436468744) rotate(0 80.2948969832729 -29.88727772349813)"><path d="M0 0 C57.65 -23.05, 118.05 -42.54, 160.59 -59.77" stroke="#846358" stroke-width="2.5" fill="none" stroke-dasharray="8 10"></path></g></g><mask></mask><g transform="translate(93.81373285360769 213.8084430883323) rotate(0 41.015625 12)"><text x="0" y="19.3125" font-family="Cascadia, Segoe UI Emoji" font-size="20px" fill="#1e1e1e" text-anchor="start" style="white-space: pre;" direction="ltr" dominant-baseline="alphabetic">git add</text></g><g transform="translate(364.21785663121705 239.43626735134671) rotate(0 58.59375 12)"><text x="0" y="19.3125" font-family="Cascadia, Segoe UI Emoji" font-size="20px" fill="#1e1e1e" text-anchor="start" style="white-space: pre;" direction="ltr" dominant-baseline="alphabetic">git commit</text></g><g transform="translate(617.3830595688936 216.61234974843785) rotate(0 46.87500000000006 12)"><text x="0" y="19.3125" font-family="Cascadia, Segoe UI Emoji" font-size="20px" fill="#1e1e1e" text-anchor="start" style="white-space: pre;" direction="ltr" dominant-baseline="alphabetic">git push</text></g><g stroke-linecap="round"><g transform="translate(618.8254948096103 303.1652934549205) rotate(0 138.84336860730673 0)"><path d="M0 0 C75.49 -1.53, 150.64 -2.56, 277.69 0" stroke="#846358" stroke-width="2.5" fill="none" stroke-dasharray="8 10"></path></g><g transform="translate(618.8254948096103 303.1652934549205) rotate(0 138.84336860730673 0)"><path d="M23.42 -8.74 C17.32 -5.6, 10.79 -4.56, 0 0" stroke="#846358" stroke-width="2.5" fill="none"></path></g><g transform="translate(618.8254948096103 303.1652934549205) rotate(0 138.84336860730673 0)"><path d="M23.56 8.36 C17.45 6.87, 10.88 3.27, 0 0" stroke="#846358" stroke-width="2.5" fill="none"></path></g></g><mask></mask><g stroke-linecap="round"><g stroke-opacity="0.8" fill-opacity="0.8" transform="translate(92.86203079120742 304.3206680536549) rotate(0 246.24810063972768 0)"><path d="M0 0 C156.32 -2.31, 312.37 -1.28, 492.5 0" stroke="#846358" stroke-width="2.5" fill="none" stroke-dasharray="8 10"></path></g><g stroke-opacity="0.8" fill-opacity="0.8" transform="translate(92.86203079120742 304.3206680536549) rotate(0 246.24810063972768 0)"><path d="M23.47 -8.62 C16.13 -7.5, 8.11 -2.25, 0 0" stroke="#846358" stroke-width="2.5" fill="none"></path></g><g stroke-opacity="0.8" fill-opacity="0.8" transform="translate(92.86203079120742 304.3206680536549) rotate(0 246.24810063972768 0)"><path d="M23.52 8.48 C16.09 4.17, 8.05 3.99, 0 0" stroke="#846358" stroke-width="2.5" fill="none"></path></g></g><mask></mask><g transform="translate(691.6263283714266 272.1745481455165) rotate(0 52.734375 12)"><text x="0" y="19.3125" font-family="Cascadia, Segoe UI Emoji" font-size="20px" fill="#1e1e1e" text-anchor="start" style="white-space: pre;" direction="ltr" dominant-baseline="alphabetic">git fetch</text></g><g transform="translate(439.3252296063181 310.69436007070533) rotate(0 52.734375 12)"><text x="0" y="19.3125" font-family="Cascadia, Segoe UI Emoji" font-size="20px" fill="#1e1e1e" text-anchor="start" style="white-space: pre;" direction="ltr" dominant-baseline="alphabetic">git merge</text></g><g stroke-linecap="round"><g stroke-opacity="0.8" fill-opacity="0.8" transform="translate(92.83806199628492 364.54295253940256) rotate(0 318.76019848062765 0)"><path d="M0 0 C143.37 1.58, 287.03 2.75, 637.52 0" stroke="#846358" stroke-width="2.5" fill="none" stroke-dasharray="8 10"></path></g><g stroke-opacity="0.8" fill-opacity="0.8" transform="translate(92.83806199628492 364.54295253940256) rotate(0 318.76019848062765 0)"><path d="M23.53 -8.45 C17.21 -8.08, 11.62 -3.25, 0 0" stroke="#846358" stroke-width="2.5" fill="none"></path></g><g stroke-opacity="0.8" fill-opacity="0.8" transform="translate(92.83806199628492 364.54295253940256) rotate(0 318.76019848062765 0)"><path d="M23.46 8.65 C17.14 5.16, 11.56 6.14, 0 0" stroke="#846358" stroke-width="2.5" fill="none"></path></g></g><mask></mask><g transform="translate(629.449004556409 335.4219144601576) rotate(0 46.87499999999994 12)"><text x="0" y="19.3125" font-family="Cascadia, Segoe UI Emoji" font-size="20px" fill="#1e1e1e" text-anchor="start" style="white-space: pre;" direction="ltr" dominant-baseline="alphabetic">git pull</text></g><g transform="translate(659.9617342810416 83.15196821223321) rotate(0 28.82598876953125 17.5)"><text x="28.82598876953125" y="24.528" font-family="Virgil, Segoe UI Emoji" font-size="28px" fill="#e03131" text-anchor="middle" style="white-space: pre;" direction="ltr" dominant-baseline="alphabetic">/.git</text></g><g transform="translate(153.72316518809203 83.15196821223321) rotate(0 7 17.5)"><text x="7" y="24.528" font-family="Virgil, Segoe UI Emoji" font-size="28px" fill="#e03131" text-anchor="middle" style="white-space: pre;" direction="ltr" dominant-baseline="alphabetic">/</text></g><g transform="translate(329.5873383212694 165.1289310130884) rotate(0 41.97862569684065 8.292242917835665)"><text x="0" y="11.622407673638463" font-family="Virgil, Segoe UI Emoji" font-size="13.267588668537059px" fill="#868e96" text-anchor="start" style="white-space: pre;" direction="ltr" dominant-baseline="alphabetic">Staging Area</text></g><g transform="translate(35.14546568809715 165.1289310130884) rotate(0 55.72383824486758 8.292242917835665)"><text x="0" y="11.622407673638463" font-family="Virgil, Segoe UI Emoji" font-size="13.267588668537059px" fill="#868e96" text-anchor="start" style="white-space: pre;" direction="ltr" dominant-baseline="alphabetic">Working Directory</text></g><g transform="translate(578.7515181902028 165.1289310130884) rotate(0 36.83080114161277 8.292242917835665)"><text x="0" y="11.622407673638463" font-family="Virgil, Segoe UI Emoji" font-size="13.267588668537059px" fill="#868e96" text-anchor="start" style="white-space: pre;" direction="ltr" dominant-baseline="alphabetic">Repository </text></g><g stroke-opacity="0.5" fill-opacity="0.5" transform="translate(18.29091803165909 290.3598775360258) rotate(270 54.8193359375 11.5)"><text x="54.8193359375" y="18.400390625" font-family="Helvetica, Segoe UI Emoji" font-size="20px" fill="#e03131" text-anchor="middle" style="white-space: pre;" direction="ltr" dominant-baseline="alphabetic">UNSTAGED</text></g></svg>