<svg version="1.1" xmlns="http://www.w3.org/2000/svg" viewBox="0 0 1047.520389727547 309.69734051273986" width="1047.520389727547" height="309.69734051273986" filter="invert(93%) hue-rotate(180deg)">
  <!-- svg-source:excalidraw -->
  
  <defs>
    <style class="style-fonts">
      @font-face {
        font-family: "Virgil";
        src: url("https://excalidraw.com/Virgil.woff2");
      }
      @font-face {
        font-family: "Cascadia";
        src: url("https://excalidraw.com/Cascadia.woff2");
      }
      @font-face {
        font-family: "Assistant";
        src: url("https://excalidraw.com/Assistant-Regular.woff2");
      }
    </style>
    
  </defs>
  <g stroke-linecap="round" transform="translate(10 166.61169874285133) rotate(0 48.217029756591415 48.21702975659139)"><path d="M71.03 5.91 C78.11 8.96, 84.02 15.93, 88.36 22.52 C92.7 29.11, 96.54 37.68, 97.07 45.45 C97.6 53.23, 95.38 62.05, 91.54 69.15 C87.71 76.26, 81.01 83.68, 74.07 88.1 C67.12 92.52, 57.83 95.09, 49.89 95.66 C41.95 96.22, 33.58 94.9, 26.41 91.49 C19.24 88.08, 11.43 82.11, 6.88 75.22 C2.32 68.32, -0.67 58.15, -0.93 50.13 C-1.19 42.12, 1.44 34.3, 5.34 27.11 C9.24 19.91, 15.78 11.51, 22.47 6.97 C29.16 2.43, 37.44 -0.11, 45.47 -0.15 C53.5 -0.19, 66.02 5.4, 70.63 6.72 C75.24 8.05, 73.33 7.15, 73.15 7.8 M67.94 4.19 C75.31 6.92, 83.39 15.21, 87.92 21.84 C92.44 28.48, 94.32 36.05, 95.09 44 C95.86 51.95, 95.99 62.1, 92.53 69.53 C89.08 76.96, 81.28 84.01, 74.36 88.58 C67.44 93.16, 58.86 96.64, 51 96.99 C43.14 97.35, 34.37 94.21, 27.18 90.71 C20 87.22, 12.46 82.76, 7.88 76.02 C3.3 69.28, 0.15 58.22, -0.31 50.29 C-0.77 42.36, 1.38 35.59, 5.12 28.42 C8.86 21.25, 15.29 11.93, 22.13 7.27 C28.97 2.62, 38.45 0.65, 46.15 0.49 C53.85 0.32, 64.58 5.19, 68.34 6.26 C72.09 7.33, 68.87 6.27, 68.68 6.9" stroke="#e03131" stroke-width="1" fill="none"></path></g><g stroke-opacity="0.8" fill-opacity="0.8" transform="translate(37.028691047032055 193.13413978988342) rotate(0 21.09375 21.600000000000023)"><text x="21.09375" y="34.762499999999996" font-family="Cascadia, Segoe UI Emoji" font-size="36px" fill="#e03131" text-anchor="middle" style="white-space: pre;" direction="ltr" dominant-baseline="alphabetic">c1</text></g><g stroke-linecap="round" transform="translate(242.7715825535911 166.61169874285156) rotate(0 48.217029756591444 48.21702975659139)"><path d="M50.78 -0.44 C58.43 -0.53, 67.73 3.26, 74.42 7.84 C81.11 12.42, 87.34 19.66, 90.9 27.04 C94.46 34.42, 96.07 44.08, 95.77 52.11 C95.47 60.13, 93.35 68.62, 89.1 75.19 C84.84 81.77, 77.65 88.03, 70.25 91.54 C62.85 95.06, 52.89 96.93, 44.69 96.28 C36.49 95.63, 27.7 92.28, 21.05 87.65 C14.39 83.03, 8.13 75.49, 4.75 68.51 C1.37 61.53, 0.25 53.49, 0.74 45.76 C1.24 38.03, 3.48 29.01, 7.73 22.15 C11.97 15.29, 18.36 8.32, 26.22 4.58 C34.07 0.85, 49.98 0.29, 54.84 -0.26 C59.71 -0.82, 55.78 0.22, 55.42 1.24 M64.33 3.96 C71.87 5.79, 79.9 9.82, 85.25 15.89 C90.6 21.97, 95.02 32.3, 96.43 40.42 C97.85 48.53, 96.51 57.28, 93.74 64.6 C90.97 71.92, 85.76 79.06, 79.82 84.36 C73.89 89.65, 65.84 94.73, 58.11 96.36 C50.38 97.99, 41.36 96.87, 33.43 94.12 C25.51 91.37, 16.12 86.22, 10.56 79.87 C4.99 73.53, 1.49 63.97, 0.04 56.06 C-1.4 48.15, -0.67 39.6, 1.89 32.42 C4.45 25.24, 9.14 18.49, 15.41 12.99 C21.68 7.48, 31.53 1.22, 39.52 -0.59 C47.51 -2.41, 59.08 1.26, 63.35 2.07 C67.61 2.89, 65.14 3.67, 65.11 4.3" stroke="#e03131" stroke-width="1" fill="none"></path></g><g stroke-opacity="0.8" fill-opacity="0.8" transform="translate(269.8002736006233 193.13413978988365) rotate(0 21.09375 21.600000000000023)"><text x="21.09375" y="34.762499999999996" font-family="Cascadia, Segoe UI Emoji" font-size="36px" fill="#e03131" text-anchor="middle" style="white-space: pre;" direction="ltr" dominant-baseline="alphabetic">c2</text></g><g stroke-linecap="round" transform="translate(475.54316510718206 166.61169874285156) rotate(0 48.217029756591444 48.21702975659139)"><path d="M69.85 5.02 C76.98 7.65, 84.15 14.86, 88.48 21.58 C92.81 28.29, 95.51 37.18, 95.84 45.33 C96.18 53.49, 93.86 63.4, 90.49 70.51 C87.12 77.61, 82.07 83.82, 75.64 87.98 C69.21 92.13, 60.15 94.75, 51.93 95.45 C43.7 96.15, 33.71 95.76, 26.27 92.19 C18.84 88.62, 11.74 80.99, 7.31 74.01 C2.88 67.03, -0.07 58.09, -0.3 50.29 C-0.54 42.5, 2.23 34.36, 5.89 27.23 C9.54 20.09, 15.04 11.87, 21.65 7.49 C28.26 3.1, 36.69 0.96, 45.55 0.91 C54.41 0.86, 69.29 5.28, 74.82 7.2 C80.36 9.13, 79.25 11.63, 78.76 12.46 M51.86 1.26 C59.66 0.68, 68.56 2.79, 75.18 6.89 C81.8 10.99, 88.23 18.63, 91.57 25.86 C94.92 33.09, 95.75 42.35, 95.26 50.27 C94.77 58.2, 92.64 66.52, 88.62 73.4 C84.59 80.29, 78.57 87.89, 71.12 91.57 C63.67 95.26, 52.25 95.83, 43.9 95.52 C35.55 95.21, 27.37 93.91, 21.01 89.71 C14.65 85.51, 9.49 77.64, 5.77 70.34 C2.05 63.04, -1.59 53.88, -1.32 45.91 C-1.06 37.94, 2.84 29.3, 7.36 22.54 C11.87 15.77, 18.34 8.86, 25.77 5.32 C33.19 1.78, 47.69 1.77, 51.9 1.3 C56.1 0.82, 51.38 1.69, 50.98 2.46" stroke="#e03131" stroke-width="1" fill="none"></path></g><g stroke-opacity="0.8" fill-opacity="0.8" transform="translate(502.5718561542142 193.13413978988365) rotate(0 21.09375 21.600000000000023)"><text x="21.09375" y="34.762499999999996" font-family="Cascadia, Segoe UI Emoji" font-size="36px" fill="#e03131" text-anchor="middle" style="white-space: pre;" direction="ltr" dominant-baseline="alphabetic">c3</text></g><g stroke-linecap="round" transform="translate(708.314747660773 166.61169874285156) rotate(0 48.21702975659139 48.21702975659139)"><path d="M69.4 5.08 C76.75 7.7, 85.29 14.8, 89.68 21.54 C94.06 28.28, 95.58 37.29, 95.7 45.54 C95.82 53.79, 93.83 63.86, 90.38 71.05 C86.92 78.25, 81.68 84.45, 74.96 88.69 C68.25 92.92, 58.09 96.04, 50.08 96.49 C42.08 96.94, 34.13 95, 26.95 91.39 C19.78 87.78, 11.41 81.65, 7.06 74.84 C2.7 68.03, 1.05 58.63, 0.81 50.53 C0.57 42.43, 2.13 33.28, 5.64 26.24 C9.15 19.2, 15.06 12.53, 21.86 8.3 C28.66 4.06, 37.6 1.03, 46.43 0.84 C55.26 0.64, 69.56 5.43, 74.84 7.12 C80.12 8.8, 78.72 10.27, 78.11 10.97 M51.03 -1.36 C58.78 -1.98, 66.8 2.43, 73.7 7.17 C80.61 11.9, 88.59 20.02, 92.46 27.05 C96.33 34.09, 97.46 41.58, 96.92 49.39 C96.38 57.2, 93.53 67.09, 89.2 73.91 C84.87 80.73, 78.16 86.45, 70.94 90.32 C63.71 94.2, 53.83 97.45, 45.86 97.16 C37.89 96.86, 29.66 93.29, 23.12 88.56 C16.58 83.83, 10.31 75.83, 6.64 68.77 C2.96 61.7, 0.89 53.94, 1.09 46.15 C1.28 38.37, 3.64 28.98, 7.81 22.04 C11.98 15.09, 18.92 8.2, 26.09 4.5 C33.27 0.79, 46.56 0.22, 50.86 -0.19 C55.16 -0.6, 51.88 1.31, 51.88 2.07" stroke="#e03131" stroke-width="1" fill="none"></path></g><g stroke-opacity="0.8" fill-opacity="0.8" transform="translate(735.3434387078053 193.13413978988365) rotate(0 21.09375 21.600000000000023)"><text x="21.09375" y="34.762499999999996" font-family="Cascadia, Segoe UI Emoji" font-size="36px" fill="#e03131" text-anchor="middle" style="white-space: pre;" direction="ltr" dominant-baseline="alphabetic">c4</text></g><g stroke-linecap="round" transform="translate(941.0863302143641 166.61169874285156) rotate(0 48.21702975659139 48.21702975659139)"><path d="M64.28 3.55 C71.78 5.39, 79.79 10.11, 85.1 16.19 C90.41 22.27, 94.72 32, 96.15 40.04 C97.59 48.08, 96.46 57.05, 93.73 64.46 C91 71.87, 85.75 79.22, 79.76 84.5 C73.77 89.77, 65.58 94.52, 57.79 96.11 C50 97.69, 40.85 96.7, 33.04 93.98 C25.23 91.27, 16.38 86.06, 10.92 79.8 C5.47 73.54, 1.77 64.33, 0.31 56.42 C-1.15 48.52, -0.43 39.68, 2.16 32.37 C4.76 25.06, 9.66 17.96, 15.87 12.54 C22.08 7.13, 30.63 1.23, 39.44 -0.12 C48.25 -1.47, 62.91 2.93, 68.75 4.43 C74.59 5.92, 74.66 8.19, 74.47 8.83 M56.56 1.12 C64.42 1.95, 74.46 7.58, 80.66 13.06 C86.86 18.53, 91.49 26.38, 93.75 33.95 C96.02 41.52, 95.69 50.81, 94.25 58.46 C92.81 66.11, 90.15 74.02, 85.11 79.87 C80.07 85.71, 71.83 90.9, 64.02 93.53 C56.21 96.15, 46.21 96.9, 38.26 95.6 C30.31 94.3, 22.07 90.95, 16.3 85.72 C10.54 80.49, 6.32 72.01, 3.65 64.23 C0.99 56.45, -1.15 47.19, 0.32 39.04 C1.79 30.89, 6.95 21.6, 12.45 15.31 C17.95 9.02, 25.95 3.7, 33.32 1.28 C40.69 -1.15, 52.6 0.84, 56.68 0.78 C60.76 0.72, 57.82 0.36, 57.81 0.93" stroke="#e03131" stroke-width="1" fill="none"></path></g><g stroke-opacity="0.8" fill-opacity="0.8" transform="translate(968.1150212613961 193.13413978988365) rotate(0 21.09375 21.600000000000023)"><text x="21.09375" y="34.762499999999996" font-family="Cascadia, Segoe UI Emoji" font-size="36px" fill="#e03131" text-anchor="middle" style="white-space: pre;" direction="ltr" dominant-baseline="alphabetic">c5</text></g><g stroke-linecap="round"><g stroke-opacity="0.8" fill-opacity="0.8" transform="translate(107.1506445112604 213.1648117860566) rotate(0 69.41016718322854 0)"><path d="M0 0 C41.49 -1.2, 79.06 0.45, 138.82 0" stroke="#1971c2" stroke-width="2.5" fill="none" stroke-dasharray="8 10"></path></g><g stroke-opacity="0.8" fill-opacity="0.8" transform="translate(107.1506445112604 213.1648117860566) rotate(0 69.41016718322854 0)"><path d="M23.49 -8.56 C18.78 -6.46, 10.12 -2.37, 0 0" stroke="#1971c2" stroke-width="2.5" fill="none"></path></g><g stroke-opacity="0.8" fill-opacity="0.8" transform="translate(107.1506445112604 213.1648117860566) rotate(0 69.41016718322854 0)"><path d="M23.49 8.54 C18.72 5.77, 10.05 4.99, 0 0" stroke="#1971c2" stroke-width="2.5" fill="none"></path></g></g><mask></mask><g stroke-linecap="round"><g stroke-opacity="0.8" fill-opacity="0.8" transform="translate(340.1025570847096 212.71945058284905) rotate(0 69.41016718322851 0)"><path d="M0 0 C55.42 1.16, 109.44 1.72, 138.82 0" stroke="#1971c2" stroke-width="2.5" fill="none" stroke-dasharray="8 10"></path></g><g stroke-opacity="0.8" fill-opacity="0.8" transform="translate(340.1025570847096 212.71945058284905) rotate(0 69.41016718322851 0)"><path d="M23.57 -8.33 C15.93 -4.72, 6.93 -0.92, 0 0" stroke="#1971c2" stroke-width="2.5" fill="none"></path></g><g stroke-opacity="0.8" fill-opacity="0.8" transform="translate(340.1025570847096 212.71945058284905) rotate(0 69.41016718322851 0)"><path d="M23.41 8.77 C15.91 5.75, 6.97 2.9, 0 0" stroke="#1971c2" stroke-width="2.5" fill="none"></path></g></g><mask></mask><g stroke-linecap="round"><g stroke-opacity="0.8" fill-opacity="0.8" transform="translate(573.0544696581586 213.00531734243896) rotate(0 69.41016718322857 0)"><path d="M0 0 C34.11 -1.06, 68.29 1.26, 138.82 0" stroke="#1971c2" stroke-width="2.5" fill="none" stroke-dasharray="8 10"></path></g><g stroke-opacity="0.8" fill-opacity="0.8" transform="translate(573.0544696581586 213.00531734243896) rotate(0 69.41016718322857 0)"><path d="M23.53 -8.45 C18.75 -7.87, 14.02 -3.52, 0 0" stroke="#1971c2" stroke-width="2.5" fill="none"></path></g><g stroke-opacity="0.8" fill-opacity="0.8" transform="translate(573.0544696581586 213.00531734243896) rotate(0 69.41016718322857 0)"><path d="M23.46 8.65 C18.66 5.13, 13.95 5.38, 0 0" stroke="#1971c2" stroke-width="2.5" fill="none"></path></g></g><mask></mask><g stroke-linecap="round"><g stroke-opacity="0.8" fill-opacity="0.8" transform="translate(806.0063822316076 213.15996632116526) rotate(0 69.41016718322851 0)"><path d="M0 0 C51.69 -0.34, 99.67 -0.79, 138.82 0" stroke="#1971c2" stroke-width="2.5" fill="none" stroke-dasharray="8 10"></path></g><g stroke-opacity="0.8" fill-opacity="0.8" transform="translate(806.0063822316076 213.15996632116526) rotate(0 69.41016718322851 0)"><path d="M23.46 -8.65 C16.54 -4.32, 5.89 -1.65, 0 0" stroke="#1971c2" stroke-width="2.5" fill="none"></path></g><g stroke-opacity="0.8" fill-opacity="0.8" transform="translate(806.0063822316076 213.15996632116526) rotate(0 69.41016718322851 0)"><path d="M23.53 8.45 C16.55 6.6, 5.88 3.1, 0 0" stroke="#1971c2" stroke-width="2.5" fill="none"></path></g></g><mask></mask><g stroke-opacity="0.8" fill-opacity="0.8" transform="translate(16.797054475829725 274.69734051273986) rotate(0 41.41997528076172 12.5)"><text x="41.41997528076172" y="17.52" font-family="Virgil, Segoe UI Emoji" font-size="20px" fill="#868e96" text-anchor="middle" style="white-space: pre;" direction="ltr" dominant-baseline="alphabetic">HEAD~4</text></g><g stroke-opacity="0.8" fill-opacity="0.8" transform="translate(248.15863336731138 274.69734051273986) rotate(0 41.829978942871094 12.5)"><text x="41.829978942871094" y="17.52" font-family="Virgil, Segoe UI Emoji" font-size="20px" fill="#868e96" text-anchor="middle" style="white-space: pre;" direction="ltr" dominant-baseline="alphabetic">HEAD~3</text></g><g stroke-opacity="0.8" fill-opacity="0.8" transform="translate(479.6202183623087 274.69734051273986) rotate(0 42.139976501464844 12.5)"><text x="42.139976501464844" y="17.52" font-family="Virgil, Segoe UI Emoji" font-size="20px" fill="#868e96" text-anchor="middle" style="white-space: pre;" direction="ltr" dominant-baseline="alphabetic">HEAD~2</text></g><g stroke-opacity="0.8" fill-opacity="0.8" transform="translate(715.8017969486148 274.69734051273986) rotate(0 37.72998046875 12.5)"><text x="37.72998046875" y="17.52" font-family="Virgil, Segoe UI Emoji" font-size="20px" fill="#868e96" text-anchor="middle" style="white-space: pre;" direction="ltr" dominant-baseline="alphabetic">HEAD~1</text></g><g stroke-opacity="0.8" fill-opacity="0.8" transform="translate(958.6933746193931 274.69734051273986) rotate(0 26.6099853515625 12.5)"><text x="26.6099853515625" y="17.52" font-family="Virgil, Segoe UI Emoji" font-size="20px" fill="#868e96" text-anchor="middle" style="white-space: pre;" direction="ltr" dominant-baseline="alphabetic">HEAD</text></g><g stroke-opacity="0.8" fill-opacity="0.8" stroke-linecap="round" transform="translate(945.0900267222737 10) rotate(0 44.21333324868192 26.14769789164211)"><path d="M0 0 C0 0, 0 0, 0 0 M0 0 C0 0, 0 0, 0 0 M0.13 12.04 C3.95 10.13, 6.33 5.96, 10.63 -0.03 M0.13 12.04 C2.48 9.36, 6.17 4.97, 10.63 -0.03 M0.27 24.08 C4.5 16.67, 12.54 13.13, 21.26 -0.07 M0.27 24.08 C4.69 17.4, 11.57 11.26, 21.26 -0.07 M-0.26 36.88 C10.64 25.58, 23.77 12.57, 31.89 -0.1 M-0.26 36.88 C11.79 24.34, 22.29 12.68, 31.89 -0.1 M-0.12 48.92 C14.9 29.98, 30.63 11.21, 42.52 -0.14 M-0.12 48.92 C11.64 35.46, 24.76 22.39, 42.52 -0.14 M7.23 52.66 C15.72 40.89, 25.88 29.98, 53.15 -0.17 M7.23 52.66 C19.01 39.08, 31.06 26.98, 53.15 -0.17 M17.86 52.62 C35.5 31.11, 53.37 14.12, 63.78 -0.21 M17.86 52.62 C29.8 39.17, 40.47 27.19, 63.78 -0.21 M28.49 52.59 C40.91 37.39, 54.5 21.95, 74.41 -0.24 M28.49 52.59 C42.2 39.1, 53.76 22.48, 74.41 -0.24 M39.12 52.55 C52.6 36.43, 65.57 23.65, 85.04 -0.28 M39.12 52.55 C52 37.37, 63.3 24.9, 85.04 -0.28 M49.75 52.52 C62.26 36.46, 75.2 21.85, 88.45 7.99 M49.75 52.52 C63.11 36.95, 75.81 21.94, 88.45 7.99 M60.38 52.48 C67.56 45.45, 70.55 37.84, 88.59 20.03 M60.38 52.48 C71.6 39.25, 82.55 27.1, 88.59 20.03 M71.01 52.45 C74.81 45.66, 80.5 41.73, 88.72 32.07 M71.01 52.45 C77.44 45.05, 83.02 40.45, 88.72 32.07 M81.64 52.42 C83.46 49.43, 87.98 45.93, 88.85 44.11 M81.64 52.42 C83.62 50.84, 85.02 48.8, 88.85 44.11" stroke="#ffc9c9" stroke-width="1" fill="none"></path><path d="M0 0 C34.31 -1.9, 67.76 -0.23, 88.43 0 M88.43 0 C90.34 9.69, 88.33 23.56, 88.43 52.3 M88.43 52.3 C66.42 51.58, 43.87 54.39, 0 52.3 M0 52.3 C0.92 33.46, 0.99 9.91, 0 0" stroke="#1971c2" stroke-width="2.5" fill="none" stroke-dasharray="8 10"></path></g><g stroke-opacity="0.8" fill-opacity="0.8" transform="translate(963.1933746193931 23.64769789164211) rotate(0 26.1099853515625 12.5)"><text x="26.1099853515625" y="17.52" font-family="Virgil, Segoe UI Emoji" font-size="20px" fill="#1971c2" text-anchor="middle" style="white-space: pre;" direction="ltr" dominant-baseline="alphabetic">MAIN</text></g><g stroke-opacity="0.8" fill-opacity="0.8" stroke-linecap="round" transform="translate(865.9083636376686 10) rotate(0 35.180461163573 26.14769789164211)"><path d="M0 0 C0 0, 0 0, 0 0 M0 0 C0 0, 0 0, 0 0 M0.13 12.04 C2.32 8, 8 3, 10.63 -0.03 M0.13 12.04 C2.63 9.12, 5.78 6.2, 10.63 -0.03 M0.27 24.08 C2.51 18.81, 10.34 15.01, 21.26 -0.07 M0.27 24.08 C7.61 17.11, 14.81 9.14, 21.26 -0.07 M-0.26 36.88 C7.89 28.98, 11.77 22.07, 31.89 -0.1 M-0.26 36.88 C8.05 27.31, 18.5 16.67, 31.89 -0.1 M-0.12 48.92 C14.19 33.17, 23.28 20.23, 42.52 -0.14 M-0.12 48.92 C13.01 33.92, 25.71 19.73, 42.52 -0.14 M7.23 52.66 C21.51 37.03, 33.91 19.05, 53.15 -0.17 M7.23 52.66 C19.32 38.83, 33.51 24.31, 53.15 -0.17 M17.86 52.62 C29.73 38.34, 39.64 26.68, 63.78 -0.21 M17.86 52.62 C34.52 33.82, 50.29 16.22, 63.78 -0.21 M28.49 52.59 C43.75 37, 57.48 19.23, 71.13 3.53 M28.49 52.59 C44.25 35.97, 59.29 18.37, 71.13 3.53 M39.12 52.55 C49.89 38.96, 62.44 23.89, 71.26 15.57 M39.12 52.55 C47 43.31, 56.04 33.07, 71.26 15.57 M49.75 52.52 C56.69 45.06, 61.1 39.04, 70.74 28.37 M49.75 52.52 C54.59 47.5, 57.86 42.75, 70.74 28.37 M60.38 52.48 C63.15 50.18, 64.22 46, 70.87 40.41 M60.38 52.48 C62.23 50.22, 65.19 47.65, 70.87 40.41" stroke="#ffc9c9" stroke-width="1" fill="none"></path><path d="M0 0 C26.01 -0.32, 49.47 0.63, 70.36 0 M70.36 0 C70.22 15.06, 68.83 28.66, 70.36 52.3 M70.36 52.3 C48.27 50.27, 27.96 52.85, 0 52.3 M0 52.3 C-0.93 38.91, -2.18 24.17, 0 0" stroke="#343a40" stroke-width="2.5" fill="none" stroke-dasharray="8 10"></path></g><g stroke-opacity="0.8" fill-opacity="0.8" transform="translate(874.4788394496791 23.64769789164211) rotate(0 26.6099853515625 12.5)"><text x="26.6099853515625" y="17.52" font-family="Virgil, Segoe UI Emoji" font-size="20px" fill="#343a40" text-anchor="middle" style="white-space: pre;" direction="ltr" dominant-baseline="alphabetic">HEAD</text></g><g stroke-linecap="round"><g stroke-opacity="0.8" fill-opacity="0.8" transform="translate(988.7901041863247 75.29528697010642) rotate(0 0 37.55755758195801)"><path d="M0 0 C-0.47 20.1, -1.5 38.59, 0 75.12 M0 0 C-0.21 24.84, -0.06 47.84, 0 75.12" stroke="#1971c2" stroke-width="2" fill="none"></path></g><g stroke-opacity="0.8" fill-opacity="0.8" transform="translate(988.7901041863247 75.29528697010642) rotate(0 0 37.55755758195801)"><path d="M-8.62 51.65 C-6.66 58.49, -5.49 63.75, 0 75.12 M-8.62 51.65 C-6.47 60.03, -3.57 66.53, 0 75.12" stroke="#1971c2" stroke-width="2" fill="none"></path></g><g stroke-opacity="0.8" fill-opacity="0.8" transform="translate(988.7901041863247 75.29528697010642) rotate(0 0 37.55755758195801)"><path d="M8.48 51.6 C6.06 58.5, 2.85 63.77, 0 75.12 M8.48 51.6 C5.17 59.92, 2.6 66.44, 0 75.12" stroke="#1971c2" stroke-width="2" fill="none"></path></g></g><mask></mask></svg>